<?xml version="1.0" standalone="no"?>
<!DOCTYPE svg PUBLIC "-//W3C//DTD SVG 1.1//EN" "http://www.w3.org/Graphics/SVG/1.1/DTD/svg11.dtd" >
<svg xmlns="http://www.w3.org/2000/svg" xmlns:xlink="http://www.w3.org/1999/xlink" version="1.1">
<metadata>
Created by FontForge 20190801 at Sun Feb 22 21:49:15 2015
 By Unknown
Copyright (c) 2015, Andreas Larsen (&#60;andreaslarsen.dk|mail@andreaslarsen.dk&#62;)
</metadata>
<defs>
<font id="Gidolinya-Regular" horiz-adv-x="470" >
  <font-face 
    font-family="Gidolinya"
    font-weight="400"
    font-stretch="normal"
    units-per-em="1000"
    panose-1="2 0 5 3 0 0 0 0 0 0"
    ascent="800"
    descent="-200"
    x-height="478"
    cap-height="666"
    bbox="-70 -232 1232 883"
    underline-thickness="50"
    underline-position="-150"
    stemh="70"
    stemv="74"
    unicode-range="U+0020-FB02"
  />
<missing-glyph horiz-adv-x="500" 
d="M50 0v533h400v-533h-400zM100 50h300v433h-300v-433z" />
    <glyph glyph-name=".notdef" horiz-adv-x="500" 
d="M50 0v533h400v-533h-400zM100 50h300v433h-300v-433z" />
    <glyph glyph-name="space" unicode=" " horiz-adv-x="250" 
 />
    <glyph glyph-name="exclam" unicode="!" horiz-adv-x="260" 
d="M130 96c30 0 51 -21 51 -51s-21 -51 -51 -51s-51 21 -51 51s21 51 51 51zM92 666h74v-194c0 -180 -10 -303 -10 -303h-54s-10 123 -10 303v194z" />
    <glyph glyph-name="quotedbl" unicode="&#x22;" horiz-adv-x="362" 
d="M210 621c0 31 21 51 51 51s51 -20 51 -51c0 -13 -4 -26 -14 -54l-40 -112h-45l29 118c-19 6 -32 25 -32 48zM50 621c0 31 21 51 51 51s51 -20 51 -51c0 -13 -4 -26 -14 -54l-40 -112h-45l29 118c-19 6 -32 25 -32 48z" />
    <glyph glyph-name="numbersign" unicode="#" horiz-adv-x="610" 
d="M236 666h64l-40 -188h150l40 188h64l-40 -188h81v-57h-93l-36 -174h94v-57h-106l-40 -190h-64l40 190h-150l-40 -190h-64l40 190h-81v57h93l36 174h-94v57h106zM398 421h-150l-36 -174h150z" />
    <glyph glyph-name="dollar" unicode="$" horiz-adv-x="531" 
d="M234 736h54v-65c57 -4 115 -21 165 -52l-40 -58c-37 22 -80 35 -125 40v-222c60 -16 102 -36 135 -67c48 -46 58 -100 58 -132c0 -55 -26 -107 -68 -140c-37 -29 -82 -42 -125 -45v-65h-54v65c-68 5 -135 28 -190 68l44 56c42 -31 94 -49 146 -54v255
c-39 10 -84 24 -121 55c-38 32 -63 77 -63 132c0 48 23 92 58 121c42 33 97 42 126 43v65zM234 601c-33 -1 -62 -13 -79 -27c-26 -23 -31 -54 -31 -67c0 -33 13 -58 38 -79c19 -16 44 -27 72 -35v208zM288 306v-241c32 4 61 13 84 35c21 20 35 46 35 80c0 17 -6 53 -35 81
c-25 24 -46 32 -84 45z" />
    <glyph glyph-name="percent" unicode="%" horiz-adv-x="692" 
d="M512 295c39 0 72 -17 92 -41c28 -34 28 -70 28 -110c0 -39 0 -75 -28 -109c-20 -24 -53 -41 -92 -41s-72 17 -92 41c-28 34 -28 70 -28 109c0 40 0 76 28 110c20 24 53 41 92 41zM512 237c-20 0 -37 -8 -48 -23c-12 -17 -12 -37 -12 -70c0 -32 0 -52 12 -69
c11 -15 28 -23 48 -23s37 8 48 23c12 17 12 37 12 69c0 33 0 53 -12 70c-11 15 -28 23 -48 23zM180 672c39 0 72 -17 92 -41c28 -34 28 -70 28 -110c0 -39 0 -75 -28 -109c-20 -24 -53 -41 -92 -41s-72 17 -92 41c-28 34 -28 70 -28 109c0 40 0 76 28 110c20 24 53 41 92 41
zM180 614c-20 0 -37 -8 -48 -23c-12 -17 -12 -37 -12 -70c0 -32 0 -52 12 -69c11 -15 28 -23 48 -23s37 8 48 23c12 17 12 37 12 69c0 33 0 53 -12 70c-11 15 -28 23 -48 23zM486 666h74l-360 -666h-74z" />
    <glyph glyph-name="ampersand" unicode="&#x26;" horiz-adv-x="642" 
d="M312 308c-63 0 -101 0 -135 -28c-26 -22 -43 -58 -43 -96c0 -39 17 -69 37 -87c24 -22 61 -33 101 -33c49 0 96 15 125 43c0 0 -2 9 -2 56v145h-83zM312 378h83v100h74v-100h108v-70h-108v-144c0 -49 0 -69 14 -84c11 -12 29 -16 45 -16c17 0 35 4 52 12l32 -64
c-26 -11 -54 -18 -84 -18c-45 0 -81 16 -104 46c-39 -30 -92 -46 -152 -46c-53 0 -106 14 -147 48c-38 31 -65 82 -65 142c0 64 31 126 90 161c-53 34 -78 90 -78 147c0 60 27 105 61 134c41 34 91 46 138 46c55 0 113 -15 160 -51l-44 -56c-33 26 -74 37 -115 37
c-28 0 -62 -6 -87 -26s-39 -50 -39 -84c0 -35 15 -68 39 -88c31 -26 65 -26 127 -26z" />
    <glyph glyph-name="quotesingle" unicode="'" horiz-adv-x="202" 
d="M50 621c0 31 21 51 51 51s51 -20 51 -51c0 -13 -4 -26 -14 -54l-40 -112h-45l29 118c-19 6 -32 25 -32 48z" />
    <glyph glyph-name="parenleft" unicode="(" horiz-adv-x="320" 
d="M140 298c0 -190 0 -278 40 -354c21 -41 55 -74 98 -93l-24 -51c-56 24 -101 68 -128 120c-46 87 -46 183 -46 378s0 290 46 377c27 52 72 96 128 120l24 -51c-43 -19 -77 -52 -98 -93c-40 -76 -40 -163 -40 -353z" />
    <glyph glyph-name="parenright" unicode=")" horiz-adv-x="320" 
d="M180 298c0 190 0 277 -40 353c-21 41 -55 74 -98 93l24 51c56 -24 101 -68 128 -120c46 -87 46 -182 46 -377s0 -291 -46 -378c-27 -52 -72 -96 -128 -120l-24 51c43 19 77 52 98 93c40 76 40 164 40 354z" />
    <glyph glyph-name="asterisk" unicode="*" horiz-adv-x="352" 
d="M150 667h52l-3 -91l87 31l16 -50l-88 -25l56 -72l-42 -31l-52 75l-52 -75l-41 30l55 73l-88 26l16 50l87 -32z" />
    <glyph glyph-name="plus" unicode="+" horiz-adv-x="520" 
d="M80 279h150v151h60v-151h150v-58h-150v-151h-60v151h-150v58z" />
    <glyph glyph-name="comma" unicode="," horiz-adv-x="202" 
d="M50 45c0 31 21 51 51 51s51 -20 51 -51c0 -13 -4 -26 -14 -54l-40 -112h-45l29 118c-19 6 -32 25 -32 48z" />
    <glyph glyph-name="hyphen" unicode="-" horiz-adv-x="370" 
d="M80 279h210v-58h-210v58z" />
    <glyph glyph-name="period" unicode="." horiz-adv-x="202" 
d="M101 96c30 0 51 -21 51 -51s-21 -51 -51 -51s-51 21 -51 51s21 51 51 51z" />
    <glyph glyph-name="slash" unicode="/" horiz-adv-x="342" 
d="M260 740h62l-240 -884h-62z" />
    <glyph glyph-name="zero" unicode="0" horiz-adv-x="534" 
d="M267 602c-30 0 -72 -9 -98 -41c-30 -37 -30 -83 -30 -156v-144c0 -73 0 -119 30 -156c26 -32 68 -41 98 -41s72 9 98 41c30 37 30 83 30 156v144c0 73 0 119 -30 156c-26 32 -68 41 -98 41zM267 672c57 0 118 -20 158 -70c44 -55 44 -118 44 -197v-144
c0 -79 0 -142 -44 -197c-40 -50 -101 -70 -158 -70s-118 20 -158 70c-44 55 -44 118 -44 197v144c0 79 0 142 44 197c40 50 101 70 158 70z" />
    <glyph glyph-name="one" unicode="1" horiz-adv-x="361" 
d="M261 512v-512h-74v512c0 41 0 63 -17 76c-12 9 -29 9 -66 9h-14v70h14c44 0 84 0 117 -28c40 -35 40 -79 40 -127z" />
    <glyph glyph-name="two" unicode="2" horiz-adv-x="515" 
d="M236 672c57 0 99 -15 133 -41c39 -30 67 -83 67 -141c0 -75 -37 -118 -93 -174l-152 -153c-38 -38 -53 -51 -53 -71c0 -9 5 -15 11 -18c7 -4 17 -4 60 -4h246v-70h-256c-39 0 -61 0 -85 12c-28 14 -50 42 -50 80c0 45 29 75 73 119l152 153c50 51 73 77 73 126
c0 31 -13 65 -39 86c-22 18 -51 26 -87 26c-41 0 -84 -12 -115 -37l-44 56c49 38 110 51 159 51z" />
    <glyph glyph-name="three" unicode="3" horiz-adv-x="486" 
d="M75 666h202c45 0 82 0 111 -34c12 -14 20 -31 20 -55c0 -40 -23 -66 -56 -106l-66 -79c31 -6 60 -20 84 -42c38 -35 61 -88 61 -153s-24 -117 -61 -151c-36 -33 -88 -52 -151 -52c-66 0 -126 20 -169 56l46 55c28 -25 74 -41 123 -41c38 0 75 10 99 32s39 58 39 101
c0 31 -8 75 -39 103s-68 28 -132 28v57l110 132c27 32 38 45 38 60c0 7 -3 11 -7 14c-6 4 -12 5 -60 5h-192v70z" />
    <glyph glyph-name="four" unicode="4" horiz-adv-x="525" 
d="M332 666l-173 -322c-26.1533 -48.6787 -34 -62 -34 -80c0 -6 1 -11 5 -17c8 -12 22 -12 60 -12h153v168h70v-168h57v-70h-57v-165h-70v165h-143c-48 0 -71 0 -95 12c-30 15 -54 44 -54 87c0 36 18.8545 69.4619 38 105l160 297h83z" />
    <glyph glyph-name="five" unicode="5" horiz-adv-x="492" 
d="M77 483v28c0 48 0 92 40 127c33 28 73 28 117 28h167v-70h-167c-37 0 -54 0 -66 -9c-17 -13 -17 -35 -17 -76v-28c0 -44 2 -58 14 -69c11 -10 31 -14 52 -14c72 0 124 -13 164 -50c37 -34 61 -87 61 -152c0 -66 -24 -118 -61 -152c-36 -33 -87 -52 -151 -52
c-65 0 -127 19 -170 55l46 55c30 -26 74 -40 124 -40c43 0 76 11 99 32c25 23 39 58 39 102c0 43 -15 80 -39 102c-29 26 -66 30 -116 30c-35 0 -71 10 -95 30c-41 34 -41 78 -41 123z" />
    <glyph glyph-name="six" unicode="6" horiz-adv-x="500" 
d="M376 205c0 45 -13 79 -32 101c-19 23 -51 40 -94 40s-75 -17 -94 -40c-19 -22 -32 -56 -32 -101s13 -79 32 -101c19 -23 51 -40 94 -40s75 17 94 40c19 22 32 56 32 101zM50 205c0 63 15 105 76 222l124 239h82l-135 -260c17 8 34 10 53 10c65 0 118 -27 152 -66
c32 -37 48 -88 48 -145s-16 -108 -48 -145c-34 -39 -87 -66 -152 -66s-118 27 -152 66c-32 37 -48 88 -48 145z" />
    <glyph glyph-name="seven" unicode="7" horiz-adv-x="500" 
d="M103 0l235 484c23 47 32 66 32 83c0 11 -4 18 -10 23c-8 6 -20 6 -63 6h-242v70h252c40 0 79 0 108 -29c17 -17 29 -39 29 -70c0 -34 -17 -68 -39 -113l-221 -454h-81z" />
    <glyph glyph-name="eight" unicode="8" horiz-adv-x="522" 
d="M261 602c-25 0 -52 -6 -74 -21c-28 -19 -46 -52 -46 -91c0 -32 13 -68 46 -91c25 -17 54 -21 74 -21s49 4 74 21c33 23 46 59 46 91c0 39 -18 72 -46 91c-22 15 -49 21 -74 21zM261 672c43 0 91 -12 129 -43s65 -79 65 -139c0 -64 -33 -116 -79 -146
c52 -30 91 -85 91 -158c0 -65 -31 -117 -71 -148s-88 -44 -135 -44s-95 13 -135 44s-71 83 -71 148c0 73 39 128 91 158c-46 30 -79 82 -79 146c0 60 27 108 65 139s86 43 129 43zM261 308c-30 0 -62 -8 -88 -28c-24 -19 -44 -51 -44 -94s20 -75 44 -94
c26 -20 58 -28 88 -28s62 8 88 28c24 19 44 51 44 94s-20 75 -44 94c-26 20 -58 28 -88 28z" />
    <glyph glyph-name="nine" unicode="9" horiz-adv-x="500" 
d="M250 602c-43 0 -75 -17 -94 -40c-19 -22 -32 -56 -32 -101s13 -79 32 -101c19 -23 51 -40 94 -40s75 17 94 40c19 22 32 56 32 101s-13 79 -32 101c-19 23 -51 40 -94 40zM250 672c65 0 118 -27 152 -66c32 -37 48 -88 48 -145c0 -63 -15 -105 -76 -222l-124 -239h-82
l135 260c-17 -8 -34 -10 -53 -10c-65 0 -118 27 -152 66c-32 37 -48 88 -48 145s16 108 48 145c34 39 87 66 152 66z" />
    <glyph glyph-name="colon" unicode=":" horiz-adv-x="202" 
d="M101 96c30 0 51 -21 51 -51s-21 -51 -51 -51s-51 21 -51 51s21 51 51 51zM101 385c30 0 51 -21 51 -51s-21 -51 -51 -51s-51 21 -51 51s21 51 51 51z" />
    <glyph glyph-name="semicolon" unicode=";" horiz-adv-x="202" 
d="M50 45c0 31 21 51 51 51s51 -20 51 -51c0 -13 -4 -26 -14 -54l-40 -112h-45l29 118c-19 6 -32 25 -32 48zM101 385c30 0 51 -21 51 -51s-21 -51 -51 -51s-51 21 -51 51s21 51 51 51z" />
    <glyph glyph-name="less" unicode="&#x3c;" horiz-adv-x="520" 
d="M449 394l-292 -144l292 -144l-28 -52l-341 170v52l341 170z" />
    <glyph glyph-name="equal" unicode="=" horiz-adv-x="520" 
d="M80 347h360v-58h-360v58zM80 211h360v-58h-360v58z" />
    <glyph glyph-name="greater" unicode="&#x3e;" horiz-adv-x="520" 
d="M71 394l28 52l341 -170v-52l-341 -170l-28 52l292 144z" />
    <glyph glyph-name="question" unicode="?" horiz-adv-x="469" 
d="M214 96c30 0 51 -21 51 -51s-21 -51 -51 -51s-51 21 -51 51s21 51 51 51zM209 672c57 0 99 -15 133 -41c39 -30 67 -82 67 -141c0 -63 -30 -109 -66 -139s-78 -45 -93 -89c-3 -9 -6 -22 -7 -46l-2 -47h-54s-2 37 -2 55c0 21 1 33 5 52c14 68 73 99 104 126
c25 22 41 49 41 88c0 32 -13 65 -39 86c-22 18 -51 26 -87 26c-41 0 -84 -12 -115 -37l-44 56c49 38 110 51 159 51z" />
    <glyph glyph-name="at" unicode="@" horiz-adv-x="850" 
d="M594 266v-66c0 -67 0 -113 -35 -154c-30 -35 -77 -52 -137 -52c-48 0 -89 10 -121 33c-33 23 -60 63 -60 115c0 53 27 92 59 115c47 34 103 34 142 34h82c0 27 0 74 -39 105c-29 23 -67 23 -136 23c-78 0 -131 0 -172 -48c-36 -42 -36 -96 -36 -171v-102
c0 -75 0 -129 36 -171c41 -48 103 -48 181 -48h134c78 0 140 0 181 48c36 42 36 96 36 171v137c0 114 0 216 -77 293c-76 76 -180 76 -290 76h-65v62h65c121 0 242 0 338 -96c95 -95 95 -219 95 -335v-137c0 -83 0 -155 -55 -215c-61 -66 -146 -66 -228 -66h-134
c-82 0 -167 0 -228 66c-55 60 -55 132 -55 215v102c0 83 0 155 55 215c61 66 137 66 219 66c77 0 131 0 183 -39c62 -47 62 -120 62 -176zM524 200v29h-82c-34 0 -70 0 -98 -20c-18 -13 -33 -36 -33 -67c0 -28 14 -50 32 -63c19 -13 47 -19 79 -19c37 0 66 8 83 28
c19 22 19 53 19 112z" />
    <glyph glyph-name="A" unicode="A" horiz-adv-x="594" 
d="M297 672c26 0 53 -9 73 -28c17 -16 25 -30 46 -110l143 -534h-76l-52 195h-268l-52 -195h-76l143 534c21 80 29 94 46 110c20 19 47 28 73 28zM182 265h230l-68 253c-14 54 -19 69 -26 76c-5 5 -13 8 -21 8s-16 -3 -21 -8c-7 -7 -12 -22 -26 -76z" />
    <glyph glyph-name="B" unicode="B" horiz-adv-x="550" 
d="M115 638c33 28 73 28 117 28h2c71 0 127 0 177 -39c41 -32 64 -83 64 -140c0 -61 -26 -110 -73 -139c58 -30 93 -86 93 -159c0 -57 -22 -104 -53 -135c-54 -54 -124 -54 -198 -54h-12c-44 0 -84 0 -117 28c-40 35 -40 79 -40 127v356c0 49 0 94 40 127zM166 587
c-17 -13 -17 -35 -17 -76v-133h85c68 0 114 0 143 36c17 21 24 47 24 73s-7 52 -24 73c-29 36 -75 36 -143 36h-2c-37 0 -54 0 -66 -9zM244 308h-95v-153c0 -41 0 -63 17 -76c12 -9 29 -9 66 -9h12c69 0 114 0 147 35c17 18 30 48 30 84s-13 66 -30 84
c-33 35 -78 35 -147 35z" />
    <glyph glyph-name="C" unicode="C" horiz-adv-x="536" 
d="M290 672c62 0 126 -21 175 -61l-43 -56c-36 30 -84 47 -132 47c-51.4434 0 -91.6279 -19.126 -116 -50c-35 -46 -35 -94 -35 -219s0 -173 35 -219c24.3721 -30.874 64.5566 -50 116 -50c52 0 104 19 141 53l45 -55c-50 -44 -117 -68 -186 -68
c-83.4717 0 -141.801 35 -177 80c-48 63 -48 130 -48 259s0 196 48 259c35.1992 45 93.5283 80 177 80z" />
    <glyph glyph-name="D" unicode="D" horiz-adv-x="570" 
d="M212 666c65 0 166 0 235 -69c68 -68 68 -162 68 -264s0 -196 -68 -264c-69 -69 -170 -69 -235 -69c-24 0 -64 0 -97 28c-40 35 -40 79 -40 127v356c0 48 0 92 40 127c33 28 73 28 97 28zM212 596c-17 0 -34 0 -46 -9c-17 -13 -17 -35 -17 -76v-356c0 -41 0 -63 17 -76
c12 -9 29 -9 46 -9c56 0 134 0 181 47c48 48 48 120 48 216s0 168 -48 216c-47 47 -125 47 -181 47z" />
    <glyph glyph-name="E" unicode="E" horiz-adv-x="510" 
d="M149 378l236 1v-70l-236 -1v-153c0 -41 0 -63 17 -76c12 -9 29 -9 66 -9h213v-70h-213c-44 0 -84 0 -117 28c-40 35 -40 79 -40 127v356c0 48 0 92 40 127c33 28 73 28 117 28h213v-70h-213c-37 0 -54 0 -66 -9c-17 -13 -17 -35 -17 -76v-133z" />
    <glyph glyph-name="F" unicode="F" horiz-adv-x="495" 
d="M232 666h203v-70h-203c-37 0 -54 0 -66 -9c-17 -13 -17 -35 -17 -76v-132h236v-70h-236v-309h-74v511c0 48 0 92 40 127c33 28 73 28 117 28z" />
    <glyph glyph-name="G" unicode="G" horiz-adv-x="580" 
d="M290 672c62 0 126 -21 175 -61l-43 -56c-36 30 -84 47 -132 47c-51.4434 0 -91.6279 -19.126 -116 -50c-35 -46 -35 -94 -35 -219s0 -173 35 -219c24.3721 -30.874 64.5566 -50 116 -50s91.6279 19.126 116 50c30.3408 39.877 34.3799 81.2568 34.917 173h-137.917v70
h212v-24c0 -129 0 -196 -48 -259c-35.1992 -45 -93.5283 -80 -177 -80s-141.801 35 -177 80c-48 63 -48 130 -48 259s0 196 48 259c35.1992 45 93.5283 80 177 80z" />
    <glyph glyph-name="H" unicode="H" horiz-adv-x="590" 
d="M75 666h74v-288h292v288h74v-666h-74v308h-292v-308h-74v666z" />
    <glyph glyph-name="I" unicode="I" horiz-adv-x="224" 
d="M149 666v-666h-74v666h74z" />
    <glyph glyph-name="J" unicode="J" horiz-adv-x="446" 
d="M302 666h74v-405c0 -82 0 -144 -41 -197c-38 -49 -95 -70 -154 -70c-52 0 -103 16 -146 49l45 56c27 -23 65 -35 101 -35c40 0 69 14 88 34c33 35 33 86 33 163v405z" />
    <glyph glyph-name="K" unicode="K" horiz-adv-x="561" 
d="M75 666h74v-308c12 0 24 0 36 6c14 7 25 22 46 51l185 251h90l-205 -278c-9 -13 -22 -32 -33 -45l253 -343h-90l-220 298c-25 -10 -49 -10 -62 -10v-288h-74v666z" />
    <glyph glyph-name="L" unicode="L" horiz-adv-x="480" 
d="M75 666h74v-511c0 -41 0 -63 17 -76c12 -9 29 -9 66 -9h193v-70h-193c-44 0 -84 0 -117 28c-40 35 -40 79 -40 127v511z" />
    <glyph glyph-name="M" unicode="M" horiz-adv-x="806" 
d="M260 672c64 0 118 -27 146 -80c32 52 82 80 150 80c56 0 101 -21 132 -55c48 -53 48 -120 48 -201v-416h-74v416c0 76 0 118 -28 152c-18 22 -48 34 -83 34s-65 -12 -83 -34c-28 -34 -28 -76 -28 -152v-416h-74v416c0 76 0 118 -28 152c-18 22 -48 34 -83 34
s-65 -12 -83 -34c-28 -34 -28 -76 -28 -152v-416h-74v416c0 81 0 150 50 201c33 34 80 55 140 55z" />
    <glyph glyph-name="N" unicode="N" horiz-adv-x="554" 
d="M277 672c62 0 119 -23 155 -64c52 -59 52 -131 52 -221v-387h-74v387c0 81 0 137 -34 175c-24 27 -60 40 -99 40s-75 -13 -99 -40c-34 -38 -34 -94 -34 -175v-387h-74v387c0 90 0 162 52 221c36 41 93 64 155 64z" />
    <glyph glyph-name="O" unicode="O" horiz-adv-x="584" 
d="M139 333c0 -102 0 -162 26 -205c24 -40 71 -64 127 -64s103 24 127 64c26 43 26 103 26 205s0 162 -26 205c-24 40 -71 64 -127 64s-103 -24 -127 -64c-26 -43 -26 -103 -26 -205zM65 333c0 118 0 181 36 240c37 61 107 99 191 99s154 -38 191 -99
c36 -59 36 -122 36 -240s0 -181 -36 -240c-37 -61 -107 -99 -191 -99s-154 38 -191 99c-36 59 -36 122 -36 240z" />
    <glyph glyph-name="P" unicode="P" horiz-adv-x="535" 
d="M219 666c69 0 138 0 199 -55c49 -44 67 -107 67 -160s-18 -116 -67 -160c-61 -55 -135 -55 -214 -55h-55v-236h-74v511c0 48 0 92 40 127c33 28 70 28 104 28zM219 596c-27 0 -41 0 -53 -9c-17 -13 -17 -35 -17 -76v-205h55c74 0 123 0 162 35c27 24 45 62 45 110
s-18 86 -45 110c-39 35 -83 35 -147 35z" />
    <glyph glyph-name="Q" unicode="Q" horiz-adv-x="584" 
d="M65 333c0 118 0 181 36 240c37 61 107 99 191 99s154 -38 191 -99c36 -59 36 -122 36 -240s0 -181 -36 -240c-14 -23 -33 -43 -56 -59l105 -70l-37 -59l-142 96c-19 -5 -40 -7 -61 -7c-84 0 -154 38 -191 99c-36 59 -36 122 -36 240zM139 333c0 -102 0 -162 26 -205
c24 -40 71 -64 127 -64s103 24 127 64c26 43 26 103 26 205s0 162 -26 205c-24 40 -71 64 -127 64s-103 -24 -127 -64c-26 -43 -26 -103 -26 -205z" />
    <glyph glyph-name="R" unicode="R" horiz-adv-x="550" 
d="M227 596c-32 0 -49 0 -61 -9c-17 -13 -17 -35 -17 -76v-185h69c75 0 121 0 159 35c26 24 39 62 39 100s-13 76 -39 100c-38 35 -85 35 -150 35zM227 666c69 0 143 0 202 -55c37 -35 61 -87 61 -150c0 -87 -46 -153 -108 -182l118 -279h-80l-108 259c-22 -3 -44 -3 -94 -3
h-69v-256h-74v511c0 48 0 92 40 127c33 28 73 28 112 28z" />
    <glyph glyph-name="S" unicode="S" horiz-adv-x="510" 
d="M247 672c71 0 138 -23 186 -60l-44 -56c-34 27 -86 46 -142 46c-89 0 -124 -51 -124 -99c0 -30 15 -59 40 -79c24 -20 63 -32 96 -42c44 -13 93 -27 135 -63c35 -30 66 -81 66 -139c0 -91 -69 -186 -213 -186c-74 0 -148 24 -204 72l47 54c43 -38 101 -56 157 -56
c100 0 139 62 139 116c0 31 -16 66 -44 89c-27 23 -68 35 -114 49c-37 11 -76 22 -117 56c-34 28 -62 76 -62 127c0 95 74 171 198 171z" />
    <glyph glyph-name="T" unicode="T" horiz-adv-x="530" 
d="M40 666h450v-70h-188v-596h-74v596h-188v70z" />
    <glyph glyph-name="U" unicode="U" horiz-adv-x="554" 
d="M70 666h74v-387c0 -81 0 -137 34 -175c24 -27 60 -40 99 -40s75 13 99 40c34 38 34 94 34 175v387h74v-387c0 -90 0 -162 -52 -221c-36 -41 -93 -64 -155 -64s-119 23 -155 64c-52 59 -52 131 -52 221v387z" />
    <glyph glyph-name="V" unicode="V" horiz-adv-x="556" 
d="M111 666l127 -536c9 -37 12 -52 19 -58s13 -8 21 -8s14 2 21 8s10 21 19 58l127 536h76l-131 -552c-15 -62 -19 -73 -39 -92s-47 -28 -73 -28s-53 9 -73 28s-24 30 -39 92l-131 552h76z" />
    <glyph glyph-name="W" unicode="W" horiz-adv-x="806" 
d="M70 666h74v-416c0 -76 0 -118 28 -152c18 -22 48 -34 83 -34s65 12 83 34c28 34 28 76 28 152v416h74v-416c0 -76 0 -118 28 -152c18 -22 48 -34 83 -34s65 12 83 34c28 34 28 76 28 152v416h74v-416c0 -81 0 -148 -49 -201c-32 -34 -78 -55 -136 -55
c-65.7295 0 -117.226 26.5117 -148 79.5479c-30.791 -52.0586 -82.2559 -79.5479 -148 -79.5479c-58 0 -104 21 -136 55c-49 53 -49 120 -49 201v416z" />
    <glyph glyph-name="X" unicode="X" horiz-adv-x="540" 
d="M45 666h83l142 -268l142 268h83l-179 -328l184 -338h-83l-147 278l-147 -278h-83l184 338z" />
    <glyph glyph-name="Y" unicode="Y" horiz-adv-x="510" 
d="M255 374c5 0 10 1 16 7c7 7 14 18 40 71l98 214h81l-115 -243c-36 -72 -47 -97 -83 -114v-309h-74v309c-36 17 -47 42 -83 114l-115 243h81l98 -214c26 -53 33 -64 40 -71c6 -6 11 -7 16 -7z" />
    <glyph glyph-name="Z" unicode="Z" horiz-adv-x="530" 
d="M70 596v70h241c52 0 93 0 124 -28c19 -17 33 -40 33 -72c0 -45 -22 -70 -70 -126l-218 -258c-45 -53 -54 -63 -54 -82c0 -11 5 -18 11 -22c12 -8 26 -8 73 -8h260v-70h-261c-50 0 -93 0 -123 27c-21 19 -34 41 -34 73c0 41 18 64 66 121l235 278c32 38 41 48 41 67
c0 11 -5 18 -12 23c-11 7 -30 7 -72 7h-240z" />
    <glyph glyph-name="bracketleft" unicode="[" horiz-adv-x="289" 
d="M85 780h154v-56h-94v-853h94v-56h-154v965z" />
    <glyph glyph-name="backslash" unicode="\" horiz-adv-x="342" 
d="M20 740h62l240 -884h-62z" />
    <glyph glyph-name="bracketright" unicode="]" horiz-adv-x="289" 
d="M50 780h154v-965h-154v56h94v853h-94v56z" />
    <glyph glyph-name="asciicircum" unicode="^" horiz-adv-x="368" 
d="M145 666h78l95 -120h-66l-68 76l-68 -76h-66z" />
    <glyph glyph-name="underscore" unicode="_" horiz-adv-x="440" 
d="M35 0h370v-58h-370v58z" />
    <glyph glyph-name="grave" unicode="`" horiz-adv-x="253" 
d="M50 666h78l75 -120h-66z" />
    <glyph glyph-name="a" unicode="a" horiz-adv-x="438" 
d="M388 200c0 -67 0 -113 -35 -154c-30 -35 -77 -52 -137 -52c-48 0 -89 10 -121 33c-33 23 -60 63 -60 115c0 53 27 92 59 115c47 34 103 34 142 34h82c0 31 0 71 -24 98c-17 19 -43 29 -81 29c-44 0 -88 -10 -130 -26l-22 63c47 17 98 29 152 29c60 0 105 -19 135 -53
c40 -45 40 -104 40 -157v-74zM318 200v29h-82c-34 0 -70 0 -98 -20c-18 -13 -33 -36 -33 -67c0 -28 14 -50 32 -63c19 -13 47 -19 79 -19c37 0 66 8 83 28c19 22 19 53 19 112z" />
    <glyph glyph-name="b" unicode="b" 
d="M240 418c-38 0 -67 -14 -85 -35c-30 -35 -30 -90 -30 -164c0 -53 0 -96 24 -125c20 -24 50 -34 81 -34c34 0 68 12 90 36c35 38 35 90 35 141c0 56 0 111 -30 146c-18 21 -47 35 -85 35zM245 484c59 0 106 -24 135 -59c45 -54 45 -120 45 -188c0 -61 0 -131 -56 -188
c-31 -31 -79 -55 -139 -55c-63 0 -113 27 -141 66c-34 47 -34 97 -34 172v434h70v-243c27 38 71 61 120 61z" />
    <glyph glyph-name="c" unicode="c" horiz-adv-x="419" 
d="M343 93l36 -56c-42 -28 -93 -43 -144 -43c-64 0 -110.938 24.0547 -142 59c-48 54 -48 131 -48 190c0 52 0 127 47 181c31 36 79 60 143 60c48 0 96 -13 137 -39l-34 -57c-30 19 -67 30 -103 30c-31 0 -65 -8 -89 -36c-31 -36 -31 -95 -31 -139c0 -51 0 -111 32 -148
c19.0156 -21.9863 49 -35 88 -35c38 0 76 11 108 33z" />
    <glyph glyph-name="d" unicode="d" 
d="M225 484c49 0 93 -23 120 -61v243h70v-434c0 -75 0 -125 -34 -172c-28 -39 -78 -66 -141 -66c-60 0 -108 24 -139 55c-56 57 -56 127 -56 188c0 68 0 134 45 188c29 35 76 59 135 59zM345 219c0 74 0 129 -30 164c-18 21 -47 35 -85 35s-67 -14 -85 -35
c-30 -35 -30 -90 -30 -146c0 -51 0 -103 35 -141c22 -24 56 -36 90 -36c31 0 61 10 81 34c24 29 24 72 24 125z" />
    <glyph glyph-name="e" unicode="e" horiz-adv-x="454" 
d="M139 102c20 -27 52 -42 100 -42c43 0 86 10 122 29l29 -60c-47 -24 -99 -35 -151 -35c-69 0 -124 25 -156 68c-38 52 -38 112 -38 177c0 78 0 124 36 174c32 45 92 71 163 71c50 0 90 -13 120 -37c30 -25 49 -62 50 -101c0 -44 -22 -78 -50 -98c-42 -30 -85 -30 -156 -30
h-92c0 -26 0 -85 23 -116zM344 346c-1 19 -11 39 -26 51c-17 14 -43 21 -74 21c-45 0 -81 -13 -103 -39c-25 -29 -25 -79 -25 -99h92c63 0 91 0 112 16c13 10 24 27 24 50z" />
    <glyph glyph-name="f" unicode="f" horiz-adv-x="313" 
d="M208 672c28 0 53 -6 77 -12l-16 -64c-24 6 -44 10 -61 10c-26 0 -45 -9 -58 -27c-15 -21 -15 -50 -15 -101h120v-62h-120v-416h-70v476c0 60 0 103 28 141c23 31 59 55 115 55z" />
    <glyph glyph-name="g" unicode="g" 
d="M232 418c-37 0 -67 -13 -85 -33c-32 -36 -32 -87 -32 -144c0 -56 0 -111 30 -146c18 -21 47 -35 85 -35s67 14 85 35c30 35 30 90 30 164c0 53 0 95 -24 123c-19 23 -53 36 -89 36zM232 484c46 0 104 -14 143 -60c40 -47 40 -94 40 -175v-204c0 -71 0 -126 -46 -176
c-32 -35 -83 -58 -149 -58c-49 0 -102 12 -146 36l29 60c33 -18 75 -30 117 -30c49 0 82 17 101 41c24 30 24 66 24 127v10c-27 -38 -71 -61 -120 -61c-59 0 -106 24 -135 59c-45 54 -45 120 -45 188c0 62 0 132 48 186c31 34 79 57 139 57z" />
    <glyph glyph-name="h" unicode="h" 
d="M65 666h70v-238c23 33 63 56 110 56c59 0 101 -26 124 -51c46 -49 46 -107 46 -177v-256h-70v256c0 62 0 104 -29 133c-17 17 -43 29 -76 29s-59 -12 -76 -29c-29 -29 -29 -71 -29 -133v-256h-70v666z" />
    <glyph glyph-name="i" unicode="i" horiz-adv-x="200" 
d="M100 649c27 0 47 -19 47 -47s-20 -47 -47 -47s-47 19 -47 47s20 47 47 47zM65 0v478h70v-478h-70z" />
    <glyph glyph-name="j" unicode="j" horiz-adv-x="200" 
d="M135 -24c0 -54 0 -89 -26 -122c-20 -25 -52 -43 -95 -43c-26 0 -50 7 -70 16l27 61c14 -7 30 -11 43 -11c16 0 31 5 41 19s10 32 10 90v492h70v-502zM100 649c27 0 47 -19 47 -47s-20 -47 -47 -47s-47 19 -47 47s20 47 47 47z" />
    <glyph glyph-name="k" unicode="k" horiz-adv-x="458" 
d="M65 667h70v-383c14 0 27 0 40 10c10 8 18 18 33 37l114 146h86l-142 -183c-13 -17 -18 -24 -28 -34l185 -260h-85l-158 223c-14 -4 -28 -5 -45 -5v-218h-70v667z" />
    <glyph glyph-name="l" unicode="l" horiz-adv-x="200" 
d="M65 667h70v-667h-70v667z" />
    <glyph glyph-name="m" unicode="m" horiz-adv-x="700" 
d="M220 484c57 0 103 -25 130 -70c27 45 73 70 130 70c47 0 88 -17 115 -43c50 -48 50 -110 50 -185v-256h-70v256c0 66 0 111 -30 139c-15 14 -38 23 -65 23s-50 -9 -65 -23c-30 -28 -30 -73 -30 -139v-256h-70v256c0 66 0 111 -30 139c-15 14 -38 23 -65 23
s-50 -9 -65 -23c-30 -28 -30 -73 -30 -139v-256h-70v256c0 75 0 137 50 185c27 26 68 43 115 43z" />
    <glyph glyph-name="n" unicode="n" horiz-adv-x="460" 
d="M230 484c61 0 104 -26 128 -51c47 -49 47 -107 47 -177v-256h-70v256c0 62 0 104 -29 133c-17 17 -43 29 -76 29s-59 -12 -76 -29c-29 -29 -29 -71 -29 -133v-256h-70v256c0 70 0 128 47 177c24 25 67 51 128 51z" />
    <glyph glyph-name="o" unicode="o" 
d="M235 418c-44 0 -78 -18 -98 -48c-22 -33 -22 -80 -22 -131s0 -98 22 -131c20 -30 54 -48 98 -48s78 18 98 48c22 33 22 80 22 131s0 98 -22 131c-20 30 -54 48 -98 48zM235 484c71 0 129 -32 161 -85c29 -48 29 -103 29 -160s0 -112 -29 -160c-32 -53 -90 -85 -161 -85
s-129 32 -161 85c-29 48 -29 103 -29 160s0 112 29 160c32 53 90 85 161 85z" />
    <glyph glyph-name="p" unicode="p" 
d="M238 418c-36 0 -70 -13 -89 -36c-24 -28 -24 -70 -24 -123c0 -74 0 -129 30 -164c18 -21 47 -35 85 -35s67 14 85 35c30 35 30 90 30 146c0 57 0 108 -32 144c-18 20 -48 33 -85 33zM238 484c60 0 108 -23 139 -57c48 -54 48 -124 48 -186c0 -68 0 -134 -45 -188
c-29 -35 -76 -59 -135 -59c-49 0 -93 23 -120 61v-238h-70v432c0 81 0 128 40 175c39 46 97 60 143 60z" />
    <glyph glyph-name="q" unicode="q" 
d="M232 418c-37 0 -67 -13 -85 -33c-32 -36 -32 -87 -32 -144c0 -56 0 -111 30 -146c18 -21 47 -35 85 -35s67 14 85 35c30 35 30 90 30 164c0 53 0 95 -24 123c-19 23 -53 36 -89 36zM232 484c46 0 104 -14 143 -60c40 -47 40 -94 40 -175v-432h-70v238
c-27 -38 -71 -61 -120 -61c-59 0 -106 24 -135 59c-45 54 -45 120 -45 188c0 62 0 132 48 186c31 34 79 57 139 57z" />
    <glyph glyph-name="r" unicode="r" horiz-adv-x="338" 
d="M238 484c25 0 48 -4 68 -11l-21 -63c-14 5 -30 8 -47 8c-36 0 -70 -13 -89 -36c-24 -28 -24 -70 -24 -133v-249h-70v249c0 81 0 128 40 175c39 46 97 60 143 60z" />
    <glyph glyph-name="s" unicode="s" horiz-adv-x="408" 
d="M345 451l-26 -61c-38 18 -80 28 -120 28c-25 0 -43 -4 -60 -14s-29 -28 -29 -50c0 -21 11 -38 25 -49c20 -16 41 -21 77 -29s69 -17 97 -37c31 -22 59 -59 59 -109c0 -45 -23 -82 -54 -104s-69 -32 -115 -32c-54 0 -110 11 -161 35l28 60c41 -19 87 -29 133 -29
c29 0 54 5 73 19s26 34 26 51c0 23 -12 42 -28 54c-22 16 -47 22 -79 29s-68 16 -98 39s-53 59 -53 102c0 46 25 81 54 101s64 29 105 29c51 0 101 -12 146 -33z" />
    <glyph glyph-name="t" unicode="t" horiz-adv-x="314" 
d="M130 170c0 -54 0 -72 14 -90c10 -12 25 -20 47 -20c19 0 42 7 65 19l30 -59c-27 -14 -59 -26 -95 -26c-44 0 -81 18 -103 46c-28 35 -28 73 -28 130v421h70v-113h120v-62h-120v-246z" />
    <glyph glyph-name="u" unicode="u" horiz-adv-x="460" 
d="M55 478h70v-256c0 -62 0 -104 29 -133c17 -17 43 -29 76 -29s59 12 76 29c29 29 29 71 29 133v256h70v-256c0 -70 0 -128 -47 -177c-24 -25 -67 -51 -128 -51s-104 26 -128 51c-47 49 -47 107 -47 177v256z" />
    <glyph glyph-name="v" unicode="v" horiz-adv-x="422" 
d="M87 478l87 -360c6 -26 10 -41 16 -48c5 -6 13 -10 21 -10s16 4 21 10c6 7 10 22 16 48l87 360h72l-89 -367c-11 -46 -16 -72 -44 -95c-16 -13 -38 -22 -63 -22s-47 9 -63 22c-28 23 -33 49 -44 95l-89 367h72zM407 478z" />
    <glyph glyph-name="w" unicode="w" horiz-adv-x="700" 
d="M220 -6c-47 0 -88 17 -115 43c-50 48 -50 110 -50 185v256h70v-256c0 -66 0 -111 30 -139c15 -14 38 -23 65 -23s50 9 65 23c30 28 30 73 30 139v256h70v-256c0 -66 0 -111 30 -139c15 -14 38 -23 65 -23s50 9 65 23c30 28 30 73 30 139v256h70v-256
c0 -75 0 -137 -50 -185c-27 -26 -68 -43 -115 -43c-57 0 -103 25 -130 70c-27 -45 -73 -70 -130 -70z" />
    <glyph glyph-name="x" unicode="x" horiz-adv-x="452" 
d="M43 478h79l104 -182l106 182h77l-144 -237l147 -241h-79l-107 187l-109 -187h-77l147 241z" />
    <glyph glyph-name="y" unicode="y" horiz-adv-x="418" 
d="M15 478h73l94 -322c15 -52 22 -74 28 -83s16 -11 26 -12l90 417h72l-115 -519c-11 -49 -19 -80 -41 -105c-21 -24 -55 -43 -97 -43c-22 0 -45 5 -67 13l21 62c16 -6 31 -9 46 -9c19 0 32 6 43 17c14 14 20 37 34 102c-28 4 -51 17 -65 35c-15 20 -19 38 -41 110z" />
    <glyph glyph-name="z" unicode="z" horiz-adv-x="414" 
d="M57 412v66h192c26 0 56 0 86 -24c23 -18 34 -44 34 -70c0 -49 -34 -79 -84 -120l-112 -93c-46 -38 -68 -56 -68 -77c0 -9 4 -16 9 -20c10 -8 28 -8 71 -8h182v-66h-182c-53 0 -99 0 -130 37c-13 16 -20 36 -20 57c0 50 34 77 93 127l111 93c40 33 60 49 60 70
c0 12 -6 18 -12 22c-9 6 -28 6 -38 6h-192z" />
    <glyph glyph-name="braceleft" unicode="{" horiz-adv-x="336" 
d="M130 298c26 -21 42 -43 55 -72c14 -32 20 -66 20 -109c0 -37 -4 -74 -4 -111c0 -40 5 -70 23 -102c15 -27 39 -45 62 -53l-20 -52c-41 14 -74 43 -94 77c-22 38 -31 77 -31 130c0 37 4 74 4 111c0 36 -4 66 -21 98c-13 25 -35 46 -64 56v54c29 10 51 31 64 56
c17 32 21 62 21 98c0 37 -4 74 -4 110c0 53 9 92 31 130c20 34 53 63 94 77l20 -52c-23 -8 -47 -26 -62 -53c-18 -32 -23 -62 -23 -102c0 -36 4 -73 4 -110c0 -43 -6 -77 -20 -109c-13 -29 -29 -51 -55 -72z" />
    <glyph glyph-name="bar" unicode="|" horiz-adv-x="230" 
d="M85 740h60v-885h-60v885z" />
    <glyph glyph-name="braceright" unicode="}" horiz-adv-x="336" 
d="M206 298c-26 21 -42 43 -55 72c-14 32 -20 66 -20 109c0 37 4 74 4 110c0 40 -5 70 -23 102c-15 27 -39 45 -62 53l20 52c41 -14 74 -43 94 -77c22 -38 31 -77 31 -130c0 -36 -4 -73 -4 -110c0 -36 4 -66 21 -98c13 -25 35 -46 64 -56v-54c-29 -10 -51 -31 -64 -56
c-17 -32 -21 -62 -21 -98c0 -37 4 -74 4 -111c0 -53 -9 -92 -31 -130c-20 -34 -53 -63 -94 -77l-20 52c23 8 47 26 62 53c18 32 23 62 23 102c0 37 -4 74 -4 111c0 43 6 77 20 109c13 29 29 51 55 72z" />
    <glyph glyph-name="asciitilde" unicode="~" horiz-adv-x="520" 
d="M114 211l-60 12c11 50 57 89 115 89c47 0 83 -23 107 -36c26 -15 49 -28 75 -28c28 0 50 19 55 41l60 -12c-11 -50 -57 -89 -115 -89c-47 0 -83 23 -107 36c-26 15 -49 28 -75 28c-28 0 -50 -19 -55 -41z" />
    <glyph glyph-name="uni00A0" unicode="&#xa0;" horiz-adv-x="250" 
 />
    <glyph glyph-name="exclamdown" unicode="&#xa1;" horiz-adv-x="260" 
d="M130 387c-30 0 -51 21 -51 51s21 51 51 51s51 -21 51 -51s-21 -51 -51 -51zM92 -183v194c0 180 10 303 10 303h54s10 -123 10 -303v-194h-74z" />
    <glyph glyph-name="cent" unicode="&#xa2;" horiz-adv-x="450" 
d="M230 563h50v-81c42 -3 82 -15 119 -34l-29 -60c-29 15 -59 24 -90 28v-355c32 4 63 13 92 29l33 -58c-39 -21 -81 -33 -125 -37v-81h-50v81c-50 4 -96 24 -127 57c-48 51 -48 112 -48 150v73c0 41 0 99 48 150c31 33 77 53 127 57v81zM151 376c-26 -32 -26 -68 -26 -101
v-73c0 -29 0 -75 30 -106c18 -19 45 -31 75 -35v355c-35 -3 -62 -20 -79 -40z" />
    <glyph glyph-name="sterling" unicode="&#xa3;" horiz-adv-x="548" 
d="M120 435c0 67 0 121 40 170c34 42 90 67 155 67c45 0 92 -10 134 -42l-40 -58c-25 20 -60 30 -94 30c-40 0 -74 -14 -94 -37c-27 -31 -27 -68 -27 -130v-82h224v-61h-224c0 -92.6279 -6 -153 -38 -222h332v-70h-428v50c49 71 60 130.113 60 242h-60v61h60v82z" />
    <glyph glyph-name="currency" unicode="&#xa4;" horiz-adv-x="626" 
d="M155 289c0 -102 61 -160 158 -160s158 58 158 160s-61 160 -158 160s-158 -58 -158 -160zM60 491l51 51l63 -65c38 25 85 42 139 42s101 -17 139 -42l63 65l51 -51l-63 -63c27 -38 42 -85 42 -139s-15 -101 -42 -139l63 -63l-51 -51l-63 63c-38 -25 -85 -40 -139 -40
s-101 15 -139 40l-63 -63l-51 51l63 63c-27 38 -42 85 -42 139s15 101 42 139z" />
    <glyph glyph-name="yen" unicode="&#xa5;" horiz-adv-x="571" 
d="M50 666h79l156 -320l159 320h77l-124 -242h78v-56h-108l-35 -69h133v-56h-143v-243h-74v243h-143v56h133l-35 69h-108v56h78z" />
    <glyph glyph-name="brokenbar" unicode="&#xa6;" horiz-adv-x="232" 
d="M85 264h62v-264h-62v264zM85 666h62v-262h-62v262z" />
    <glyph glyph-name="section" unicode="&#xa7;" horiz-adv-x="468" 
d="M97 94c42 -21 87 -34 132 -34c61 0 104 24 104 74c0 56 -45 70 -111 84c-55 11 -157 35 -157 136c0 44 20 75 48 95c-28 20 -48 50 -48 95c0 97 95 129 164 129c54 0 106 -13 154 -34l-30 -60c-40 18 -82 28 -124 28c-56 0 -94 -21 -94 -63c0 -45 40 -59 101 -72
c61 -12 167 -37 167 -148c0 -41 -16 -72 -40 -94c23 -22 40 -52 40 -96c0 -102 -98 -140 -174 -140c-59 0 -115 17 -166 42zM163 424c-19 -16 -28 -40 -28 -70c0 -45 40 -59 101 -72c23 -4 51 -11 78 -22c13 16 19 37 19 64c0 56 -45 70 -111 84c-17 3 -38 8 -59 16z" />
    <glyph glyph-name="dieresis" unicode="&#xa8;" horiz-adv-x="374" 
d="M277 644c28 0 47 -19 47 -47s-19 -47 -47 -47s-47 19 -47 47s19 47 47 47zM97 644c28 0 47 -19 47 -47s-19 -47 -47 -47s-47 19 -47 47s19 47 47 47z" />
    <glyph glyph-name="copyright" unicode="&#xa9;" horiz-adv-x="820" 
d="M462 -123c78 0 140 0 181 48c36 42 36 96 36 171v290c0 75 0 129 -36 171c-41 48 -103 48 -181 48h-104c-78 0 -140 0 -181 -48c-36 -42 -36 -96 -36 -171v-290c0 -75 0 -129 36 -171c41 -48 103 -48 181 -48h104zM462 667c82 0 167 0 228 -66c55 -60 55 -132 55 -215
v-290c0 -83 0 -155 -55 -215c-61 -66 -146 -66 -228 -66h-104c-82 0 -167 0 -228 66c-55 60 -55 132 -55 215v290c0 83 0 155 55 215c61 66 146 66 228 66h104zM292 42c-40 42 -40 89 -40 154v85c0 61 0 110 40 153c28 30 72 49 125 49c45 0 90 -13 125 -40l-39 -55
c-23 19 -54 29 -86 29c-31 0 -57 -10 -73 -27c-22 -24 -22 -52 -22 -109v-85c0 -58 0 -84 21 -108c15 -18 42 -28 74 -28c38 0 71 13 92 32l43 -51c-34 -31 -82 -47 -135 -47s-97 19 -125 48z" />
    <glyph glyph-name="ordfeminine" unicode="&#xaa;" horiz-adv-x="458" 
d="M218 744c62 0 115 -22 150 -69s35 -104 35 -175v-35c0 -68 0 -107 -27 -147c-30 -44 -83 -64 -149 -64c-47 0 -91 9 -126 33c-34 23 -61 65 -61 115c0 46 22 86 58 113c48 36 108 36 170 36h65c0 19 -1 57 -22 86c-20 27 -51 41 -93 41s-85 -13 -129 -31l-25 61
c47 20 97 36 154 36zM268 489c-59 0 -97 0 -127 -23c-17 -13 -31 -35 -31 -64c0 -25 12 -46 29 -59c24 -18 55 -23 88 -23c43 0 73 10 91 35c15 21 15 53 15 110v24h-65z" />
    <glyph glyph-name="guillemotleft" unicode="&#xab;" horiz-adv-x="484" 
d="M386 449l48 -36l-129 -163l129 -163l-48 -36l-156 199zM206 449l48 -36l-129 -163l129 -163l-48 -36l-156 199z" />
    <glyph glyph-name="logicalnot" unicode="&#xac;" horiz-adv-x="520" 
d="M80 279l360 1v-210h-60v151h-300v58z" />
    <glyph glyph-name="uni00AD" unicode="&#xad;" horiz-adv-x="370" 
d="M80 279h210v-58h-210v58z" />
    <glyph glyph-name="registered" unicode="&#xae;" horiz-adv-x="820" 
d="M462 -121c78 0 140 0 181 48c36 42 36 96 36 171v287c0 75 0 129 -36 171c-41 48 -103 48 -181 48h-104c-78 0 -140 0 -181 -48c-36 -42 -36 -96 -36 -171v-287c0 -75 0 -129 36 -171c41 -48 103 -48 181 -48h104zM462 666c82 0 167 0 228 -66c55 -60 55 -132 55 -215
v-287c0 -83 0 -155 -55 -215c-61 -66 -146 -66 -228 -66h-104c-82 0 -167 0 -228 66c-55 60 -55 132 -55 215v287c0 83 0 155 55 215c61 66 146 66 228 66h104zM393 239c22 0 49 0 71 19c16 14 27 38 27 68c0 29 -11 53 -27 67c-22 19 -49 19 -71 19h-61v-173h61zM488 193
l83 -193h-75l-75 174c-10 -1 -19 -1 -28 -1h-61v-173h-70v478h131c30 0 76 0 119 -37c30 -26 49 -69 49 -115c0 -63 -31 -109 -73 -133z" />
    <glyph glyph-name="macron" unicode="&#xaf;" horiz-adv-x="370" 
d="M50 612h270v-56h-270v56z" />
    <glyph glyph-name="degree" unicode="&#xb0;" horiz-adv-x="324" 
d="M162 673c67 0 112 -45 112 -112s-45 -112 -112 -112s-112 45 -112 112s45 112 112 112zM162 619c-34 0 -58 -23 -58 -58s24 -58 58 -58c35 0 58 23 58 58s-23 58 -58 58z" />
    <glyph glyph-name="plusminus" unicode="&#xb1;" horiz-adv-x="520" 
d="M230 443h60v-91h150v-58h-150v-91h-60v91h-150v58h150v91zM80 153h360v-58h-360v58z" />
    <glyph glyph-name="uni00B2" unicode="&#xb2;" horiz-adv-x="377" 
d="M102 655l-41 53c36 27 81 36 113 36c42 0 73 -11 99 -31c29 -23 49 -59 49 -104c0 -43 -12 -67 -53 -121l-125 -162h183v-66h-277v55l161 210c33 43 41 54 41 83c0 24 -10 43 -23 54s-32 16 -55 16c-27 0 -53 -8 -72 -23z" />
    <glyph glyph-name="uni00B3" unicode="&#xb3;" horiz-adv-x="364" 
d="M89 655l-41 53c34 25 75 36 114 36c34 0 71 -8 101 -32c27 -22 48 -57 48 -102c0 -38 -15 -74 -51 -102c40 -28 59 -70 59 -113c0 -47 -22 -84 -50 -106c-31 -26 -71 -35 -107 -35c-48 0 -90 14 -122 41l43 51c18 -16 46 -26 79 -26c24 0 47 6 62 18c14 12 25 32 25 57
c0 24 -10 46 -26 60c-17 15 -35 18 -88 18h-9v66h9c50 0 66 3 82 16c14 12 24 33 24 55c0 23 -10 41 -24 52c-13 10 -33 16 -55 16c-27 0 -54 -8 -73 -23z" />
    <glyph glyph-name="acute" unicode="&#xb4;" horiz-adv-x="336" 
d="M204 666h82l-165 -210h-71z" />
    <glyph glyph-name="mu" unicode="&#xb5;" horiz-adv-x="485" 
d="M250 -6c-42 0 -86 18 -115 54v-231h-70v661h70v-246c0 -67 0 -106 28 -138c20.0713 -22.9385 50 -34 82 -34s62 11 82 34c27.9014 32.0859 28 71 28 138v246h70v-246c0 -74 0 -128 -42 -179c-32.0703 -38.9424 -82 -59 -133 -59z" />
    <glyph glyph-name="paragraph" unicode="&#xb6;" horiz-adv-x="525" 
d="M341 666h109v-666h-74v596c-69 0 -104 -2 -104 -2v-594h-74v250c-25 8 -49 21 -71 41c-49 44 -67 107 -67 160s18 116 67 160c61 55 135 55 214 55z" />
    <glyph glyph-name="periodcentered" unicode="&#xb7;" horiz-adv-x="262" 
d="M131 301c30 0 51 -21 51 -51s-21 -51 -51 -51s-51 21 -51 51s21 51 51 51z" />
    <glyph glyph-name="cedilla" unicode="&#xb8;" horiz-adv-x="269" 
d="M66 -128c14 -6 29 -9 41 -9c9 0 22 0 36 7c12 7 20 17 20 30c0 10 -5 20 -16 26c-8 4 -16 4 -25 4h-37l22 70h44l-11 -37c21 0 37 0 56 -13c15 -11 23 -29 23 -49c0 -28 -15 -50 -31 -64c-18 -15 -47 -26 -81 -26c-18 0 -38 3 -57 11z" />
    <glyph glyph-name="uni00B9" unicode="&#xb9;" horiz-adv-x="321" 
d="M174 738h57v-478h-70v396l-61 -31l-30 60z" />
    <glyph glyph-name="ordmasculine" unicode="&#xba;" horiz-adv-x="490" 
d="M245 678c-40 0 -75 -15 -95 -43c-25 -35 -25 -82 -25 -136s0 -101 25 -136c20 -28 55 -43 95 -43s75 15 95 43c25 35 25 82 25 136s0 101 -25 136c-20 28 -55 43 -95 43zM245 744c61 0 120 -24 155 -75s35 -112 35 -170s0 -119 -35 -170s-94 -75 -155 -75
s-120 24 -155 75s-35 112 -35 170s0 119 35 170s94 75 155 75z" />
    <glyph glyph-name="guillemotright" unicode="&#xbb;" horiz-adv-x="484" 
d="M98 449l156 -199l-156 -199l-48 36l129 163l-129 163zM278 449l156 -199l-156 -199l-48 36l129 163l-129 163z" />
    <glyph glyph-name="onequarter" unicode="&#xbc;" horiz-adv-x="830" 
d="M174 666h57v-478h-70v396l-61 -31l-30 60zM621 478h73l-148 -302h128v113h70v-113h41v-66h-41v-110h-70v110h-207v53zM560 667h64l-360 -667h-64z" />
    <glyph glyph-name="onehalf" unicode="&#xbd;" horiz-adv-x="894" 
d="M174 666h57v-478h-70v396l-61 -31l-30 60zM619 395l-41 53c36 27 81 36 113 36c42 0 73 -11 99 -31c29 -23 49 -59 49 -104c0 -43 -12 -67 -53 -121l-125 -162h183v-66h-277v55l161 210c33 43 41 54 41 83c0 24 -10 43 -23 54s-32 16 -55 16c-27 0 -53 -8 -72 -23z
M560 667h64l-360 -667h-64z" />
    <glyph glyph-name="threequarters" unicode="&#xbe;" horiz-adv-x="880" 
d="M89 583l-41 53c34 25 75 36 114 36c34 0 71 -8 101 -32c27 -22 48 -57 48 -102c0 -38 -15 -74 -51 -102c40 -28 59 -70 59 -113c0 -47 -22 -84 -50 -106c-31 -26 -71 -35 -107 -35c-48 0 -90 14 -122 41l43 51c18 -16 46 -26 79 -26c24 0 47 6 62 18c14 12 25 32 25 57
c0 24 -10 46 -26 60c-17 15 -35 18 -88 18h-9v66h9c50 0 66 3 82 16c14 12 24 33 24 55c0 23 -10 41 -24 52c-13 10 -33 16 -55 16c-27 0 -54 -8 -73 -23zM671 478h73l-148 -302h128v113h70v-113h41v-66h-41v-110h-70v110h-207v53zM610 667h64l-360 -667h-64z" />
    <glyph glyph-name="questiondown" unicode="&#xbf;" horiz-adv-x="387" 
d="M255 387c-30 0 -51 21 -51 51s21 51 51 51s51 -21 51 -51s-21 -51 -51 -51zM260 -189c-57 0 -99 15 -133 41c-39 30 -67 82 -67 141c0 63 30 109 66 139s78 45 93 89c3 9 6 22 7 46l2 47h54s2 -37 2 -55c0 -21 -1 -33 -5 -52c-14 -68 -73 -99 -104 -126
c-25 -22 -41 -49 -41 -88c0 -32 13 -65 39 -86c22 -18 51 -26 87 -26c41 0 84 12 115 37l44 -56c-49 -38 -110 -51 -159 -51z" />
    <glyph glyph-name="Agrave" unicode="&#xc0;" horiz-adv-x="594" 
d="M178 856h78l75 -120h-66zM297 672c26 0 53 -9 73 -28c17 -16 25 -30 46 -110l143 -534h-76l-52 195h-268l-52 -195h-76l143 534c21 80 29 94 46 110c20 19 47 28 73 28zM182 265h230l-68 253c-14 54 -19 69 -26 76c-5 5 -13 8 -21 8s-16 -3 -21 -8c-7 -7 -12 -22 -26 -76
z" />
    <glyph glyph-name="Aacute" unicode="&#xc1;" horiz-adv-x="594" 
d="M392 856l-87 -120h-66l75 120h78zM297 672c26 0 53 -9 73 -28c17 -16 25 -30 46 -110l143 -534h-76l-52 195h-268l-52 -195h-76l143 534c21 80 29 94 46 110c20 19 47 28 73 28zM182 265h230l-68 253c-14 54 -19 69 -26 76c-5 5 -13 8 -21 8s-16 -3 -21 -8
c-7 -7 -12 -22 -26 -76z" />
    <glyph glyph-name="Acircumflex" unicode="&#xc2;" horiz-adv-x="594" 
d="M246 856h78l95 -120h-66l-68 76l-68 -76h-66zM297 672c26 0 53 -9 73 -28c17 -16 25 -30 46 -110l143 -534h-76l-52 195h-268l-52 -195h-76l143 534c21 80 29 94 46 110c20 19 47 28 73 28zM182 265h230l-68 253c-14 54 -19 69 -26 76c-5 5 -13 8 -21 8s-16 -3 -21 -8
c-7 -7 -12 -22 -26 -76z" />
    <glyph glyph-name="Atilde" unicode="&#xc3;" horiz-adv-x="594" 
d="M345 740c-29 0 -54 12 -73 22c-15 7 -29 16 -47 16s-32 -13 -32 -32h-56c0 48 39 84 88 84c30 0 54 -12 73 -22c15 -7 29 -16 47 -16s32 13 32 32h56c0 -48 -39 -84 -88 -84zM297 672c26 0 53 -9 73 -28c17 -16 25 -30 46 -110l143 -534h-76l-52 195h-268l-52 -195h-76
l143 534c21 80 29 94 46 110c20 19 47 28 73 28zM182 265h230l-68 253c-14 54 -19 69 -26 76c-5 5 -13 8 -21 8s-16 -3 -21 -8c-7 -7 -12 -22 -26 -76z" />
    <glyph glyph-name="Adieresis" unicode="&#xc4;" horiz-adv-x="594" 
d="M375 834c28 0 47 -19 47 -47s-19 -47 -47 -47s-47 19 -47 47s19 47 47 47zM195 834c28 0 47 -19 47 -47s-19 -47 -47 -47s-47 19 -47 47s19 47 47 47zM297 672c26 0 53 -9 73 -28c17 -16 25 -30 46 -110l143 -534h-76l-52 195h-268l-52 -195h-76l143 534
c21 80 29 94 46 110c20 19 47 28 73 28zM182 265h230l-68 253c-14 54 -19 69 -26 76c-5 5 -13 8 -21 8s-16 -3 -21 -8c-7 -7 -12 -22 -26 -76z" />
    <glyph glyph-name="Aring" unicode="&#xc5;" horiz-adv-x="594" 
d="M285 883c52 0 87 -34 87 -87c0 -52 -35 -87 -87 -87c-51 0 -87 35 -87 87c0 53 36 87 87 87zM285 843c-27 0 -44 -20 -44 -47s17 -46 44 -46s45 19 45 46s-18 47 -45 47zM297 672c26 0 53 -9 73 -28c17 -16 25 -30 46 -110l143 -534h-76l-52 195h-268l-52 -195h-76
l143 534c21 80 29 94 46 110c20 19 47 28 73 28zM182 265h230l-68 253c-14 54 -19 69 -26 76c-5 5 -13 8 -21 8s-16 -3 -21 -8c-7 -7 -12 -22 -26 -76z" />
    <glyph glyph-name="AE" unicode="&#xc6;" horiz-adv-x="740" 
d="M365 265v331h-51c-28 0 -36 -3 -41 -8c-7 -7 -12 -22 -26 -76l-65 -247h183zM439 596v-218l196 1v-70l-196 -1v-153c0 -41 0 -63 17 -76c12 -9 29 -9 66 -9h153v-70h-153c-44 0 -84 0 -117 28c-40 35 -40 79 -40 127v40h-202l-52 -195h-76l140 528c21 80 29 94 46 110
c20 19 47 28 93 28h361v-70h-236z" />
    <glyph glyph-name="Ccedilla" unicode="&#xc7;" horiz-adv-x="537" 
d="M227 -128c14 -6 29 -9 41 -9c9 0 22 0 36 7c12 7 20 17 20 30c0 10 -5 20 -16 26c-8 4 -16 4 -25 4h-37l20 65c-47 4 -93 19 -129 50c-72 62 -72 146 -72 234v108c0 87 0 171 71 233c39 34 94 52 154 52c61 0 127 -18 177 -58l-44 -56c-36 29 -84 44 -133 44
c-34 0 -74 -8 -102 -32c-49 -42 -49 -102 -49 -183v-108c0 -83 0 -140 48 -182c24 -21 59 -33 103 -33c58 0 109 21 141 50l46 -55c-42 -35 -100 -60 -167 -64l-9 -32c21 0 37 0 56 -13c15 -11 23 -29 23 -49c0 -28 -15 -50 -31 -64c-18 -15 -47 -26 -81 -26
c-18 0 -38 3 -57 11z" />
    <glyph glyph-name="Egrave" unicode="&#xc8;" horiz-adv-x="510" 
d="M148 856h78l75 -120h-66zM149 378l236 1v-70l-236 -1v-153c0 -41 0 -63 17 -76c12 -9 29 -9 66 -9h213v-70h-213c-44 0 -84 0 -117 28c-40 35 -40 79 -40 127v356c0 48 0 92 40 127c33 28 73 28 117 28h213v-70h-213c-37 0 -54 0 -66 -9c-17 -13 -17 -35 -17 -76v-133z
" />
    <glyph glyph-name="Eacute" unicode="&#xc9;" horiz-adv-x="510" 
d="M362 856l-87 -120h-66l75 120h78zM149 378l236 1v-70l-236 -1v-153c0 -41 0 -63 17 -76c12 -9 29 -9 66 -9h213v-70h-213c-44 0 -84 0 -117 28c-40 35 -40 79 -40 127v356c0 48 0 92 40 127c33 28 73 28 117 28h213v-70h-213c-37 0 -54 0 -66 -9c-17 -13 -17 -35 -17 -76
v-133z" />
    <glyph glyph-name="Ecircumflex" unicode="&#xca;" horiz-adv-x="510" 
d="M216 856h78l95 -120h-66l-68 76l-68 -76h-66zM149 378l236 1v-70l-236 -1v-153c0 -41 0 -63 17 -76c12 -9 29 -9 66 -9h213v-70h-213c-44 0 -84 0 -117 28c-40 35 -40 79 -40 127v356c0 48 0 92 40 127c33 28 73 28 117 28h213v-70h-213c-37 0 -54 0 -66 -9
c-17 -13 -17 -35 -17 -76v-133z" />
    <glyph glyph-name="Edieresis" unicode="&#xcb;" horiz-adv-x="510" 
d="M345 834c28 0 47 -19 47 -47s-19 -47 -47 -47s-47 19 -47 47s19 47 47 47zM165 834c28 0 47 -19 47 -47s-19 -47 -47 -47s-47 19 -47 47s19 47 47 47zM149 378l236 1v-70l-236 -1v-153c0 -41 0 -63 17 -76c12 -9 29 -9 66 -9h213v-70h-213c-44 0 -84 0 -117 28
c-40 35 -40 79 -40 127v356c0 48 0 92 40 127c33 28 73 28 117 28h213v-70h-213c-37 0 -54 0 -66 -9c-17 -13 -17 -35 -17 -76v-133z" />
    <glyph glyph-name="Igrave" unicode="&#xcc;" horiz-adv-x="224" 
d="M5 855h78l75 -120h-66zM149 666v-666h-74v666h74z" />
    <glyph glyph-name="Iacute" unicode="&#xcd;" horiz-adv-x="224" 
d="M219 855l-87 -120h-66l75 120h78zM149 666v-666h-74v666h74z" />
    <glyph glyph-name="Icircumflex" unicode="&#xce;" horiz-adv-x="224" 
d="M73 855h78l95 -120h-66l-68 76l-68 -76h-66zM149 666v-666h-74v666h74z" />
    <glyph glyph-name="Idieresis" unicode="&#xcf;" horiz-adv-x="224" 
d="M202 833c28 0 47 -19 47 -47s-19 -47 -47 -47s-47 19 -47 47s19 47 47 47zM22 833c28 0 47 -19 47 -47s-19 -47 -47 -47s-47 19 -47 47s19 47 47 47zM149 666v-666h-74v666h74z" />
    <glyph glyph-name="Eth" unicode="&#xd0;" horiz-adv-x="629" 
d="M282 596c-37 0 -54 0 -66 -9c-17 -13 -17 -35 -17 -76v-136h129v-62h-129v-158c0 -41 0 -63 17 -76c12 -9 29 -9 66 -9c62 0 134 0 175 60c34 49 34 112 34 203s0 154 -34 203c-41 60 -113 60 -175 60zM282 666c72 0 173 0 237 -92c46 -66 46 -139 46 -241
s0 -175 -46 -241c-64 -92 -165 -92 -237 -92c-44 0 -84 0 -117 28c-40 35 -40 79 -40 127v158h-70v62h70v136c0 48 0 92 40 127c33 28 73 28 117 28z" />
    <glyph glyph-name="Ntilde" unicode="&#xd1;" horiz-adv-x="554" 
d="M332 740c-29 0 -54 12 -73 22c-15 7 -29 16 -47 16s-32 -13 -32 -32h-56c0 48 39 84 88 84c30 0 54 -12 73 -22c15 -7 29 -16 47 -16s32 13 32 32h56c0 -48 -39 -84 -88 -84zM277 672c62 0 119 -23 155 -64c52 -59 52 -131 52 -221v-387h-74v387c0 81 0 137 -34 175
c-24 27 -60 40 -99 40s-75 -13 -99 -40c-34 -38 -34 -94 -34 -175v-387h-74v387c0 90 0 162 52 221c36 41 93 64 155 64z" />
    <glyph glyph-name="Ograve" unicode="&#xd2;" horiz-adv-x="584" 
d="M193 855h78l75 -120h-66zM139 333c0 -102 0 -162 26 -205c24 -40 71 -64 127 -64s103 24 127 64c26 43 26 103 26 205s0 162 -26 205c-24 40 -71 64 -127 64s-103 -24 -127 -64c-26 -43 -26 -103 -26 -205zM65 333c0 118 0 181 36 240c37 61 107 99 191 99
s154 -38 191 -99c36 -59 36 -122 36 -240s0 -181 -36 -240c-37 -61 -107 -99 -191 -99s-154 38 -191 99c-36 59 -36 122 -36 240z" />
    <glyph glyph-name="Oacute" unicode="&#xd3;" horiz-adv-x="584" 
d="M407 855l-87 -120h-66l75 120h78zM139 333c0 -102 0 -162 26 -205c24 -40 71 -64 127 -64s103 24 127 64c26 43 26 103 26 205s0 162 -26 205c-24 40 -71 64 -127 64s-103 -24 -127 -64c-26 -43 -26 -103 -26 -205zM65 333c0 118 0 181 36 240c37 61 107 99 191 99
s154 -38 191 -99c36 -59 36 -122 36 -240s0 -181 -36 -240c-37 -61 -107 -99 -191 -99s-154 38 -191 99c-36 59 -36 122 -36 240z" />
    <glyph glyph-name="Ocircumflex" unicode="&#xd4;" horiz-adv-x="584" 
d="M261 855h78l95 -120h-66l-68 76l-68 -76h-66zM139 333c0 -102 0 -162 26 -205c24 -40 71 -64 127 -64s103 24 127 64c26 43 26 103 26 205s0 162 -26 205c-24 40 -71 64 -127 64s-103 -24 -127 -64c-26 -43 -26 -103 -26 -205zM65 333c0 118 0 181 36 240
c37 61 107 99 191 99s154 -38 191 -99c36 -59 36 -122 36 -240s0 -181 -36 -240c-37 -61 -107 -99 -191 -99s-154 38 -191 99c-36 59 -36 122 -36 240z" />
    <glyph glyph-name="Otilde" unicode="&#xd5;" horiz-adv-x="584" 
d="M360 739c-29 0 -54 12 -73 22c-15 7 -29 16 -47 16s-32 -13 -32 -32h-56c0 48 39 84 88 84c30 0 54 -12 73 -22c15 -7 29 -16 47 -16s32 13 32 32h56c0 -48 -39 -84 -88 -84zM139 333c0 -102 0 -162 26 -205c24 -40 71 -64 127 -64s103 24 127 64c26 43 26 103 26 205
s0 162 -26 205c-24 40 -71 64 -127 64s-103 -24 -127 -64c-26 -43 -26 -103 -26 -205zM65 333c0 118 0 181 36 240c37 61 107 99 191 99s154 -38 191 -99c36 -59 36 -122 36 -240s0 -181 -36 -240c-37 -61 -107 -99 -191 -99s-154 38 -191 99c-36 59 -36 122 -36 240z" />
    <glyph glyph-name="Odieresis" unicode="&#xd6;" horiz-adv-x="584" 
d="M390 833c28 0 47 -19 47 -47s-19 -47 -47 -47s-47 19 -47 47s19 47 47 47zM210 833c28 0 47 -19 47 -47s-19 -47 -47 -47s-47 19 -47 47s19 47 47 47zM139 333c0 -102 0 -162 26 -205c24 -40 71 -64 127 -64s103 24 127 64c26 43 26 103 26 205s0 162 -26 205
c-24 40 -71 64 -127 64s-103 -24 -127 -64c-26 -43 -26 -103 -26 -205zM65 333c0 118 0 181 36 240c37 61 107 99 191 99s154 -38 191 -99c36 -59 36 -122 36 -240s0 -181 -36 -240c-37 -61 -107 -99 -191 -99s-154 38 -191 99c-36 59 -36 122 -36 240z" />
    <glyph glyph-name="multiply" unicode="&#xd7;" horiz-adv-x="520" 
d="M146 94l-42 42l115 114l-115 114l42 42l114 -115l114 115l42 -42l-115 -114l115 -114l-42 -42l-114 115z" />
    <glyph glyph-name="Oslash" unicode="&#xd8;" horiz-adv-x="600" 
d="M300 602c-49 0 -94 -18 -122 -51c-39 -46 -39 -105 -39 -187v-62c0 -65 0 -116 18 -157l250 422c-28 24 -66 35 -107 35zM300 672c52 0 102 -14 143 -43l34 57h63l-57 -96c52 -64 52 -139 52 -226v-62c0 -88 0 -163 -53 -228c-44 -54 -112 -80 -182 -80
c-52 0 -102 14 -143 43l-34 -57h-63l57 96c-52 64 -52 139 -52 226v62c0 88 0 163 53 228c44 54 112 80 182 80zM192 99c27 -24 67 -35 108 -35c49 0 94 18 122 51c39 46 39 105 39 187v62c0 68 0 116 -19 157z" />
    <glyph glyph-name="Ugrave" unicode="&#xd9;" horiz-adv-x="554" 
d="M178 855h78l75 -120h-66zM70 666h74v-387c0 -81 0 -137 34 -175c24 -27 60 -40 99 -40s75 13 99 40c34 38 34 94 34 175v387h74v-387c0 -90 0 -162 -52 -221c-36 -41 -93 -64 -155 -64s-119 23 -155 64c-52 59 -52 131 -52 221v387z" />
    <glyph glyph-name="Uacute" unicode="&#xda;" horiz-adv-x="554" 
d="M392 855l-87 -120h-66l75 120h78zM70 666h74v-387c0 -81 0 -137 34 -175c24 -27 60 -40 99 -40s75 13 99 40c34 38 34 94 34 175v387h74v-387c0 -90 0 -162 -52 -221c-36 -41 -93 -64 -155 -64s-119 23 -155 64c-52 59 -52 131 -52 221v387z" />
    <glyph glyph-name="Ucircumflex" unicode="&#xdb;" horiz-adv-x="554" 
d="M246 855h78l95 -120h-66l-68 76l-68 -76h-66zM70 666h74v-387c0 -81 0 -137 34 -175c24 -27 60 -40 99 -40s75 13 99 40c34 38 34 94 34 175v387h74v-387c0 -90 0 -162 -52 -221c-36 -41 -93 -64 -155 -64s-119 23 -155 64c-52 59 -52 131 -52 221v387z" />
    <glyph glyph-name="Udieresis" unicode="&#xdc;" horiz-adv-x="554" 
d="M375 833c28 0 47 -19 47 -47s-19 -47 -47 -47s-47 19 -47 47s19 47 47 47zM195 833c28 0 47 -19 47 -47s-19 -47 -47 -47s-47 19 -47 47s19 47 47 47zM70 666h74v-387c0 -81 0 -137 34 -175c24 -27 60 -40 99 -40s75 13 99 40c34 38 34 94 34 175v387h74v-387
c0 -90 0 -162 -52 -221c-36 -41 -93 -64 -155 -64s-119 23 -155 64c-52 59 -52 131 -52 221v387z" />
    <glyph glyph-name="Yacute" unicode="&#xdd;" horiz-adv-x="510" 
d="M385.28 856l-87 -120h-66l75 120h78zM255 374c5 0 10 1 16 7c7 7 14 18 40 71l98 214h81l-115 -243c-36 -72 -47 -97 -83 -114v-309h-74v309c-36 17 -47 42 -83 114l-115 243h81l98 -214c26 -53 33 -64 40 -71c6 -6 11 -7 16 -7z" />
    <glyph glyph-name="Thorn" unicode="&#xde;" horiz-adv-x="520" 
d="M184 556c79 0 153 0 214 -55c49 -44 67 -107 67 -160s-18 -116 -67 -160c-61 -55 -135 -55 -214 -55h-35v-126h-74v666h74v-110h35zM149 486v-290h35c74 0 123 0 162 35c27 24 45 62 45 110s-18 86 -45 110c-39 35 -88 35 -162 35h-35z" />
    <glyph glyph-name="germandbls" unicode="&#xdf;" horiz-adv-x="505" 
d="M230 673c29 0 66 -6 102 -31s65 -71 65 -128c0 -49 -21 -94 -50 -123c30 -12 59 -30 80 -63c28 -44 28 -88 28 -128c0 -42 0 -97 -41 -145c-31 -36 -81 -61 -145 -61c-26 0 -49 4 -71 10l18 64c17 -5 35 -8 53 -8c38 0 70 13 89 35c27 31 27 65 27 105s0 72 -24 102
c-29 37 -80 37 -137 37v66c58 0 103 50 103 109c0 33 -15 59 -35 74c-17 12 -39 19 -62 19c-21 0 -53 -6 -74 -31s-21 -55 -21 -111v-465h-70v465c0 57 0 112 39 155c28.0635 30.9424 72 53 126 53z" />
    <glyph glyph-name="agrave" unicode="&#xe0;" horiz-adv-x="438" 
d="M111 666h78l75 -120h-66zM388 200c0 -67 0 -113 -35 -154c-30 -35 -77 -52 -137 -52c-48 0 -89 10 -121 33c-33 23 -60 63 -60 115c0 53 27 92 59 115c47 34 103 34 142 34h82c0 31 0 71 -24 98c-17 19 -43 29 -81 29c-44 0 -88 -10 -130 -26l-22 63c47 17 98 29 152 29
c60 0 105 -19 135 -53c40 -45 40 -104 40 -157v-74zM318 200v29h-82c-34 0 -70 0 -98 -20c-18 -13 -33 -36 -33 -67c0 -28 14 -50 32 -63c19 -13 47 -19 79 -19c37 0 66 8 83 28c19 22 19 53 19 112z" />
    <glyph glyph-name="aacute" unicode="&#xe1;" horiz-adv-x="438" 
d="M325 666l-87 -120h-66l75 120h78zM388 200c0 -67 0 -113 -35 -154c-30 -35 -77 -52 -137 -52c-48 0 -89 10 -121 33c-33 23 -60 63 -60 115c0 53 27 92 59 115c47 34 103 34 142 34h82c0 31 0 71 -24 98c-17 19 -43 29 -81 29c-44 0 -88 -10 -130 -26l-22 63
c47 17 98 29 152 29c60 0 105 -19 135 -53c40 -45 40 -104 40 -157v-74zM318 200v29h-82c-34 0 -70 0 -98 -20c-18 -13 -33 -36 -33 -67c0 -28 14 -50 32 -63c19 -13 47 -19 79 -19c37 0 66 8 83 28c19 22 19 53 19 112z" />
    <glyph glyph-name="acircumflex" unicode="&#xe2;" horiz-adv-x="438" 
d="M179 666h78l95 -120h-66l-68 76l-68 -76h-66zM388 200c0 -67 0 -113 -35 -154c-30 -35 -77 -52 -137 -52c-48 0 -89 10 -121 33c-33 23 -60 63 -60 115c0 53 27 92 59 115c47 34 103 34 142 34h82c0 31 0 71 -24 98c-17 19 -43 29 -81 29c-44 0 -88 -10 -130 -26l-22 63
c47 17 98 29 152 29c60 0 105 -19 135 -53c40 -45 40 -104 40 -157v-74zM318 200v29h-82c-34 0 -70 0 -98 -20c-18 -13 -33 -36 -33 -67c0 -28 14 -50 32 -63c19 -13 47 -19 79 -19c37 0 66 8 83 28c19 22 19 53 19 112z" />
    <glyph glyph-name="atilde" unicode="&#xe3;" horiz-adv-x="438" 
d="M278 550c-29 0 -54 12 -73 22c-15 7 -29 16 -47 16s-32 -13 -32 -32h-56c0 48 39 84 88 84c30 0 54 -12 73 -22c15 -7 29 -16 47 -16s32 13 32 32h56c0 -48 -39 -84 -88 -84zM388 200c0 -67 0 -113 -35 -154c-30 -35 -77 -52 -137 -52c-48 0 -89 10 -121 33
c-33 23 -60 63 -60 115c0 53 27 92 59 115c47 34 103 34 142 34h82c0 31 0 71 -24 98c-17 19 -43 29 -81 29c-44 0 -88 -10 -130 -26l-22 63c47 17 98 29 152 29c60 0 105 -19 135 -53c40 -45 40 -104 40 -157v-74zM318 200v29h-82c-34 0 -70 0 -98 -20
c-18 -13 -33 -36 -33 -67c0 -28 14 -50 32 -63c19 -13 47 -19 79 -19c37 0 66 8 83 28c19 22 19 53 19 112z" />
    <glyph glyph-name="adieresis" unicode="&#xe4;" horiz-adv-x="438" 
d="M308 644c28 0 47 -19 47 -47s-19 -47 -47 -47s-47 19 -47 47s19 47 47 47zM128 644c28 0 47 -19 47 -47s-19 -47 -47 -47s-47 19 -47 47s19 47 47 47zM388 200c0 -67 0 -113 -35 -154c-30 -35 -77 -52 -137 -52c-48 0 -89 10 -121 33c-33 23 -60 63 -60 115
c0 53 27 92 59 115c47 34 103 34 142 34h82c0 31 0 71 -24 98c-17 19 -43 29 -81 29c-44 0 -88 -10 -130 -26l-22 63c47 17 98 29 152 29c60 0 105 -19 135 -53c40 -45 40 -104 40 -157v-74zM318 200v29h-82c-34 0 -70 0 -98 -20c-18 -13 -33 -36 -33 -67
c0 -28 14 -50 32 -63c19 -13 47 -19 79 -19c37 0 66 8 83 28c19 22 19 53 19 112z" />
    <glyph glyph-name="aring" unicode="&#xe5;" horiz-adv-x="438" 
d="M218 693c52 0 87 -34 87 -87c0 -52 -35 -87 -87 -87c-51 0 -87 35 -87 87c0 53 36 87 87 87zM218 653c-27 0 -44 -20 -44 -47s17 -46 44 -46s45 19 45 46s-18 47 -45 47zM388 200c0 -67 0 -113 -35 -154c-30 -35 -77 -52 -137 -52c-48 0 -89 10 -121 33
c-33 23 -60 63 -60 115c0 53 27 92 59 115c47 34 103 34 142 34h82c0 31 0 71 -24 98c-17 19 -43 29 -81 29c-44 0 -88 -10 -130 -26l-22 63c47 17 98 29 152 29c60 0 105 -19 135 -53c40 -45 40 -104 40 -157v-74zM318 200v29h-82c-34 0 -70 0 -98 -20
c-18 -13 -33 -36 -33 -67c0 -28 14 -50 32 -63c19 -13 47 -19 79 -19c37 0 66 8 83 28c19 22 19 53 19 112z" />
    <glyph glyph-name="ae" unicode="&#xe6;" horiz-adv-x="668" 
d="M553 355c0 12 -4 33 -23 47c-20 15 -46 15 -53 15c-30 0 -61 -9 -83 -28c-31 -27 -31 -62 -31 -92v-11h94c25 0 47 0 68 14c15 10 28 30 28 55zM222 224c-31 0 -60 0 -83 -15c-19 -13 -29 -36 -29 -65c0 -24 7 -45 19 -58c14 -16 35 -26 64 -26c30 0 60 12 77 32
c23 27 23 58 23 86v46h-71zM198 483c59 0 106 -22 133 -64c31 39 81 64 146 64c29 0 65 -6 95 -28c28 -20 51 -57 51 -100c0 -47 -25 -83 -55 -104c-39 -27 -83 -27 -111 -27h-94v-41c0 -33 0 -74 35 -102c21 -17 48 -21 69 -21c34 0 72 12 103 30l33 -58
c-42 -23 -88 -38 -136 -38c-67 0 -109 25 -138 66c-29 -42 -77 -66 -136 -66c-44 0 -80 15 -105 37c-28 24 -48 63 -48 113c0 51 22 89 52 111c42 31 91 31 130 31h71v21c0 26 0 55 -19 79c-16 20 -42 31 -76 31c-35 0 -71 -10 -107 -27l-29 60c43 20 89 33 136 33z" />
    <glyph glyph-name="ccedilla" unicode="&#xe7;" horiz-adv-x="419" 
d="M172 -128c14 -6 29 -9.00098 41 -9.00098c9 0 22 0 36 7c12 7 20 17 20 30c0 10 -5 20 -16 26c-8 4 -16 4 -25 4h-37l20.4707 65.1338c-52.1211 5.14258 -91.3477 27.3525 -118.471 57.8662c-48 54 -48 131 -48 190c0 52 0 127 47 181c31 36 79 60 143 60
c48 0 96 -13 137 -39l-34 -57c-30 19 -67 30 -103 30c-31 0 -65 -8 -89 -36c-31 -36 -31 -95 -31 -139c0 -51 0 -111 32 -148c19.0156 -21.9863 49 -35 88 -35c38 0 76 11 108 33l36 -56c-36.3789 -24.2529 -79.5107 -38.752 -123.546 -42.1982l-9.4541 -31.8008
c21 0 37 0 56 -13c15 -11 23 -29 23 -49c0 -28 -15 -50 -31 -64c-18 -15 -47 -26 -81 -26c-18 0 -38 3 -57 11z" />
    <glyph glyph-name="egrave" unicode="&#xe8;" horiz-adv-x="454" 
d="M137 666h78l75 -120h-66zM139 102c20 -27 52 -42 100 -42c43 0 86 10 122 29l29 -60c-47 -24 -99 -35 -151 -35c-69 0 -124 25 -156 68c-38 52 -38 112 -38 177c0 78 0 124 36 174c32 45 92 71 163 71c50 0 90 -13 120 -37c30 -25 49 -62 50 -101c0 -44 -22 -78 -50 -98
c-42 -30 -85 -30 -156 -30h-92c0 -26 0 -85 23 -116zM344 346c-1 19 -11 39 -26 51c-17 14 -43 21 -74 21c-45 0 -81 -13 -103 -39c-25 -29 -25 -79 -25 -99h92c63 0 91 0 112 16c13 10 24 27 24 50z" />
    <glyph glyph-name="eacute" unicode="&#xe9;" horiz-adv-x="454" 
d="M351 666l-87 -120h-66l75 120h78zM139 102c20 -27 52 -42 100 -42c43 0 86 10 122 29l29 -60c-47 -24 -99 -35 -151 -35c-69 0 -124 25 -156 68c-38 52 -38 112 -38 177c0 78 0 124 36 174c32 45 92 71 163 71c50 0 90 -13 120 -37c30 -25 49 -62 50 -101
c0 -44 -22 -78 -50 -98c-42 -30 -85 -30 -156 -30h-92c0 -26 0 -85 23 -116zM344 346c-1 19 -11 39 -26 51c-17 14 -43 21 -74 21c-45 0 -81 -13 -103 -39c-25 -29 -25 -79 -25 -99h92c63 0 91 0 112 16c13 10 24 27 24 50z" />
    <glyph glyph-name="ecircumflex" unicode="&#xea;" horiz-adv-x="454" 
d="M205 666h78l95 -120h-66l-68 76l-68 -76h-66zM139 102c20 -27 52 -42 100 -42c43 0 86 10 122 29l29 -60c-47 -24 -99 -35 -151 -35c-69 0 -124 25 -156 68c-38 52 -38 112 -38 177c0 78 0 124 36 174c32 45 92 71 163 71c50 0 90 -13 120 -37c30 -25 49 -62 50 -101
c0 -44 -22 -78 -50 -98c-42 -30 -85 -30 -156 -30h-92c0 -26 0 -85 23 -116zM344 346c-1 19 -11 39 -26 51c-17 14 -43 21 -74 21c-45 0 -81 -13 -103 -39c-25 -29 -25 -79 -25 -99h92c63 0 91 0 112 16c13 10 24 27 24 50z" />
    <glyph glyph-name="edieresis" unicode="&#xeb;" horiz-adv-x="454" 
d="M334 644c28 0 47 -19 47 -47s-19 -47 -47 -47s-47 19 -47 47s19 47 47 47zM154 644c28 0 47 -19 47 -47s-19 -47 -47 -47s-47 19 -47 47s19 47 47 47zM139 102c20 -27 52 -42 100 -42c43 0 86 10 122 29l29 -60c-47 -24 -99 -35 -151 -35c-69 0 -124 25 -156 68
c-38 52 -38 112 -38 177c0 78 0 124 36 174c32 45 92 71 163 71c50 0 90 -13 120 -37c30 -25 49 -62 50 -101c0 -44 -22 -78 -50 -98c-42 -30 -85 -30 -156 -30h-92c0 -26 0 -85 23 -116zM344 346c-1 19 -11 39 -26 51c-17 14 -43 21 -74 21c-45 0 -81 -13 -103 -39
c-25 -29 -25 -79 -25 -99h92c63 0 91 0 112 16c13 10 24 27 24 50z" />
    <glyph glyph-name="igrave" unicode="&#xec;" horiz-adv-x="214" 
d="M0 666h78l75 -120h-66zM72 477h70v-477h-70v477z" />
    <glyph glyph-name="iacute" unicode="&#xed;" horiz-adv-x="214" 
d="M214 666l-87 -120h-66l75 120h78zM72 477h70v-477h-70v477z" />
    <glyph glyph-name="icircumflex" unicode="&#xee;" horiz-adv-x="214" 
d="M68 666h78l95 -120h-66l-68 76l-68 -76h-66zM72 477h70v-477h-70v477z" />
    <glyph glyph-name="idieresis" unicode="&#xef;" horiz-adv-x="214" 
d="M197 644c28 0 47 -19 47 -47s-19 -47 -47 -47s-47 19 -47 47s19 47 47 47zM17 644c28 0 47 -19 47 -47s-19 -47 -47 -47s-47 19 -47 47s19 47 47 47zM72 477h70v-477h-70v477z" />
    <glyph glyph-name="eth" unicode="&#xf0;" horiz-adv-x="485" 
d="M240 418c-23 0 -59 -6 -83 -33c-32 -36 -32 -90 -32 -146s0 -110 32 -146c24 -27 60 -33 83 -33s59 6 83 33c32 36 32 90 32 146s0 110 -32 146c-24 27 -60 33 -83 33zM235 484c42 0 79 -15 109 -45c-12 59 -37 110 -68 150l-87 -48l-26 46l75 41c-24 20 -51 36 -79 46
l18 49c43 -14 82 -36 115 -65l89 49l26 -46l-76 -41c64 -85 94 -200 94 -381c0 -55 0 -119 -35 -171c-33 -49 -90 -74 -150 -74s-117 25 -150 74c-35 52 -35 116 -35 171c0 71 0 133 47 188c29 34 76 57 133 57z" />
    <glyph glyph-name="ntilde" unicode="&#xf1;" horiz-adv-x="460" 
d="M297 550c-29 0 -54 12 -73 22c-15 7 -29 16 -47 16s-32 -13 -32 -32h-56c0 48 39 84 88 84c30 0 54 -12 73 -22c15 -7 29 -16 47 -16s32 13 32 32h56c0 -48 -39 -84 -88 -84zM230 484c61 0 104 -26 128 -51c47 -49 47 -107 47 -177v-256h-70v256c0 62 0 104 -29 133
c-17 17 -43 29 -76 29s-59 -12 -76 -29c-29 -29 -29 -71 -29 -133v-256h-70v256c0 70 0 128 47 177c24 25 67 51 128 51z" />
    <glyph glyph-name="ograve" unicode="&#xf2;" 
d="M138 666h78l75 -120h-66zM235 418c-44 0 -78 -18 -98 -48c-22 -33 -22 -80 -22 -131s0 -98 22 -131c20 -30 54 -48 98 -48s78 18 98 48c22 33 22 80 22 131s0 98 -22 131c-20 30 -54 48 -98 48zM235 484c71 0 129 -32 161 -85c29 -48 29 -103 29 -160s0 -112 -29 -160
c-32 -53 -90 -85 -161 -85s-129 32 -161 85c-29 48 -29 103 -29 160s0 112 29 160c32 53 90 85 161 85z" />
    <glyph glyph-name="oacute" unicode="&#xf3;" 
d="M352 666l-87 -120h-66l75 120h78zM235 418c-44 0 -78 -18 -98 -48c-22 -33 -22 -80 -22 -131s0 -98 22 -131c20 -30 54 -48 98 -48s78 18 98 48c22 33 22 80 22 131s0 98 -22 131c-20 30 -54 48 -98 48zM235 484c71 0 129 -32 161 -85c29 -48 29 -103 29 -160
s0 -112 -29 -160c-32 -53 -90 -85 -161 -85s-129 32 -161 85c-29 48 -29 103 -29 160s0 112 29 160c32 53 90 85 161 85z" />
    <glyph glyph-name="ocircumflex" unicode="&#xf4;" 
d="M206 666h78l95 -120h-66l-68 76l-68 -76h-66zM235 418c-44 0 -78 -18 -98 -48c-22 -33 -22 -80 -22 -131s0 -98 22 -131c20 -30 54 -48 98 -48s78 18 98 48c22 33 22 80 22 131s0 98 -22 131c-20 30 -54 48 -98 48zM235 484c71 0 129 -32 161 -85c29 -48 29 -103 29 -160
s0 -112 -29 -160c-32 -53 -90 -85 -161 -85s-129 32 -161 85c-29 48 -29 103 -29 160s0 112 29 160c32 53 90 85 161 85z" />
    <glyph glyph-name="otilde" unicode="&#xf5;" 
d="M305 550c-29 0 -54 12 -73 22c-15 7 -29 16 -47 16s-32 -13 -32 -32h-56c0 48 39 84 88 84c30 0 54 -12 73 -22c15 -7 29 -16 47 -16s32 13 32 32h56c0 -48 -39 -84 -88 -84zM235 418c-44 0 -78 -18 -98 -48c-22 -33 -22 -80 -22 -131s0 -98 22 -131
c20 -30 54 -48 98 -48s78 18 98 48c22 33 22 80 22 131s0 98 -22 131c-20 30 -54 48 -98 48zM235 484c71 0 129 -32 161 -85c29 -48 29 -103 29 -160s0 -112 -29 -160c-32 -53 -90 -85 -161 -85s-129 32 -161 85c-29 48 -29 103 -29 160s0 112 29 160c32 53 90 85 161 85z
" />
    <glyph glyph-name="odieresis" unicode="&#xf6;" 
d="M335 644c28 0 47 -19 47 -47s-19 -47 -47 -47s-47 19 -47 47s19 47 47 47zM155 644c28 0 47 -19 47 -47s-19 -47 -47 -47s-47 19 -47 47s19 47 47 47zM235 418c-44 0 -78 -18 -98 -48c-22 -33 -22 -80 -22 -131s0 -98 22 -131c20 -30 54 -48 98 -48s78 18 98 48
c22 33 22 80 22 131s0 98 -22 131c-20 30 -54 48 -98 48zM235 484c71 0 129 -32 161 -85c29 -48 29 -103 29 -160s0 -112 -29 -160c-32 -53 -90 -85 -161 -85s-129 32 -161 85c-29 48 -29 103 -29 160s0 112 29 160c32 53 90 85 161 85z" />
    <glyph glyph-name="divide" unicode="&#xf7;" horiz-adv-x="520" 
d="M80 280h360v-58h-360v58zM261 439c27 0 46 -19 46 -45c0 -27 -19 -46 -46 -46s-46 19 -46 46c0 26 19 45 46 45zM261 149c27 0 46 -19 46 -46c0 -26 -19 -45 -46 -45s-46 19 -46 45c0 27 19 46 46 46z" />
    <glyph glyph-name="oslash" unicode="&#xf8;" horiz-adv-x="490" 
d="M245 418c-40 0 -75 -15 -95 -43c-25 -35 -25 -82 -25 -136c0 -45 0 -84 14 -117l180 274c-19 14 -45 22 -74 22zM245 484c40 0 79 -10 112 -32l30 46h58l-52 -79c42 -52 42 -119 42 -180c0 -58 0 -119 -35 -170s-94 -75 -155 -75c-40 0 -79 10 -112 32l-30 -46h-58l52 79
c-42 53 -42 118 -42 180c0 58 0 119 35 170s94 75 155 75zM245 60c40 0 75 15 95 43c25 35 25 82 25 136c0 45 0 84 -14 117l-180 -274c19 -14 45 -22 74 -22z" />
    <glyph glyph-name="ugrave" unicode="&#xf9;" horiz-adv-x="460" 
d="M130 665h78l75 -120h-66zM55 478h70v-256c0 -62 0 -104 29 -133c17 -17 43 -29 76 -29s59 12 76 29c29 29 29 71 29 133v256h70v-256c0 -70 0 -128 -47 -177c-24 -25 -67 -51 -128 -51s-104 26 -128 51c-47 49 -47 107 -47 177v256z" />
    <glyph glyph-name="uacute" unicode="&#xfa;" horiz-adv-x="460" 
d="M344 665l-87 -120h-66l75 120h78zM55 478h70v-256c0 -62 0 -104 29 -133c17 -17 43 -29 76 -29s59 12 76 29c29 29 29 71 29 133v256h70v-256c0 -70 0 -128 -47 -177c-24 -25 -67 -51 -128 -51s-104 26 -128 51c-47 49 -47 107 -47 177v256z" />
    <glyph glyph-name="ucircumflex" unicode="&#xfb;" horiz-adv-x="460" 
d="M198 665h78l95 -120h-66l-68 76l-68 -76h-66zM55 478h70v-256c0 -62 0 -104 29 -133c17 -17 43 -29 76 -29s59 12 76 29c29 29 29 71 29 133v256h70v-256c0 -70 0 -128 -47 -177c-24 -25 -67 -51 -128 -51s-104 26 -128 51c-47 49 -47 107 -47 177v256z" />
    <glyph glyph-name="udieresis" unicode="&#xfc;" horiz-adv-x="460" 
d="M327 643c28 0 47 -19 47 -47s-19 -47 -47 -47s-47 19 -47 47s19 47 47 47zM147 643c28 0 47 -19 47 -47s-19 -47 -47 -47s-47 19 -47 47s19 47 47 47zM55 478h70v-256c0 -62 0 -104 29 -133c17 -17 43 -29 76 -29s59 12 76 29c29 29 29 71 29 133v256h70v-256
c0 -70 0 -128 -47 -177c-24 -25 -67 -51 -128 -51s-104 26 -128 51c-47 49 -47 107 -47 177v256z" />
    <glyph glyph-name="yacute" unicode="&#xfd;" horiz-adv-x="418" 
d="M313 666l-87 -120h-66l75 120h78zM15 478h73l94 -322c15 -52 22 -74 28 -83s16 -11 26 -12l90 417h72l-115 -519c-11 -49 -19 -80 -41 -105c-21 -24 -55 -43 -97 -43c-22 0 -45 5 -67 13l21 62c16 -6 31 -9 46 -9c19 0 32 6 43 17c14 14 20 37 34 102
c-28 4 -51 17 -65 35c-15 20 -19 38 -41 110z" />
    <glyph glyph-name="thorn" unicode="&#xfe;" horiz-adv-x="490" 
d="M255 484c58 0 113.973 -25.0176 146 -74c34 -52 34 -116 34 -171s-0.0283203 -118.981 -34 -171c-32 -49 -88 -74 -146 -74c-39 0 -87 12 -120 57v-234h-70v849h70v-239c33 45 81 57 120 57zM250 418c-23 0 -59 -6 -83 -33c-32 -36 -32 -90 -32 -146s0 -110 32 -146
c24 -27 60 -33 83 -33s59 6 83 33c32 36 32 90 32 146s0 110 -32 146c-24 27 -60 33 -83 33z" />
    <glyph glyph-name="ydieresis" unicode="&#xff;" horiz-adv-x="418" 
d="M296 645c28 0 47 -19 47 -47s-19 -47 -47 -47s-47 19 -47 47s19 47 47 47zM116 645c28 0 47 -19 47 -47s-19 -47 -47 -47s-47 19 -47 47s19 47 47 47zM15 478h73l94 -322c15 -52 22 -74 28 -83s16 -11 26 -12l90 417h72l-115 -519c-11 -49 -19 -80 -41 -105
c-21 -24 -55 -43 -97 -43c-22 0 -45 5 -67 13l21 62c16 -6 31 -9 46 -9c19 0 32 6 43 17c14 14 20 37 34 102c-28 4 -51 17 -65 35c-15 20 -19 38 -41 110z" />
    <glyph glyph-name="Amacron" unicode="&#x100;" horiz-adv-x="594" 
d="M159 802h250v-56h-250v56zM297 672c26 0 53 -9 73 -28c17 -16 25 -30 46 -110l143 -534h-76l-52 195h-268l-52 -195h-76l143 534c21 80 29 94 46 110c20 19 47 28 73 28zM182 265h230l-68 253c-14 54 -19 69 -26 76c-5 5 -13 8 -21 8s-16 -3 -21 -8
c-7 -7 -12 -22 -26 -76z" />
    <glyph glyph-name="amacron" unicode="&#x101;" horiz-adv-x="438" 
d="M92 612h250v-56h-250v56zM388 200c0 -67 0 -113 -35 -154c-30 -35 -77 -52 -137 -52c-48 0 -89 10 -121 33c-33 23 -60 63 -60 115c0 53 27 92 59 115c47 34 103 34 142 34h82c0 31 0 71 -24 98c-17 19 -43 29 -81 29c-44 0 -88 -10 -130 -26l-22 63c47 17 98 29 152 29
c60 0 105 -19 135 -53c40 -45 40 -104 40 -157v-74zM318 200v29h-82c-34 0 -70 0 -98 -20c-18 -13 -33 -36 -33 -67c0 -28 14 -50 32 -63c19 -13 47 -19 79 -19c37 0 66 8 83 28c19 22 19 53 19 112z" />
    <glyph glyph-name="Abreve" unicode="&#x102;" horiz-adv-x="594" 
d="M161.998 856h56c0 -48.4805 20 -74 68 -74s68 25.5195 68 74h56c0 -77.4648 -45 -126 -124 -126s-124 48.5352 -124 126zM297 672c26 0 53 -9 73 -28c17 -16 25 -30 46 -110l143 -534h-76l-52 195h-268l-52 -195h-76l143 534c21 80 29 94 46 110c20 19 47 28 73 28z
M182 265h230l-68 253c-14 54 -19 69 -26 76c-5 5 -13 8 -21 8s-16 -3 -21 -8c-7 -7 -12 -22 -26 -76z" />
    <glyph glyph-name="abreve" unicode="&#x103;" horiz-adv-x="438" 
d="M94.998 666h56c0 -48.4805 20 -74 68 -74s68 25.5195 68 74h56c0 -77.4648 -45 -126 -124 -126s-124 48.5352 -124 126zM388 200c0 -67 0 -113 -35 -154c-30 -35 -77 -52 -137 -52c-48 0 -89 10 -121 33c-33 23 -60 63 -60 115c0 53 27 92 59 115c47 34 103 34 142 34h82
c0 31 0 71 -24 98c-17 19 -43 29 -81 29c-44 0 -88 -10 -130 -26l-22 63c47 17 98 29 152 29c60 0 105 -19 135 -53c40 -45 40 -104 40 -157v-74zM318 200v29h-82c-34 0 -70 0 -98 -20c-18 -13 -33 -36 -33 -67c0 -28 14 -50 32 -63c19 -13 47 -19 79 -19c37 0 66 8 83 28
c19 22 19 53 19 112z" />
    <glyph glyph-name="Aogonek" unicode="&#x104;" horiz-adv-x="594" 
d="M297 672c26 0 53 -9 73 -28c17 -16 25 -30 46 -110l143 -534c-46 -12 -105 -39 -105 -96c0 -21 15 -37 36 -37c12 0 25 5 39 14l30 -48c-19 -11 -42 -22 -69 -22c-52 0 -92 41 -92 93c0 47 41 77 85 96l-52 195h-268l-52 -195h-76l143 534c21 80 29 94 46 110
c20 19 47 28 73 28zM182 265h230l-68 253c-14 54 -19 69 -26 76c-5 5 -13 8 -21 8s-16 -3 -21 -8c-7 -7 -12 -22 -26 -76z" />
    <glyph glyph-name="aogonek" unicode="&#x105;" horiz-adv-x="438" 
d="M318 200v29h-82c-34 0 -70 0 -98 -20c-18 -13 -33 -36 -33 -67c0 -28 14 -50 32 -63c19 -13 47 -19 79 -19c37 0 66 8 83 28c19 22 19 53 19 112zM388 200c0 -66 0 -115 -35 -154c-33 -37 -103 -68 -103 -121c0 -21 15 -37 36 -37c12 0 25 5 39 14l30 -48
c-19 -11 -42 -22 -69 -22c-52 0 -92 41 -92 93c0 29 24 57 45 71c-8 -2 -15 -2 -23 -2c-48 0 -89 10 -121 33c-33 23 -60 63 -60 115c0 53 27 92 59 115c47 34 103 34 142 34h82c0 31 0 71 -24 98c-17 19 -43 29 -81 29c-44 0 -88 -10 -130 -26l-22 63c47 17 98 29 152 29
c60 0 105 -19 135 -53c40 -45 40 -104 40 -157v-74z" />
    <glyph glyph-name="Cacute" unicode="&#x106;" horiz-adv-x="536" 
d="M397 855l-87 -120h-66l75 120h78zM290 672c62 0 126 -21 175 -61l-43 -56c-36 30 -84 47 -132 47c-51.4434 0 -91.6279 -19.126 -116 -50c-35 -46 -35 -94 -35 -219s0 -173 35 -219c24.3721 -30.874 64.5566 -50 116 -50c52 0 104 19 141 53l45 -55
c-50 -44 -117 -68 -186 -68c-83.4717 0 -141.801 35 -177 80c-48 63 -48 130 -48 259s0 196 48 259c35.1992 45 93.5283 80 177 80z" />
    <glyph glyph-name="cacute" unicode="&#x107;" horiz-adv-x="419" 
d="M342 667l-87 -120h-66l75 120h78zM343 93l36 -56c-42 -28 -93 -43 -144 -43c-64 0 -110.938 24.0547 -142 59c-48 54 -48 131 -48 190c0 52 0 127 47 181c31 36 79 60 143 60c48 0 96 -13 137 -39l-34 -57c-30 19 -67 30 -103 30c-31 0 -65 -8 -89 -36
c-31 -36 -31 -95 -31 -139c0 -51 0 -111 32 -148c19.0156 -21.9863 49 -35 88 -35c38 0 76 11 108 33z" />
    <glyph glyph-name="Ccircumflex" unicode="&#x108;" horiz-adv-x="536" 
d="M251 855h78l95 -120h-66l-68 76l-68 -76h-66zM290 672c62 0 126 -21 175 -61l-43 -56c-36 30 -84 47 -132 47c-51.4434 0 -91.6279 -19.126 -116 -50c-35 -46 -35 -94 -35 -219s0 -173 35 -219c24.3721 -30.874 64.5566 -50 116 -50c52 0 104 19 141 53l45 -55
c-50 -44 -117 -68 -186 -68c-83.4717 0 -141.801 35 -177 80c-48 63 -48 130 -48 259s0 196 48 259c35.1992 45 93.5283 80 177 80z" />
    <glyph glyph-name="ccircumflex" unicode="&#x109;" horiz-adv-x="419" 
d="M196 667h78l95 -120h-66l-68 76l-68 -76h-66zM343 93l36 -56c-42 -28 -93 -43 -144 -43c-64 0 -110.938 24.0547 -142 59c-48 54 -48 131 -48 190c0 52 0 127 47 181c31 36 79 60 143 60c48 0 96 -13 137 -39l-34 -57c-30 19 -67 30 -103 30c-31 0 -65 -8 -89 -36
c-31 -36 -31 -95 -31 -139c0 -51 0 -111 32 -148c19.0156 -21.9863 49 -35 88 -35c38 0 76 11 108 33z" />
    <glyph glyph-name="Cdotaccent" unicode="&#x10a;" horiz-adv-x="536" 
d="M290 833c27 0 47 -19 47 -47s-20 -47 -47 -47s-47 19 -47 47s20 47 47 47zM290 672c62 0 126 -21 175 -61l-43 -56c-36 30 -84 47 -132 47c-51.4434 0 -91.6279 -19.126 -116 -50c-35 -46 -35 -94 -35 -219s0 -173 35 -219c24.3721 -30.874 64.5566 -50 116 -50
c52 0 104 19 141 53l45 -55c-50 -44 -117 -68 -186 -68c-83.4717 0 -141.801 35 -177 80c-48 63 -48 130 -48 259s0 196 48 259c35.1992 45 93.5283 80 177 80z" />
    <glyph glyph-name="cdotaccent" unicode="&#x10b;" horiz-adv-x="419" 
d="M235 645c27 0 47 -19 47 -47s-20 -47 -47 -47s-47 19 -47 47s20 47 47 47zM343 93l36 -56c-42 -28 -93 -43 -144 -43c-64 0 -110.938 24.0547 -142 59c-48 54 -48 131 -48 190c0 52 0 127 47 181c31 36 79 60 143 60c48 0 96 -13 137 -39l-34 -57c-30 19 -67 30 -103 30
c-31 0 -65 -8 -89 -36c-31 -36 -31 -95 -31 -139c0 -51 0 -111 32 -148c19.0156 -21.9863 49 -35 88 -35c38 0 76 11 108 33z" />
    <glyph glyph-name="Ccaron" unicode="&#x10c;" horiz-adv-x="536" 
d="M251 735l-95 120h66l68 -76l68 76h66l-95 -120h-78zM290 672c62 0 126 -21 175 -61l-43 -56c-36 30 -84 47 -132 47c-51.4434 0 -91.6279 -19.126 -116 -50c-35 -46 -35 -94 -35 -219s0 -173 35 -219c24.3721 -30.874 64.5566 -50 116 -50c52 0 104 19 141 53l45 -55
c-50 -44 -117 -68 -186 -68c-83.4717 0 -141.801 35 -177 80c-48 63 -48 130 -48 259s0 196 48 259c35.1992 45 93.5283 80 177 80z" />
    <glyph glyph-name="ccaron" unicode="&#x10d;" horiz-adv-x="419" 
d="M196 547l-95 120h66l68 -76l68 76h66l-95 -120h-78zM343 93l36 -56c-42 -28 -93 -43 -144 -43c-64 0 -110.938 24.0547 -142 59c-48 54 -48 131 -48 190c0 52 0 127 47 181c31 36 79 60 143 60c48 0 96 -13 137 -39l-34 -57c-30 19 -67 30 -103 30c-31 0 -65 -8 -89 -36
c-31 -36 -31 -95 -31 -139c0 -51 0 -111 32 -148c19.0156 -21.9863 49 -35 88 -35c38 0 76 11 108 33z" />
    <glyph glyph-name="Dcaron" unicode="&#x10e;" horiz-adv-x="570" 
d="M241 736l-95 120h66l68 -76l68 76h66l-95 -120h-78zM212 666c65 0 166 0 235 -69c68 -68 68 -162 68 -264s0 -196 -68 -264c-69 -69 -170 -69 -235 -69c-24 0 -64 0 -97 28c-40 35 -40 79 -40 127v356c0 48 0 92 40 127c33 28 73 28 97 28zM212 596c-17 0 -34 0 -46 -9
c-17 -13 -17 -35 -17 -76v-356c0 -41 0 -63 17 -76c12 -9 29 -9 46 -9c56 0 134 0 181 47c48 48 48 120 48 216s0 168 -48 216c-47 47 -125 47 -181 47z" />
    <glyph glyph-name="dcaron" unicode="&#x10f;" horiz-adv-x="648" 
d="M516 621c0 31 21 51 51 51s51 -20 51 -51c0 -13 -4 -25 -8 -37l-46 -128h-45l29 117c-19 6 -32 25 -32 48zM225 484c49 0 93 -23 120 -61v243h70v-434c0 -75 0 -125 -34 -172c-28 -39 -78 -66 -141 -66c-60 0 -108 24 -139 55c-56 57 -56 127 -56 188c0 68 0 134 45 188
c29 35 76 59 135 59zM345 219c0 74 0 129 -30 164c-18 21 -47 35 -85 35s-67 -14 -85 -35c-30 -35 -30 -90 -30 -146c0 -51 0 -103 35 -141c22 -24 56 -36 90 -36c31 0 61 10 81 34c24 29 24 72 24 125z" />
    <glyph glyph-name="Dcroat" unicode="&#x110;" horiz-adv-x="629" 
d="M282 596c-37 0 -54 0 -66 -9c-17 -13 -17 -35 -17 -76v-136h129v-62h-129v-158c0 -41 0 -63 17 -76c12 -9 29 -9 66 -9c62 0 134 0 175 60c34 49 34 112 34 203s0 154 -34 203c-41 60 -113 60 -175 60zM282 666c72 0 173 0 237 -92c46 -66 46 -139 46 -241
s0 -175 -46 -241c-64 -92 -165 -92 -237 -92c-44 0 -84 0 -117 28c-40 35 -40 79 -40 127v158h-70v62h70v136c0 48 0 92 40 127c33 28 73 28 117 28z" />
    <glyph glyph-name="dcroat" unicode="&#x111;" horiz-adv-x="517" 
d="M235 484c39 0 87 -12 120 -57v119h-116v62h116v58h70v-58h62v-62h-62v-307c0 -109 0 -136 -23 -174c-28 -46 -81 -71 -152 -71c-59 0 -118 16 -157 68c-38 51 -38 112 -38 177c0 55 0 119 34 171c32 49 88 74 146 74zM240 418c-23 0 -59 -6 -83 -33
c-32 -36 -32 -90 -32 -146c0 -57 0 -109 28 -143c23 -28 61 -36 97 -36c40 0 74 10 92 39c13 21 13 46 13 140c0 56 0 110 -32 146c-24 27 -60 33 -83 33z" />
    <glyph glyph-name="Emacron" unicode="&#x112;" horiz-adv-x="510" 
d="M129 802h250v-56h-250v56zM149 378l236 1v-70l-236 -1v-153c0 -41 0 -63 17 -76c12 -9 29 -9 66 -9h213v-70h-213c-44 0 -84 0 -117 28c-40 35 -40 79 -40 127v356c0 48 0 92 40 127c33 28 73 28 117 28h213v-70h-213c-37 0 -54 0 -66 -9c-17 -13 -17 -35 -17 -76v-133z
" />
    <glyph glyph-name="emacron" unicode="&#x113;" horiz-adv-x="454" 
d="M118 612h250v-56h-250v56zM139 102c20 -27 52 -42 100 -42c43 0 86 10 122 29l29 -60c-47 -24 -99 -35 -151 -35c-69 0 -124 25 -156 68c-38 52 -38 112 -38 177c0 78 0 124 36 174c32 45 92 71 163 71c50 0 90 -13 120 -37c30 -25 49 -62 50 -101c0 -44 -22 -78 -50 -98
c-42 -30 -85 -30 -156 -30h-92c0 -26 0 -85 23 -116zM344 346c-1 19 -11 39 -26 51c-17 14 -43 21 -74 21c-45 0 -81 -13 -103 -39c-25 -29 -25 -79 -25 -99h92c63 0 91 0 112 16c13 10 24 27 24 50z" />
    <glyph glyph-name="Ebreve" unicode="&#x114;" horiz-adv-x="510" 
d="M131.998 856h56c0 -48.4805 20 -74 68 -74s68 25.5195 68 74h56c0 -77.4648 -45 -126 -124 -126s-124 48.5352 -124 126zM149 378l236 1v-70l-236 -1v-153c0 -41 0 -63 17 -76c12 -9 29 -9 66 -9h213v-70h-213c-44 0 -84 0 -117 28c-40 35 -40 79 -40 127v356
c0 48 0 92 40 127c33 28 73 28 117 28h213v-70h-213c-37 0 -54 0 -66 -9c-17 -13 -17 -35 -17 -76v-133z" />
    <glyph glyph-name="ebreve" unicode="&#x115;" horiz-adv-x="454" 
d="M120.998 666h56c0 -48.4805 20 -74 68 -74s68 25.5195 68 74h56c0 -77.4648 -45 -126 -124 -126s-124 48.5352 -124 126zM139 102c20 -27 52 -42 100 -42c43 0 86 10 122 29l29 -60c-47 -24 -99 -35 -151 -35c-69 0 -124 25 -156 68c-38 52 -38 112 -38 177
c0 78 0 124 36 174c32 45 92 71 163 71c50 0 90 -13 120 -37c30 -25 49 -62 50 -101c0 -44 -22 -78 -50 -98c-42 -30 -85 -30 -156 -30h-92c0 -26 0 -85 23 -116zM344 346c-1 19 -11 39 -26 51c-17 14 -43 21 -74 21c-45 0 -81 -13 -103 -39c-25 -29 -25 -79 -25 -99h92
c63 0 91 0 112 16c13 10 24 27 24 50z" />
    <glyph glyph-name="Edotaccent" unicode="&#x116;" horiz-adv-x="510" 
d="M255 834c27 0 47 -19 47 -47s-20 -47 -47 -47s-47 19 -47 47s20 47 47 47zM149 378l236 1v-70l-236 -1v-153c0 -41 0 -63 17 -76c12 -9 29 -9 66 -9h213v-70h-213c-44 0 -84 0 -117 28c-40 35 -40 79 -40 127v356c0 48 0 92 40 127c33 28 73 28 117 28h213v-70h-213
c-37 0 -54 0 -66 -9c-17 -13 -17 -35 -17 -76v-133z" />
    <glyph glyph-name="edotaccent" unicode="&#x117;" horiz-adv-x="454" 
d="M244 644c27 0 47 -19 47 -47s-20 -47 -47 -47s-47 19 -47 47s20 47 47 47zM139 102c20 -27 52 -42 100 -42c43 0 86 10 122 29l29 -60c-47 -24 -99 -35 -151 -35c-69 0 -124 25 -156 68c-38 52 -38 112 -38 177c0 78 0 124 36 174c32 45 92 71 163 71
c50 0 90 -13 120 -37c30 -25 49 -62 50 -101c0 -44 -22 -78 -50 -98c-42 -30 -85 -30 -156 -30h-92c0 -26 0 -85 23 -116zM344 346c-1 19 -11 39 -26 51c-17 14 -43 21 -74 21c-45 0 -81 -13 -103 -39c-25 -29 -25 -79 -25 -99h92c63 0 91 0 112 16c13 10 24 27 24 50z" />
    <glyph glyph-name="Eogonek" unicode="&#x118;" horiz-adv-x="500" 
d="M149 378l236 1v-70l-236 -1v-153c0 -41 0 -63 17 -76c12 -9 29 -9 66 -9h203v-70c-46 -13 -106 -41 -106 -100c0 -21 15 -37 36 -37c12 0 25 5 39 14l30 -48c-19 -11 -42 -22 -69 -22c-52 0 -92 41 -92 93c0 50 42 81 87 100h-128c-44 0 -84 0 -117 28
c-40 35 -40 79 -40 127v356c0 48 0 93 40 127c33 28 73 28 117 28h203v-70h-203c-37 0 -54 0 -66 -9c-17 -13 -17 -35 -17 -76v-133z" />
    <glyph glyph-name="eogonek" unicode="&#x119;" horiz-adv-x="454" 
d="M139 102c20 -27 52 -42 100 -42c43 0 86 10 122 29l29 -60c-47 -24 -105 -51 -105 -100c0 -21 15 -37 36 -37c12 0 25 5 39 14l30 -48c-19 -11 -42 -22 -69 -22c-52 0 -92 41 -92 93c0 27 18 49 43 67c-11 -2 -29 -2 -33 -2c-69 0 -124 25 -156 68
c-38 52 -38 112 -38 177c0 78 0 124 36 174c32 45 92 71 163 71c50 0 90 -12 120 -37s50 -62 50 -101c0 -44 -22 -78 -50 -98c-42 -30 -85 -30 -156 -30h-92c0 -26 0 -85 23 -116zM344 346c-1 19 -11 39 -26 51c-17 14 -43 21 -74 21c-45 0 -81 -13 -103 -39
c-25 -29 -25 -79 -25 -99h92c63 0 91 0 112 16c12 10 24 26 24 47v3z" />
    <glyph glyph-name="Ecaron" unicode="&#x11a;" horiz-adv-x="510" 
d="M216 736l-95 120h66l68 -76l68 76h66l-95 -120h-78zM149 378l236 1v-70l-236 -1v-153c0 -41 0 -63 17 -76c12 -9 29 -9 66 -9h213v-70h-213c-44 0 -84 0 -117 28c-40 35 -40 79 -40 127v356c0 48 0 92 40 127c33 28 73 28 117 28h213v-70h-213c-37 0 -54 0 -66 -9
c-17 -13 -17 -35 -17 -76v-133z" />
    <glyph glyph-name="ecaron" unicode="&#x11b;" horiz-adv-x="454" 
d="M205 546l-95 120h66l68 -76l68 76h66l-95 -120h-78zM139 102c20 -27 52 -42 100 -42c43 0 86 10 122 29l29 -60c-47 -24 -99 -35 -151 -35c-69 0 -124 25 -156 68c-38 52 -38 112 -38 177c0 78 0 124 36 174c32 45 92 71 163 71c50 0 90 -13 120 -37
c30 -25 49 -62 50 -101c0 -44 -22 -78 -50 -98c-42 -30 -85 -30 -156 -30h-92c0 -26 0 -85 23 -116zM344 346c-1 19 -11 39 -26 51c-17 14 -43 21 -74 21c-45 0 -81 -13 -103 -39c-25 -29 -25 -79 -25 -99h92c63 0 91 0 112 16c13 10 24 27 24 50z" />
    <glyph glyph-name="Gcircumflex" unicode="&#x11c;" horiz-adv-x="580" 
d="M251 852h78l95 -120h-66l-68 76l-68 -76h-66zM290 672c62 0 126 -21 175 -61l-43 -56c-36 30 -84 47 -132 47c-51.4434 0 -91.6279 -19.126 -116 -50c-35 -46 -35 -94 -35 -219s0 -173 35 -219c24.3721 -30.874 64.5566 -50 116 -50s91.6279 19.126 116 50
c30.3408 39.877 34.3799 81.2568 34.917 173h-137.917v70h212v-24c0 -129 0 -196 -48 -259c-35.1992 -45 -93.5283 -80 -177 -80s-141.801 35 -177 80c-48 63 -48 130 -48 259s0 196 48 259c35.1992 45 93.5283 80 177 80z" />
    <glyph glyph-name="gcircumflex" unicode="&#x11d;" 
d="M191 666h78l95 -120h-66l-68 76l-68 -76h-66zM232 418c-37 0 -67 -13 -85 -33c-32 -36 -32 -87 -32 -144c0 -56 0 -111 30 -146c18 -21 47 -35 85 -35s67 14 85 35c30 35 30 90 30 164c0 53 0 95 -24 123c-19 23 -53 36 -89 36zM232 484c46 0 104 -14 143 -60
c40 -47 40 -94 40 -175v-204c0 -71 0 -126 -46 -176c-32 -35 -83 -58 -149 -58c-49 0 -102 12 -146 36l29 60c33 -18 75 -30 117 -30c49 0 82 17 101 41c24 30 24 66 24 127v10c-27 -38 -71 -61 -120 -61c-59 0 -106 24 -135 59c-45 54 -45 120 -45 188c0 62 0 132 48 186
c31 34 79 57 139 57z" />
    <glyph glyph-name="Gbreve" unicode="&#x11e;" horiz-adv-x="580" 
d="M166 858h56c0 -48.4805 20 -74 68 -74s68 25.5195 68 74h56c0 -77.4648 -45 -126 -124 -126s-124 48.5352 -124 126zM290 672c62 0 126 -21 175 -61l-43 -56c-36 30 -84 47 -132 47c-51.4434 0 -91.6279 -19.126 -116 -50c-35 -46 -35 -94 -35 -219s0 -173 35 -219
c24.3721 -30.874 64.5566 -50 116 -50s91.6279 19.126 116 50c30.3408 39.877 34.3799 81.2568 34.917 173h-137.917v70h212v-24c0 -129 0 -196 -48 -259c-35.1992 -45 -93.5283 -80 -177 -80s-141.801 35 -177 80c-48 63 -48 130 -48 259s0 196 48 259
c35.1992 45 93.5283 80 177 80z" />
    <glyph glyph-name="gbreve" unicode="&#x11f;" 
d="M106.998 666h56c0 -48.4805 20 -74 68 -74s68 25.5195 68 74h56c0 -77.4648 -45 -126 -124 -126s-124 48.5352 -124 126zM232 418c-37 0 -67 -13 -85 -33c-32 -36 -32 -87 -32 -144c0 -56 0 -111 30 -146c18 -21 47 -35 85 -35s67 14 85 35c30 35 30 90 30 164
c0 53 0 95 -24 123c-19 23 -53 36 -89 36zM232 484c46 0 104 -14 143 -60c40 -47 40 -94 40 -175v-204c0 -71 0 -126 -46 -176c-32 -35 -83 -58 -149 -58c-49 0 -102 12 -146 36l29 60c33 -18 75 -30 117 -30c49 0 82 17 101 41c24 30 24 66 24 127v10
c-27 -38 -71 -61 -120 -61c-59 0 -106 24 -135 59c-45 54 -45 120 -45 188c0 62 0 132 48 186c31 34 79 57 139 57z" />
    <glyph glyph-name="Gdotaccent" unicode="&#x120;" horiz-adv-x="580" 
d="M290 826c27 0 47 -19 47 -47s-20 -47 -47 -47s-47 19 -47 47s20 47 47 47zM290 672c62 0 126 -21 175 -61l-43 -56c-36 30 -84 47 -132 47c-51.4434 0 -91.6279 -19.126 -116 -50c-35 -46 -35 -94 -35 -219s0 -173 35 -219c24.3721 -30.874 64.5566 -50 116 -50
s91.6279 19.126 116 50c30.3408 39.877 34.3799 81.2568 34.917 173h-137.917v70h212v-24c0 -129 0 -196 -48 -259c-35.1992 -45 -93.5283 -80 -177 -80s-141.801 35 -177 80c-48 63 -48 130 -48 259s0 196 48 259c35.1992 45 93.5283 80 177 80z" />
    <glyph glyph-name="gdotaccent" unicode="&#x121;" 
d="M230 644c27 0 47 -19 47 -47s-20 -47 -47 -47s-47 19 -47 47s20 47 47 47zM232 418c-37 0 -67 -13 -85 -33c-32 -36 -32 -87 -32 -144c0 -56 0 -111 30 -146c18 -21 47 -35 85 -35s67 14 85 35c30 35 30 90 30 164c0 53 0 95 -24 123c-19 23 -53 36 -89 36zM232 484
c46 0 104 -14 143 -60c40 -47 40 -94 40 -175v-204c0 -71 0 -126 -46 -176c-32 -35 -83 -58 -149 -58c-49 0 -102 12 -146 36l29 60c33 -18 75 -30 117 -30c49 0 82 17 101 41c24 30 24 66 24 127v10c-27 -38 -71 -61 -120 -61c-59 0 -106 24 -135 59
c-45 54 -45 120 -45 188c0 62 0 132 48 186c31 34 79 57 139 57z" />
    <glyph glyph-name="uni0122" unicode="&#x122;" horiz-adv-x="580" 
d="M337 -112c0 -14 -6 -27 -11 -39l-36 -81h-45l26 78c-16 6 -28 21 -28 42c0 27 21 46 47 46s47 -19 47 -46zM290 672c62 0 126 -21 175 -61l-43 -56c-36 30 -84 47 -132 47c-51.4434 0 -91.6279 -19.126 -116 -50c-35 -46 -35 -94 -35 -219s0 -173 35 -219
c24.3721 -30.874 64.5566 -50 116 -50s91.6279 19.126 116 50c30.3408 39.877 34.3799 81.2568 34.917 173h-137.917v70h212v-24c0 -129 0 -196 -48 -259c-35.1992 -45 -93.5283 -80 -177 -80s-141.801 35 -177 80c-48 63 -48 130 -48 259s0 196 48 259
c35.1992 45 93.5283 80 177 80z" />
    <glyph glyph-name="uni0123" unicode="&#x123;" 
d="M183 598c0 14 6 27 11 39l36 81h45l-26 -78c16 -6 28 -21 28 -42c0 -27 -21 -46 -47 -46s-47 19 -47 46zM232 418c-37 0 -67 -13 -85 -33c-32 -36 -32 -87 -32 -144c0 -56 0 -111 30 -146c18 -21 47 -35 85 -35s67 14 85 35c30 35 30 90 30 164c0 53 0 95 -24 123
c-19 23 -53 36 -89 36zM232 484c46 0 104 -14 143 -60c40 -47 40 -94 40 -175v-204c0 -71 0 -126 -46 -176c-32 -35 -83 -58 -149 -58c-49 0 -102 12 -146 36l29 60c33 -18 75 -30 117 -30c49 0 82 17 101 41c24 30 24 66 24 127v10c-27 -38 -71 -61 -120 -61
c-59 0 -106 24 -135 59c-45 54 -45 120 -45 188c0 62 0 132 48 186c31 34 79 57 139 57z" />
    <glyph glyph-name="Hcircumflex" unicode="&#x124;" horiz-adv-x="590" 
d="M256 855h78l95 -120h-66l-68 76l-68 -76h-66zM75 666h74v-288h292v288h74v-666h-74v308h-292v-308h-74v666z" />
    <glyph glyph-name="hcircumflex" unicode="&#x125;" 
d="M61 855h78l95 -120h-66l-68 76l-68 -76h-66zM65 666h70v-238c23 33 63 56 110 56c59 0 101 -26 124 -51c46 -49 46 -107 46 -177v-256h-70v256c0 62 0 104 -29 133c-17 17 -43 29 -76 29s-59 -12 -76 -29c-29 -29 -29 -71 -29 -133v-256h-70v666z" />
    <glyph glyph-name="Hbar" unicode="&#x126;" horiz-adv-x="710" 
d="M134 666h71v-60h298v60h71v-60h61v-62h-61v-544h-71v310h-298v-310h-71v544h-59v62h59v60zM205 544v-168h298v168h-298z" />
    <glyph glyph-name="hbar" unicode="&#x127;" horiz-adv-x="530" 
d="M110 666h70v-58h110v-62h-110v-117c32 43 78 55 115 55c56 0 109 -23 141 -70c34 -50 34 -104 34 -175v-239h-70v239c0 61 0 105 -23 138c-21 30 -56 41 -87 41s-66 -11 -87 -41c-23 -33 -23 -77 -23 -138v-239h-70v546h-80v62h80v58z" />
    <glyph glyph-name="Itilde" unicode="&#x128;" horiz-adv-x="224" 
d="M172 739c-29 0 -54 12 -73 22c-15 7 -29 16 -47 16s-32 -13 -32 -32h-56c0 48 39 84 88 84c30 0 54 -12 73 -22c15 -7 29 -16 47 -16s32 13 32 32h56c0 -48 -39 -84 -88 -84zM149 666v-666h-74v666h74z" />
    <glyph glyph-name="itilde" unicode="&#x129;" horiz-adv-x="214" 
d="M167 550c-29 0 -54 12 -73 22c-15 7 -29 16 -47 16s-32 -13 -32 -32h-56c0 48 39 84 88 84c30 0 54 -12 73 -22c15 -7 29 -16 47 -16s32 13 32 32h56c0 -48 -39 -84 -88 -84zM72 477h70v-477h-70v477z" />
    <glyph glyph-name="Imacron" unicode="&#x12a;" horiz-adv-x="224" 
d="M-14 801h250v-56h-250v56zM149 666v-666h-74v666h74z" />
    <glyph glyph-name="imacron" unicode="&#x12b;" horiz-adv-x="214" 
d="M-19 612h250v-56h-250v56zM72 477h70v-477h-70v477z" />
    <glyph glyph-name="Ibreve" unicode="&#x12c;" horiz-adv-x="224" 
d="M-11.002 855h56c0 -48.4805 20 -74 68 -74s68 25.5195 68 74h56c0 -77.4648 -45 -126 -124 -126s-124 48.5352 -124 126zM149 666v-666h-74v666h74z" />
    <glyph glyph-name="ibreve" unicode="&#x12d;" horiz-adv-x="214" 
d="M-16.002 666h56c0 -48.4805 20 -74 68 -74s68 25.5195 68 74h56c0 -77.4648 -45 -126 -124 -126s-124 48.5352 -124 126zM72 477h70v-477h-70v477z" />
    <glyph glyph-name="Iogonek" unicode="&#x12e;" horiz-adv-x="224" 
d="M75 0v666h74v-666c-43 -12 -99 -39 -99 -96c0 -21 15 -37 36 -37c12 0 25 5 39 14l30 -48c-19 -11 -42 -22 -69 -22c-52 0 -92 41 -92 93c0 48 39 78 81 96z" />
    <glyph glyph-name="iogonek" unicode="&#x12f;" horiz-adv-x="210" 
d="M140 0c-42 -12 -95 -39 -95 -96c0 -21 15 -37 36 -37c12 0 25 5 39 14l30 -48c-19 -11 -42 -22 -69 -22c-52 0 -92 41 -92 93c0 48 39 78 81 96v478h70v-478zM105 644c27 0 47 -19 47 -47s-20 -47 -47 -47s-47 19 -47 47s20 47 47 47z" />
    <glyph glyph-name="Idotaccent" unicode="&#x130;" horiz-adv-x="224" 
d="M112 834c27 0 47 -19 47 -47s-20 -47 -47 -47s-47 19 -47 47s20 47 47 47zM149 666v-666h-74v666h74z" />
    <glyph glyph-name="dotlessi" unicode="&#x131;" horiz-adv-x="214" 
d="M72 477h70v-477h-70v477z" />
    <glyph glyph-name="IJ" unicode="&#x132;" horiz-adv-x="636" 
d="M492 666h74v-415c0 -80 0 -144 -49 -198c-38 -42 -94 -59 -146 -59c-53 0 -103 15 -146 48l45 56c26 -22 63 -34 101 -34c39 0 70 13 90 35c31 34 31 80 31 152v415zM85 666h74v-666h-74v666z" />
    <glyph glyph-name="ij" unicode="&#x133;" horiz-adv-x="394" 
d="M254 478h70v-499c0 -62 0 -95 -33 -130c-21 -22 -54 -38 -98 -38c-26 0 -52 6 -79 17l26 61c18 -8 37 -12 53 -12c20 0 39 6 50 21s11 33 11 81v499zM289 644c27 0 47 -19 47 -47s-20 -47 -47 -47s-47 19 -47 47s20 47 47 47zM105 644c28 0 47 -19 47 -47
s-19 -47 -47 -47c-27 0 -47 19 -47 47s20 47 47 47zM70 477h70v-477h-70v477z" />
    <glyph glyph-name="Jcircumflex" unicode="&#x134;" horiz-adv-x="446" 
d="M300 855h78l95 -120h-66l-68 76l-68 -76h-66zM302 666h74v-405c0 -82 0 -144 -41 -197c-38 -49 -95 -70 -154 -70c-52 0 -103 16 -146 49l45 56c27 -23 65 -35 101 -35c40 0 69 14 88 34c33 35 33 86 33 163v405z" />
    <glyph glyph-name="jcircumflex" unicode="&#x135;" horiz-adv-x="210" 
d="M67 664h78l95 -120h-66l-68 76l-68 -76h-66zM70 478h70v-499c0 -62 0 -95 -33 -130c-21 -22 -54 -38 -98 -38c-26 0 -52 6 -79 17l26 61c18 -8 37 -12 53 -12c20 0 39 6 50 21s11 33 11 81v499z" />
    <glyph glyph-name="uni0136" unicode="&#x136;" horiz-adv-x="561" 
d="M332 -109c0 -14 -6 -27 -11 -39l-36 -81h-45l26 78c-16 6 -28 21 -28 42c0 27 21 46 47 46s47 -19 47 -46zM75 666h74v-308c12 0 24 0 36 6c14 7 25 22 46 51l185 251h90l-205 -278c-9 -13 -22 -32 -33 -45l253 -343h-90l-220 298c-25 -10 -49 -10 -62 -10v-288h-74v666z
" />
    <glyph glyph-name="uni0137" unicode="&#x137;" horiz-adv-x="458" 
d="M276 -109c0 -14 -6 -27 -11 -39l-36 -81h-45l26 78c-16 6 -28 21 -28 42c0 27 21 46 47 46s47 -19 47 -46zM65 667h70v-383c14 0 27 0 40 10c10 8 18 18 33 37l114 146h86l-142 -183c-13 -17 -18 -24 -28 -34l185 -260h-85l-158 223c-14 -4 -28 -5 -45 -5v-218h-70v667z
" />
    <glyph glyph-name="kgreenlandic" unicode="&#x138;" horiz-adv-x="457" 
d="M65 477h70v-193c14 0 27 0 40 10c10 8 18 18 33 37l114 146h86l-142 -183c-13 -17 -18 -24 -28 -34l185 -260h-85l-158 223c-14 -4 -28 -5 -45 -5v-218h-70v477z" />
    <glyph glyph-name="Lacute" unicode="&#x139;" horiz-adv-x="480" 
d="M220 856l-87 -120h-66l75 120h78zM75 666h74v-511c0 -41 0 -63 17 -76c12 -9 29 -9 66 -9h193v-70h-193c-44 0 -84 0 -117 28c-40 35 -40 79 -40 127v511z" />
    <glyph glyph-name="lacute" unicode="&#x13a;" horiz-adv-x="200" 
d="M207 856l-87 -120h-66l75 120h78zM65 667h70v-667h-70v667z" />
    <glyph glyph-name="uni013B" unicode="&#x13b;" horiz-adv-x="480" 
d="M312 -109c0 -14 -6 -27 -11 -39l-36 -81h-45l26 78c-16 6 -28 21 -28 42c0 27 21 46 47 46s47 -19 47 -46zM75 666h74v-511c0 -41 0 -63 17 -76c12 -9 29 -9 66 -9h193v-70h-193c-44 0 -84 0 -117 28c-40 35 -40 79 -40 127v511z" />
    <glyph glyph-name="uni013C" unicode="&#x13c;" horiz-adv-x="200" 
d="M147 -109c0 -14 -6 -27 -11 -39l-36 -81h-45l26 78c-16 6 -28 21 -28 42c0 27 21 46 47 46s47 -19 47 -46zM65 667h70v-667h-70v667z" />
    <glyph glyph-name="Lcaron" unicode="&#x13d;" horiz-adv-x="480" 
d="M240 621c0 31 21 51 51 51s51 -20 51 -51c0 -13 -4 -25 -8 -37l-46 -128h-45l29 117c-19 6 -32 25 -32 48zM75 666h74v-511c0 -41 0 -63 17 -76c12 -9 29 -9 66 -9h193v-70h-193c-44 0 -84 0 -117 28c-40 35 -40 79 -40 127v511z" />
    <glyph glyph-name="lcaron" unicode="&#x13e;" horiz-adv-x="359" 
d="M227 621c0 31 21 51 51 51s51 -20 51 -51c0 -13 -4 -25 -8 -37l-46 -128h-45l29 117c-19 6 -32 25 -32 48zM65 667h70v-667h-70v667z" />
    <glyph glyph-name="Ldot" unicode="&#x13f;" horiz-adv-x="480" 
d="M289 385c30 0 51 -21 51 -51s-21 -51 -51 -51s-51 21 -51 51s21 51 51 51zM75 666h74v-511c0 -41 0 -63 17 -76c12 -9 29 -9 66 -9h193v-70h-193c-44 0 -84 0 -117 28c-40 35 -40 79 -40 127v511z" />
    <glyph glyph-name="ldot" unicode="&#x140;" horiz-adv-x="354" 
d="M65 667h70v-667h-70v667zM253 385c30 0 51 -21 51 -51s-21 -51 -51 -51s-51 21 -51 51s21 51 51 51z" />
    <glyph glyph-name="Lslash" unicode="&#x141;" horiz-adv-x="550" 
d="M115 666h74v-304l77 54l36 -50l-113 -80v-131c0 -41 0 -63 17 -76c12 -9 29 -9 66 -9h223v-70h-223c-44 0 -84 0 -117 28c-40 35 -40 79 -40 127v79l-57 -38l-36 50l93 65v355z" />
    <glyph glyph-name="lslash" unicode="&#x142;" horiz-adv-x="320" 
d="M185 0h-70v236l-57 -40l-36 50l93 66v355h70v-305l77 54l36 -50l-113 -80v-286z" />
    <glyph glyph-name="Nacute" unicode="&#x143;" horiz-adv-x="554" 
d="M379 856l-87 -120h-66l75 120h78zM277 672c62 0 119 -23 155 -64c52 -59 52 -131 52 -221v-387h-74v387c0 81 0 137 -34 175c-24 27 -60 40 -99 40s-75 -13 -99 -40c-34 -38 -34 -94 -34 -175v-387h-74v387c0 90 0 162 52 221c36 41 93 64 155 64z" />
    <glyph glyph-name="nacute" unicode="&#x144;" horiz-adv-x="460" 
d="M344 666l-87 -120h-66l75 120h78zM230 484c61 0 104 -26 128 -51c47 -49 47 -107 47 -177v-256h-70v256c0 62 0 104 -29 133c-17 17 -43 29 -76 29s-59 -12 -76 -29c-29 -29 -29 -71 -29 -133v-256h-70v256c0 70 0 128 47 177c24 25 67 51 128 51z" />
    <glyph glyph-name="uni0145" unicode="&#x145;" horiz-adv-x="554" 
d="M319 -109c0 -14 -6 -27 -11 -39l-36 -81h-45l26 78c-16 6 -28 21 -28 42c0 27 21 46 47 46s47 -19 47 -46zM277 672c62 0 119 -23 155 -64c52 -59 52 -131 52 -221v-387h-74v387c0 81 0 137 -34 175c-24 27 -60 40 -99 40s-75 -13 -99 -40c-34 -38 -34 -94 -34 -175v-387
h-74v387c0 90 0 162 52 221c36 41 93 64 155 64z" />
    <glyph glyph-name="uni0146" unicode="&#x146;" horiz-adv-x="460" 
d="M284 -109c0 -14 -6 -27 -11 -39l-36 -81h-45l26 78c-16 6 -28 21 -28 42c0 27 21 46 47 46s47 -19 47 -46zM230 484c61 0 104 -26 128 -51c47 -49 47 -107 47 -177v-256h-70v256c0 62 0 104 -29 133c-17 17 -43 29 -76 29s-59 -12 -76 -29c-29 -29 -29 -71 -29 -133v-256
h-70v256c0 70 0 128 47 177c24 25 67 51 128 51z" />
    <glyph glyph-name="Ncaron" unicode="&#x147;" horiz-adv-x="554" 
d="M233 736l-95 120h66l68 -76l68 76h66l-95 -120h-78zM277 672c62 0 119 -23 155 -64c52 -59 52 -131 52 -221v-387h-74v387c0 81 0 137 -34 175c-24 27 -60 40 -99 40s-75 -13 -99 -40c-34 -38 -34 -94 -34 -175v-387h-74v387c0 90 0 162 52 221c36 41 93 64 155 64z" />
    <glyph glyph-name="ncaron" unicode="&#x148;" horiz-adv-x="460" 
d="M198 546l-95 120h66l68 -76l68 76h66l-95 -120h-78zM230 484c61 0 104 -26 128 -51c47 -49 47 -107 47 -177v-256h-70v256c0 62 0 104 -29 133c-17 17 -43 29 -76 29s-59 -12 -76 -29c-29 -29 -29 -71 -29 -133v-256h-70v256c0 70 0 128 47 177c24 25 67 51 128 51z" />
    <glyph glyph-name="napostrophe" unicode="&#x149;" horiz-adv-x="542" 
d="M292 484c61 0 104 -26 128 -51c47 -49 47 -107 47 -177v-256h-70v256c0 62 0 104 -29 133c-17 17 -43 29 -76 29s-59 -12 -76 -29c-29 -29 -29 -71 -29 -133v-256h-70v256c0 70 0 128 47 177c24 25 67 51 128 51zM50 621c0 31 21 51 51 51s51 -20 51 -51
c0 -13 -4 -25 -8 -37l-46 -128h-45l29 117c-19 6 -32 25 -32 48z" />
    <glyph glyph-name="Eng" unicode="&#x14a;" horiz-adv-x="570" 
d="M426 -49v446c0 79 0 130 -38 168c-23 23 -59 37 -103 37s-80 -14 -103 -37c-38 -38 -38 -89 -38 -168v-397h-74v397c0 83 0 158 58 216c37 37 91 59 157 59s120 -22 157 -59c58 -58 58 -133 58 -216v-446c0 -27 -2 -54 -18 -81c-23 -37 -65 -59 -115 -59
c-30 0 -58 7 -84 18l32 64c17 -8 35 -12 52 -12c28 0 43 10 51 23c6 11 8 22 8 47z" />
    <glyph glyph-name="eng" unicode="&#x14b;" horiz-adv-x="480" 
d="M350 -21v260c0 61 0 105 -23 138c-21 30 -56 41 -87 41s-66 -11 -87 -41c-23 -33 -23 -77 -23 -138v-239h-70v239c0 71 0 125 35 175c33 47 87 70 145 70s112 -23 145 -70c35 -50 35 -104 35 -175v-260c0 -62 0 -95 -33 -130c-21 -22 -54 -38 -98 -38c-26 0 -52 6 -79 17
l26 61c18 -8 37 -12 53 -12c20 0 39 6 50 21s11 33 11 81z" />
    <glyph glyph-name="Omacron" unicode="&#x14c;" horiz-adv-x="584" 
d="M174 801h250v-56h-250v56zM139 333c0 -102 0 -162 26 -205c24 -40 71 -64 127 -64s103 24 127 64c26 43 26 103 26 205s0 162 -26 205c-24 40 -71 64 -127 64s-103 -24 -127 -64c-26 -43 -26 -103 -26 -205zM65 333c0 118 0 181 36 240c37 61 107 99 191 99
s154 -38 191 -99c36 -59 36 -122 36 -240s0 -181 -36 -240c-37 -61 -107 -99 -191 -99s-154 38 -191 99c-36 59 -36 122 -36 240z" />
    <glyph glyph-name="omacron" unicode="&#x14d;" 
d="M119 612h250v-56h-250v56zM235 418c-44 0 -78 -18 -98 -48c-22 -33 -22 -80 -22 -131s0 -98 22 -131c20 -30 54 -48 98 -48s78 18 98 48c22 33 22 80 22 131s0 98 -22 131c-20 30 -54 48 -98 48zM235 484c71 0 129 -32 161 -85c29 -48 29 -103 29 -160s0 -112 -29 -160
c-32 -53 -90 -85 -161 -85s-129 32 -161 85c-29 48 -29 103 -29 160s0 112 29 160c32 53 90 85 161 85z" />
    <glyph glyph-name="Obreve" unicode="&#x14e;" horiz-adv-x="584" 
d="M176.998 855h56c0 -48.4805 20 -74 68 -74s68 25.5195 68 74h56c0 -77.4648 -45 -126 -124 -126s-124 48.5352 -124 126zM139 333c0 -102 0 -162 26 -205c24 -40 71 -64 127 -64s103 24 127 64c26 43 26 103 26 205s0 162 -26 205c-24 40 -71 64 -127 64
s-103 -24 -127 -64c-26 -43 -26 -103 -26 -205zM65 333c0 118 0 181 36 240c37 61 107 99 191 99s154 -38 191 -99c36 -59 36 -122 36 -240s0 -181 -36 -240c-37 -61 -107 -99 -191 -99s-154 38 -191 99c-36 59 -36 122 -36 240z" />
    <glyph glyph-name="obreve" unicode="&#x14f;" 
d="M121.998 666h56c0 -48.4805 20 -74 68 -74s68 25.5195 68 74h56c0 -77.4648 -45 -126 -124 -126s-124 48.5352 -124 126zM235 418c-44 0 -78 -18 -98 -48c-22 -33 -22 -80 -22 -131s0 -98 22 -131c20 -30 54 -48 98 -48s78 18 98 48c22 33 22 80 22 131s0 98 -22 131
c-20 30 -54 48 -98 48zM235 484c71 0 129 -32 161 -85c29 -48 29 -103 29 -160s0 -112 -29 -160c-32 -53 -90 -85 -161 -85s-129 32 -161 85c-29 48 -29 103 -29 160s0 112 29 160c32 53 90 85 161 85z" />
    <glyph glyph-name="Ohungarumlaut" unicode="&#x150;" horiz-adv-x="584" 
d="M322 855l-83 -120h-62l75 120h70zM464 855l-87 -120h-62l79 120h70zM139 333c0 -102 0 -162 26 -205c24 -40 71 -64 127 -64s103 24 127 64c26 43 26 103 26 205s0 162 -26 205c-24 40 -71 64 -127 64s-103 -24 -127 -64c-26 -43 -26 -103 -26 -205zM65 333
c0 118 0 181 36 240c37 61 107 99 191 99s154 -38 191 -99c36 -59 36 -122 36 -240s0 -181 -36 -240c-37 -61 -107 -99 -191 -99s-154 38 -191 99c-36 59 -36 122 -36 240z" />
    <glyph glyph-name="ohungarumlaut" unicode="&#x151;" 
d="M267 666l-83 -120h-62l75 120h70zM409 666l-87 -120h-62l79 120h70zM235 418c-44 0 -78 -18 -98 -48c-22 -33 -22 -80 -22 -131s0 -98 22 -131c20 -30 54 -48 98 -48s78 18 98 48c22 33 22 80 22 131s0 98 -22 131c-20 30 -54 48 -98 48zM235 484c71 0 129 -32 161 -85
c29 -48 29 -103 29 -160s0 -112 -29 -160c-32 -53 -90 -85 -161 -85s-129 32 -161 85c-29 48 -29 103 -29 160s0 112 29 160c32 53 90 85 161 85z" />
    <glyph glyph-name="OE" unicode="&#x152;" horiz-adv-x="806" 
d="M436 64c-39 -52 -101 -70 -156 -70c-52 0 -113 19 -152 61c-63 67 -63 146 -63 254v48c0 108 0 187 63 254c39 42 100 61 152 61c55 0 117 -18 156 -70c6 13 14 25 25 36c33 28 73 28 117 28h163v-70h-163c-37 0 -54 0 -66 -9c-17 -13 -17 -35 -17 -76v-133l206 1v-70
l-206 -1v-153c0 -41 0 -63 17 -76c12 -9 29 -9 66 -9h163v-70h-163c-44 0 -84 0 -117 28c-11 11 -19 23 -25 36zM280 602c-43 0 -83 -18 -105 -47c-36 -47 -36 -100 -36 -198v-48c0 -98 0 -151 36 -198c22 -29 62 -47 105 -47s83 18 105 47c36 47 36 100 36 198v48
c0 98 0 151 -36 198c-22 29 -62 47 -105 47z" />
    <glyph glyph-name="oe" unicode="&#x153;" horiz-adv-x="700" 
d="M357 66c-28 -38 -72 -72 -132 -72s-107 31 -134 69c-34 48 -36 104 -36 176s3 127 36 176c26 38 74 69 134 69s107 -32 133 -72c31 44 84 72 151 72c29 0 65 -6 95 -28c28 -20 51 -57 51 -100c0 -47 -25 -84 -55 -105c-39 -27 -83 -27 -111 -27h-94c0 -85 0 -113 35 -142
c21 -18 48 -22 69 -22c34 0 72 12 103 30l33 -58c-42 -23 -88 -38 -136 -38c-67 0 -112 27 -142 72zM509 418c-30 0 -62 -8 -83 -28c-31 -31 -31 -57 -31 -104h94c25 0 47 0 68 14c15 10 28 31 28 56c0 12 -4 33 -23 47c-20 15 -46 15 -53 15zM225 60c34 0 60 17 76 39
c24 33 24 84 24 140s0 107 -24 140c-16 22 -42 39 -76 39s-60 -17 -76 -39c-23 -33 -24 -84 -24 -140s0 -107 24 -140c16 -22 42 -39 76 -39z" />
    <glyph glyph-name="Racute" unicode="&#x154;" horiz-adv-x="550" 
d="M362 856l-87 -120h-66l75 120h78zM227 596c-32 0 -49 0 -61 -9c-17 -13 -17 -35 -17 -76v-185h69c75 0 121 0 159 35c26 24 39 62 39 100s-13 76 -39 100c-38 35 -85 35 -150 35zM227 666c69 0 143 0 202 -55c37 -35 61 -87 61 -150c0 -87 -46 -153 -108 -182l118 -279
h-80l-108 259c-22 -3 -44 -3 -94 -3h-69v-256h-74v511c0 48 0 92 40 127c33 28 73 28 112 28z" />
    <glyph glyph-name="racute" unicode="&#x155;" horiz-adv-x="338" 
d="M300.5 664l-87 -120h-66l75 120h78zM238 484c25 0 48 -4 68 -11l-21 -63c-14 5 -30 8 -47 8c-36 0 -70 -13 -89 -36c-24 -28 -24 -70 -24 -133v-249h-70v249c0 81 0 128 40 175c39 46 97 60 143 60z" />
    <glyph glyph-name="uni0156" unicode="&#x156;" horiz-adv-x="550" 
d="M324 -109c0 -14 -6 -27 -11 -39l-36 -81h-45l26 78c-16 6 -28 21 -28 42c0 27 21 46 47 46s47 -19 47 -46zM227 596c-32 0 -49 0 -61 -9c-17 -13 -17 -35 -17 -76v-185h69c75 0 121 0 159 35c26 24 39 62 39 100s-13 76 -39 100c-38 35 -85 35 -150 35zM227 666
c69 0 143 0 202 -55c37 -35 61 -87 61 -150c0 -87 -46 -153 -108 -182l118 -279h-80l-108 259c-22 -3 -44 -3 -94 -3h-69v-256h-74v511c0 48 0 92 40 127c33 28 73 28 112 28z" />
    <glyph glyph-name="uni0157" unicode="&#x157;" horiz-adv-x="338" 
d="M137 -106c0 -14 -6 -27 -11 -39l-36 -81h-45l26 78c-16 6 -28 21 -28 42c0 27 21 46 47 46s47 -19 47 -46zM238 484c25 0 48 -4 68 -11l-21 -63c-14 5 -30 8 -47 8c-36 0 -70 -13 -89 -36c-24 -28 -24 -70 -24 -133v-249h-70v249c0 81 0 128 40 175c39 46 97 60 143 60z
" />
    <glyph glyph-name="Rcaron" unicode="&#x158;" horiz-adv-x="550" 
d="M216 736l-95 120h66l68 -76l68 76h66l-95 -120h-78zM227 596c-32 0 -49 0 -61 -9c-17 -13 -17 -35 -17 -76v-185h69c75 0 121 0 159 35c26 24 39 62 39 100s-13 76 -39 100c-38 35 -85 35 -150 35zM227 666c69 0 143 0 202 -55c37 -35 61 -87 61 -150
c0 -87 -46 -153 -108 -182l118 -279h-80l-108 259c-22 -3 -44 -3 -94 -3h-69v-256h-74v511c0 48 0 92 40 127c33 28 73 28 112 28z" />
    <glyph glyph-name="rcaron" unicode="&#x159;" horiz-adv-x="338" 
d="M141.5 544l-95 120h66l68 -76l68 76h66l-95 -120h-78zM238 484c25 0 48 -4 68 -11l-21 -63c-14 5 -30 8 -47 8c-36 0 -70 -13 -89 -36c-24 -28 -24 -70 -24 -133v-249h-70v249c0 81 0 128 40 175c39 46 97 60 143 60z" />
    <glyph glyph-name="Sacute" unicode="&#x15a;" horiz-adv-x="510" 
d="M354 855l-87 -120h-66l75 120h78zM247 672c71 0 138 -23 186 -60l-44 -56c-34 27 -86 46 -142 46c-89 0 -124 -51 -124 -99c0 -30 15 -59 40 -79c24 -20 63 -32 96 -42c44 -13 93 -27 135 -63c35 -30 66 -81 66 -139c0 -91 -69 -186 -213 -186c-74 0 -148 24 -204 72
l47 54c43 -38 101 -56 157 -56c100 0 139 62 139 116c0 31 -16 66 -44 89c-27 23 -68 35 -114 49c-37 11 -76 22 -117 56c-34 28 -62 76 -62 127c0 95 74 171 198 171z" />
    <glyph glyph-name="sacute" unicode="&#x15b;" horiz-adv-x="408" 
d="M316 666l-87 -120h-66l75 120h78zM345 451l-26 -61c-38 18 -80 28 -120 28c-25 0 -43 -4 -60 -14s-29 -28 -29 -50c0 -21 11 -38 25 -49c20 -16 41 -21 77 -29s69 -17 97 -37c31 -22 59 -59 59 -109c0 -45 -23 -82 -54 -104s-69 -32 -115 -32c-54 0 -110 11 -161 35
l28 60c41 -19 87 -29 133 -29c29 0 54 5 73 19s26 34 26 51c0 23 -12 42 -28 54c-22 16 -47 22 -79 29s-68 16 -98 39s-53 59 -53 102c0 46 25 81 54 101s64 29 105 29c51 0 101 -12 146 -33z" />
    <glyph glyph-name="Scircumflex" unicode="&#x15c;" horiz-adv-x="510" 
d="M208 855h78l95 -120h-66l-68 76l-68 -76h-66zM247 672c71 0 138 -23 186 -60l-44 -56c-34 27 -86 46 -142 46c-89 0 -124 -51 -124 -99c0 -30 15 -59 40 -79c24 -20 63 -32 96 -42c44 -13 93 -27 135 -63c35 -30 66 -81 66 -139c0 -91 -69 -186 -213 -186
c-74 0 -148 24 -204 72l47 54c43 -38 101 -56 157 -56c100 0 139 62 139 116c0 31 -16 66 -44 89c-27 23 -68 35 -114 49c-37 11 -76 22 -117 56c-34 28 -62 76 -62 127c0 95 74 171 198 171z" />
    <glyph glyph-name="scircumflex" unicode="&#x15d;" horiz-adv-x="408" 
d="M170 666h78l95 -120h-66l-68 76l-68 -76h-66zM345 451l-26 -61c-38 18 -80 28 -120 28c-25 0 -43 -4 -60 -14s-29 -28 -29 -50c0 -21 11 -38 25 -49c20 -16 41 -21 77 -29s69 -17 97 -37c31 -22 59 -59 59 -109c0 -45 -23 -82 -54 -104s-69 -32 -115 -32
c-54 0 -110 11 -161 35l28 60c41 -19 87 -29 133 -29c29 0 54 5 73 19s26 34 26 51c0 23 -12 42 -28 54c-22 16 -47 22 -79 29s-68 16 -98 39s-53 59 -53 102c0 46 25 81 54 101s64 29 105 29c51 0 101 -12 146 -33z" />
    <glyph glyph-name="Scedilla" unicode="&#x15e;" horiz-adv-x="510" 
d="M184 -128c14 -6 29 -9 41 -9c9 0 22 0 36 7c12 7 20 17 20 30c0 10 -5 20 -16 26c-8 4 -16 4 -25 4h-37l20 65c-66 4 -130 28 -180 71l47 54c43 -38 101 -56 157 -56c100 0 139 62 139 116c0 31 -16 66 -44 89c-27 23 -68 35 -114 49c-37 11 -76 22 -117 56
c-34 28 -62 76 -62 127c0 95 74 171 198 171c71 0 138 -23 186 -60l-44 -56c-34 27 -86 46 -142 46c-89 0 -124 -51 -124 -99c0 -30 15 -59 40 -79c24 -20 63 -32 96 -42c44 -13 93 -27 135 -63c35 -30 66 -81 66 -139c0 -87 -62 -177 -193 -185l-9 -32c21 0 37 0 56 -13
c15 -11 23 -29 23 -49c0 -28 -15 -50 -31 -64c-18 -15 -47 -26 -81 -26c-18 0 -38 3 -57 11z" />
    <glyph glyph-name="scedilla" unicode="&#x15f;" horiz-adv-x="424" 
d="M146 -128c14 -6 29 -9 41 -9c9 0 22 0 36 7c12 7 20 17 20 30c0 10 -5 20 -16 26c-8 4 -16 4 -25 4h-37l20 65c-47 2 -97 14 -141 36l29 60c40 -21 88 -31 136 -31c90 0 104 49 104 72c0 17 -7 37 -26 52c-17 13 -34 20 -81 28c-30 5 -62 11 -92 28
c-43 25 -69 65 -69 112c0 58 46 132 164 132c49 0 102 -11 151 -33l-27 -61c-39 18 -82 28 -124 28c-73 0 -94 -38 -94 -66c0 -19 10 -40 31 -53c19 -12 42 -17 72 -22c46 -8 75 -15 107 -37c38 -26 58 -68 58 -108c0 -61 -45 -130 -154 -137l-9 -32c21 0 37 0 56 -13
c15 -11 23 -29 23 -49c0 -28 -15 -50 -31 -64c-18 -15 -47 -26 -81 -26c-18 0 -38 3 -57 11z" />
    <glyph glyph-name="Scaron" unicode="&#x160;" horiz-adv-x="510" 
d="M208 735l-95 120h66l68 -76l68 76h66l-95 -120h-78zM247 672c71 0 138 -23 186 -60l-44 -56c-34 27 -86 46 -142 46c-89 0 -124 -51 -124 -99c0 -30 15 -59 40 -79c24 -20 63 -32 96 -42c44 -13 93 -27 135 -63c35 -30 66 -81 66 -139c0 -91 -69 -186 -213 -186
c-74 0 -148 24 -204 72l47 54c43 -38 101 -56 157 -56c100 0 139 62 139 116c0 31 -16 66 -44 89c-27 23 -68 35 -114 49c-37 11 -76 22 -117 56c-34 28 -62 76 -62 127c0 95 74 171 198 171z" />
    <glyph glyph-name="scaron" unicode="&#x161;" horiz-adv-x="408" 
d="M170 546l-95 120h66l68 -76l68 76h66l-95 -120h-78zM345 451l-26 -61c-38 18 -80 28 -120 28c-25 0 -43 -4 -60 -14s-29 -28 -29 -50c0 -21 11 -38 25 -49c20 -16 41 -21 77 -29s69 -17 97 -37c31 -22 59 -59 59 -109c0 -45 -23 -82 -54 -104s-69 -32 -115 -32
c-54 0 -110 11 -161 35l28 60c41 -19 87 -29 133 -29c29 0 54 5 73 19s26 34 26 51c0 23 -12 42 -28 54c-22 16 -47 22 -79 29s-68 16 -98 39s-53 59 -53 102c0 46 25 81 54 101s64 29 105 29c51 0 101 -12 146 -33z" />
    <glyph glyph-name="uni0162" unicode="&#x162;" horiz-adv-x="560" 
d="M217 -128c14 -6 29 -9 41 -9c9 0 22 0 36 7c12 7 20 17 20 30c0 10 -5 20 -16 26c-8 4 -16 4 -25 4h-37l22 70h-15v596h-188v70h450v-70h-188v-596h-15l-11 -37c21 0 37 0 56 -13c15 -11 23 -29 23 -49c0 -28 -15 -50 -31 -64c-18 -15 -47 -26 -81 -26
c-18 0 -38 3 -57 11z" />
    <glyph glyph-name="uni0163" unicode="&#x163;" horiz-adv-x="298" 
d="M113 -128c14 -6 29 -9 41 -9c9 0 22 0 36 7c12 7 20 17 20 30c0 10 -5 20 -16 26c-8 4 -16 4 -25 4h-37l21 68c-25 6 -45 19 -60 34c-33 35 -33 68 -33 150v409h70v-113h110v-62h-110v-234c0 -68 0 -86 11 -101s30 -21 50 -21c16 0 35 4 53 12l26 -61
c-25 -10 -50 -16 -74 -17l-9 -31c21 0 37 0 56 -13c15 -11 23 -29 23 -49c0 -28 -15 -50 -31 -64c-18 -15 -47 -26 -81 -26c-18 0 -38 3 -57 11z" />
    <glyph glyph-name="Tcaron" unicode="&#x164;" horiz-adv-x="530" 
d="M241 735l-95 120h66l68 -76l68 76h66l-95 -120h-78zM40 666h450v-70h-188v-596h-74v596h-188v70z" />
    <glyph glyph-name="tcaron" unicode="&#x165;" horiz-adv-x="421" 
d="M289 621c0 31 21 51 51 51s51 -20 51 -51c0 -13 -4 -25 -8 -37l-46 -128h-45l29 117c-19 6 -32 25 -32 48zM130 170c0 -54 0 -72 14 -90c10 -12 25 -20 47 -20c19 0 42 7 65 19l30 -59c-27 -14 -59 -26 -95 -26c-44 0 -81 18 -103 46c-28 35 -28 73 -28 130v421h70v-113
h120v-62h-120v-246z" />
    <glyph glyph-name="Tbar" unicode="&#x166;" horiz-adv-x="560" 
d="M55 667h450v-70h-188v-263h95v-62h-95v-272h-74v272h-95v62h95v263h-188v70z" />
    <glyph glyph-name="tbar" unicode="&#x167;" horiz-adv-x="415" 
d="M162 591h70v-114h110v-62h-110v-81h110v-62h-110v-140c0 -18 0 -36 11 -51s30 -21 50 -21c16 0 35 4 53 12l29 -60c-26 -11 -53 -18 -82 -18c-44 0 -77 16 -98 38c-33 35 -33 74 -33 100v140h-80v62h80v81h-80v62h80v114z" />
    <glyph glyph-name="Utilde" unicode="&#x168;" horiz-adv-x="554" 
d="M345 739c-29 0 -54 12 -73 22c-15 7 -29 16 -47 16s-32 -13 -32 -32h-56c0 48 39 84 88 84c30 0 54 -12 73 -22c15 -7 29 -16 47 -16s32 13 32 32h56c0 -48 -39 -84 -88 -84zM70 666h74v-387c0 -81 0 -137 34 -175c24 -27 60 -40 99 -40s75 13 99 40c34 38 34 94 34 175
v387h74v-387c0 -90 0 -162 -52 -221c-36 -41 -93 -64 -155 -64s-119 23 -155 64c-52 59 -52 131 -52 221v387z" />
    <glyph glyph-name="utilde" unicode="&#x169;" horiz-adv-x="460" 
d="M297 549c-29 0 -54 12 -73 22c-15 7 -29 16 -47 16s-32 -13 -32 -32h-56c0 48 39 84 88 84c30 0 54 -12 73 -22c15 -7 29 -16 47 -16s32 13 32 32h56c0 -48 -39 -84 -88 -84zM55 478h70v-256c0 -62 0 -104 29 -133c17 -17 43 -29 76 -29s59 12 76 29c29 29 29 71 29 133
v256h70v-256c0 -70 0 -128 -47 -177c-24 -25 -67 -51 -128 -51s-104 26 -128 51c-47 49 -47 107 -47 177v256z" />
    <glyph glyph-name="Umacron" unicode="&#x16a;" horiz-adv-x="554" 
d="M159 801h250v-56h-250v56zM70 666h74v-387c0 -81 0 -137 34 -175c24 -27 60 -40 99 -40s75 13 99 40c34 38 34 94 34 175v387h74v-387c0 -90 0 -162 -52 -221c-36 -41 -93 -64 -155 -64s-119 23 -155 64c-52 59 -52 131 -52 221v387z" />
    <glyph glyph-name="umacron" unicode="&#x16b;" horiz-adv-x="460" 
d="M111 611h250v-56h-250v56zM55 478h70v-256c0 -62 0 -104 29 -133c17 -17 43 -29 76 -29s59 12 76 29c29 29 29 71 29 133v256h70v-256c0 -70 0 -128 -47 -177c-24 -25 -67 -51 -128 -51s-104 26 -128 51c-47 49 -47 107 -47 177v256z" />
    <glyph glyph-name="Ubreve" unicode="&#x16c;" horiz-adv-x="554" 
d="M161.998 855h56c0 -48.4805 20 -74 68 -74s68 25.5195 68 74h56c0 -77.4648 -45 -126 -124 -126s-124 48.5352 -124 126zM70 666h74v-387c0 -81 0 -137 34 -175c24 -27 60 -40 99 -40s75 13 99 40c34 38 34 94 34 175v387h74v-387c0 -90 0 -162 -52 -221
c-36 -41 -93 -64 -155 -64s-119 23 -155 64c-52 59 -52 131 -52 221v387z" />
    <glyph glyph-name="ubreve" unicode="&#x16d;" horiz-adv-x="460" 
d="M113.998 665h56c0 -48.4805 20 -74 68 -74s68 25.5195 68 74h56c0 -77.4648 -45 -126 -124 -126s-124 48.5352 -124 126zM55 478h70v-256c0 -62 0 -104 29 -133c17 -17 43 -29 76 -29s59 12 76 29c29 29 29 71 29 133v256h70v-256c0 -70 0 -128 -47 -177
c-24 -25 -67 -51 -128 -51s-104 26 -128 51c-47 49 -47 107 -47 177v256z" />
    <glyph glyph-name="Uring" unicode="&#x16e;" horiz-adv-x="554" 
d="M285 882c52 0 87 -34 87 -87c0 -52 -35 -87 -87 -87c-51 0 -87 35 -87 87c0 53 36 87 87 87zM285 842c-27 0 -44 -20 -44 -47s17 -46 44 -46s45 19 45 46s-18 47 -45 47zM70 666h74v-387c0 -81 0 -137 34 -175c24 -27 60 -40 99 -40s75 13 99 40c34 38 34 94 34 175v387
h74v-387c0 -90 0 -162 -52 -221c-36 -41 -93 -64 -155 -64s-119 23 -155 64c-52 59 -52 131 -52 221v387z" />
    <glyph glyph-name="uring" unicode="&#x16f;" horiz-adv-x="460" 
d="M237 692c52 0 87 -34 87 -87c0 -52 -35 -87 -87 -87c-51 0 -87 35 -87 87c0 53 36 87 87 87zM237 652c-27 0 -44 -20 -44 -47s17 -46 44 -46s45 19 45 46s-18 47 -45 47zM55 478h70v-256c0 -62 0 -104 29 -133c17 -17 43 -29 76 -29s59 12 76 29c29 29 29 71 29 133v256
h70v-256c0 -70 0 -128 -47 -177c-24 -25 -67 -51 -128 -51s-104 26 -128 51c-47 49 -47 107 -47 177v256z" />
    <glyph glyph-name="Uhungarumlaut" unicode="&#x170;" horiz-adv-x="554" 
d="M307 855l-83 -120h-62l75 120h70zM449 855l-87 -120h-62l79 120h70zM70 666h74v-387c0 -81 0 -137 34 -175c24 -27 60 -40 99 -40s75 13 99 40c34 38 34 94 34 175v387h74v-387c0 -90 0 -162 -52 -221c-36 -41 -93 -64 -155 -64s-119 23 -155 64c-52 59 -52 131 -52 221
v387z" />
    <glyph glyph-name="uhungarumlaut" unicode="&#x171;" horiz-adv-x="460" 
d="M259 665l-83 -120h-62l75 120h70zM401 665l-87 -120h-62l79 120h70zM55 478h70v-256c0 -62 0 -104 29 -133c17 -17 43 -29 76 -29s59 12 76 29c29 29 29 71 29 133v256h70v-256c0 -70 0 -128 -47 -177c-24 -25 -67 -51 -128 -51s-104 26 -128 51c-47 49 -47 107 -47 177
v256z" />
    <glyph glyph-name="Uogonek" unicode="&#x172;" horiz-adv-x="570" 
d="M144 666v-397c0 -79 0 -130 38 -168c23 -23 59 -37 103 -37s80 14 103 37c38 38 38 89 38 168v397h74v-397c0 -83 0 -158 -58 -216c-24 -24 -56 -42 -94 -52c-53 -14 -101 -45 -101 -97c0 -21 15 -37 36 -37c12 0 25 5 39 14l30 -48c-19 -11 -42 -22 -69 -22
c-52 0 -92 41 -92 93c0 43 28 72 69 92c-59 5 -100 26 -132 57c-58 58 -58 133 -58 216v397h74z" />
    <glyph glyph-name="uogonek" unicode="&#x173;" horiz-adv-x="480" 
d="M60 478h70v-239c0 -61 0 -105 23 -138c21 -30 56 -41 87 -41s66 11 87 41c23 33 23 77 23 138v239h70v-239c0 -71 0 -125 -35 -175c-22 -31 -53 -52 -89 -62c-46 -13 -92 -44 -92 -98c0 -21 15 -37 36 -37c12 0 25 5 39 14l30 -48c-19 -11 -42 -22 -69 -22
c-52 0 -92 41 -92 93c0 43 26 73 65 92c-53 8 -90 30 -118 68c-35 50 -35 104 -35 175v239z" />
    <glyph glyph-name="Wcircumflex" unicode="&#x174;" horiz-adv-x="806" 
d="M384 856h78l95 -120h-66l-68 76l-68 -76h-66zM70 666h74v-416c0 -76 0 -118 28 -152c18 -22 48 -34 83 -34s65 12 83 34c28 34 28 76 28 152v416h74v-416c0 -76 0 -118 28 -152c18 -22 48 -34 83 -34s65 12 83 34c28 34 28 76 28 152v416h74v-416c0 -81 0 -148 -49 -201
c-32 -34 -78 -55 -136 -55c-65.7295 0 -117.226 26.5117 -148 79.5479c-30.791 -52.0586 -82.2559 -79.5479 -148 -79.5479c-58 0 -104 21 -136 55c-49 53 -49 120 -49 201v416z" />
    <glyph glyph-name="wcircumflex" unicode="&#x175;" horiz-adv-x="700" 
d="M336 666h78l95 -120h-66l-68 76l-68 -76h-66zM220 -6c-47 0 -88 17 -115 43c-50 48 -50 110 -50 185v256h70v-256c0 -66 0 -111 30 -139c15 -14 38 -23 65 -23s50 9 65 23c30 28 30 73 30 139v256h70v-256c0 -66 0 -111 30 -139c15 -14 38 -23 65 -23s50 9 65 23
c30 28 30 73 30 139v256h70v-256c0 -75 0 -137 -50 -185c-27 -26 -68 -43 -115 -43c-57 0 -103 25 -130 70c-27 -45 -73 -70 -130 -70z" />
    <glyph glyph-name="Ycircumflex" unicode="&#x176;" horiz-adv-x="510" 
d="M239.28 856h78l95 -120h-66l-68 76l-68 -76h-66zM255 374c5 0 10 1 16 7c7 7 14 18 40 71l98 214h81l-115 -243c-36 -72 -47 -97 -83 -114v-309h-74v309c-36 17 -47 42 -83 114l-115 243h81l98 -214c26 -53 33 -64 40 -71c6 -6 11 -7 16 -7z" />
    <glyph glyph-name="ycircumflex" unicode="&#x177;" horiz-adv-x="418" 
d="M179 664h78l95 -120h-66l-68 76l-68 -76h-66zM15 478h73l94 -322c15 -52 22 -74 28 -83s16 -11 26 -12l90 417h72l-115 -519c-11 -49 -19 -80 -41 -105c-21 -24 -55 -43 -97 -43c-22 0 -45 5 -67 13l21 62c16 -6 31 -9 46 -9c19 0 32 6 43 17c14 14 20 37 34 102
c-28 4 -51 17 -65 35c-15 20 -19 38 -41 110z" />
    <glyph glyph-name="Ydieresis" unicode="&#x178;" horiz-adv-x="510" 
d="M368.28 834c28 0 47 -19 47 -47s-19 -47 -47 -47s-47 19 -47 47s19 47 47 47zM188.28 834c28 0 47 -19 47 -47s-19 -47 -47 -47s-47 19 -47 47s19 47 47 47zM255 374c5 0 10 1 16 7c7 7 14 18 40 71l98 214h81l-115 -243c-36 -72 -47 -97 -83 -114v-309h-74v309
c-36 17 -47 42 -83 114l-115 243h81l98 -214c26 -53 33 -64 40 -71c6 -6 11 -7 16 -7z" />
    <glyph glyph-name="Zacute" unicode="&#x179;" horiz-adv-x="530" 
d="M377 856l-87 -120h-66l75 120h78zM70 596v70h241c52 0 93 0 124 -28c19 -17 33 -40 33 -72c0 -45 -22 -70 -70 -126l-218 -258c-45 -53 -54 -63 -54 -82c0 -11 5 -18 11 -22c12 -8 26 -8 73 -8h260v-70h-261c-50 0 -93 0 -123 27c-21 19 -34 41 -34 73c0 41 18 64 66 121
l235 278c32 38 41 48 41 67c0 11 -5 18 -12 23c-11 7 -30 7 -72 7h-240z" />
    <glyph glyph-name="zacute" unicode="&#x17a;" horiz-adv-x="414" 
d="M318 665l-87 -120h-66l75 120h78zM57 412v66h192c26 0 56 0 86 -24c23 -18 34 -44 34 -70c0 -49 -34 -79 -84 -120l-112 -93c-46 -38 -68 -56 -68 -77c0 -9 4 -16 9 -20c10 -8 28 -8 71 -8h182v-66h-182c-53 0 -99 0 -130 37c-13 16 -20 36 -20 57c0 50 34 77 93 127
l111 93c40 33 60 49 60 70c0 12 -6 18 -12 22c-9 6 -28 6 -38 6h-192z" />
    <glyph glyph-name="Zdotaccent" unicode="&#x17b;" horiz-adv-x="530" 
d="M270 834c27 0 47 -19 47 -47s-20 -47 -47 -47s-47 19 -47 47s20 47 47 47zM70 596v70h241c52 0 93 0 124 -28c19 -17 33 -40 33 -72c0 -45 -22 -70 -70 -126l-218 -258c-45 -53 -54 -63 -54 -82c0 -11 5 -18 11 -22c12 -8 26 -8 73 -8h260v-70h-261c-50 0 -93 0 -123 27
c-21 19 -34 41 -34 73c0 41 18 64 66 121l235 278c32 38 41 48 41 67c0 11 -5 18 -12 23c-11 7 -30 7 -72 7h-240z" />
    <glyph glyph-name="zdotaccent" unicode="&#x17c;" horiz-adv-x="414" 
d="M211 643c27 0 47 -19 47 -47s-20 -47 -47 -47s-47 19 -47 47s20 47 47 47zM57 412v66h192c26 0 56 0 86 -24c23 -18 34 -44 34 -70c0 -49 -34 -79 -84 -120l-112 -93c-46 -38 -68 -56 -68 -77c0 -9 4 -16 9 -20c10 -8 28 -8 71 -8h182v-66h-182c-53 0 -99 0 -130 37
c-13 16 -20 36 -20 57c0 50 34 77 93 127l111 93c40 33 60 49 60 70c0 12 -6 18 -12 22c-9 6 -28 6 -38 6h-192z" />
    <glyph glyph-name="Zcaron" unicode="&#x17d;" horiz-adv-x="530" 
d="M231 736l-95 120h66l68 -76l68 76h66l-95 -120h-78zM70 596v70h241c52 0 93 0 124 -28c19 -17 33 -40 33 -72c0 -45 -22 -70 -70 -126l-218 -258c-45 -53 -54 -63 -54 -82c0 -11 5 -18 11 -22c12 -8 26 -8 73 -8h260v-70h-261c-50 0 -93 0 -123 27c-21 19 -34 41 -34 73
c0 41 18 64 66 121l235 278c32 38 41 48 41 67c0 11 -5 18 -12 23c-11 7 -30 7 -72 7h-240z" />
    <glyph glyph-name="zcaron" unicode="&#x17e;" horiz-adv-x="414" 
d="M172 545l-95 120h66l68 -76l68 76h66l-95 -120h-78zM57 412v66h192c26 0 56 0 86 -24c23 -18 34 -44 34 -70c0 -49 -34 -79 -84 -120l-112 -93c-46 -38 -68 -56 -68 -77c0 -9 4 -16 9 -20c10 -8 28 -8 71 -8h182v-66h-182c-53 0 -99 0 -130 37c-13 16 -20 36 -20 57
c0 50 34 77 93 127l111 93c40 33 60 49 60 70c0 12 -6 18 -12 22c-9 6 -28 6 -38 6h-192z" />
    <glyph glyph-name="longs" unicode="&#x17f;" horiz-adv-x="354" 
d="M256 672c25 0 46 -5 65 -10l-18 -64c-19 5 -35 8 -47 8c-21 0 -41 -7 -54 -23c-17 -21 -17 -47 -17 -101v-482h-70v416h-80v62h80v4c0 61 0 100 29 138c26 34 67 52 112 52z" />
    <glyph glyph-name="uni018F" unicode="&#x18f;" horiz-adv-x="580" 
d="M441 267h-302c0 -77 2 -130 48 -170c24 -21 59 -33 103 -33s79 12 103 33c46 40 48 93 48 170zM290 672c60 0 115 -18 154 -52c71 -62 71 -146 71 -233v-108c0 -88 0 -172 -72 -234c-42 -36 -98 -51 -153 -51s-111 15 -153 51c-72 62 -72 146 -72 234v54h376v54
c0 81 0 141 -49 183c-28 24 -68 32 -102 32c-49 0 -97 -15 -133 -44l-44 56c50 40 116 58 177 58z" />
    <glyph glyph-name="florin" unicode="&#x192;" horiz-adv-x="359" 
d="M256 672c25 0 46 -5 65 -10l-18 -64c-19 5 -35 8 -47 8c-21 0 -41 -7 -54 -23c-17 -21 -17 -47 -17 -101v-4h110v-62h-110v-437c0 -62 0 -95 -33 -130c-21 -22 -54 -38 -98 -38c-26 0 -52 6 -79 17l26 61c18 -8 37 -12 53 -12c20 0 39 6 50 21s11 33 11 81v437h-80v62h80
v4c0 61 0 100 29 138c26 34 67 52 112 52z" />
    <glyph glyph-name="uni01A9" unicode="&#x1a9;" horiz-adv-x="500" 
d="M299 328l-152 -258h293v-70h-380v50l172 292l-172 274v50h379v-70h-292l152 -238v-30z" />
    <glyph glyph-name="uni01CD" unicode="&#x1cd;" horiz-adv-x="594" 
d="M246 735l-95 120h66l68 -76l68 76h66l-95 -120h-78zM297 672c26 0 53 -9 73 -28c17 -16 25 -30 46 -110l143 -534h-76l-52 195h-268l-52 -195h-76l143 534c21 80 29 94 46 110c20 19 47 28 73 28zM182 265h230l-68 253c-14 54 -19 69 -26 76c-5 5 -13 8 -21 8
s-16 -3 -21 -8c-7 -7 -12 -22 -26 -76z" />
    <glyph glyph-name="uni01CE" unicode="&#x1ce;" horiz-adv-x="438" 
d="M179 545l-95 120h66l68 -76l68 76h66l-95 -120h-78zM388 200c0 -67 0 -113 -35 -154c-30 -35 -77 -52 -137 -52c-48 0 -89 10 -121 33c-33 23 -60 63 -60 115c0 53 27 92 59 115c47 34 103 34 142 34h82c0 31 0 71 -24 98c-17 19 -43 29 -81 29c-44 0 -88 -10 -130 -26
l-22 63c47 17 98 29 152 29c60 0 105 -19 135 -53c40 -45 40 -104 40 -157v-74zM318 200v29h-82c-34 0 -70 0 -98 -20c-18 -13 -33 -36 -33 -67c0 -28 14 -50 32 -63c19 -13 47 -19 79 -19c37 0 66 8 83 28c19 22 19 53 19 112z" />
    <glyph glyph-name="uni01CF" unicode="&#x1cf;" horiz-adv-x="224" 
d="M73 734l-95 120h66l68 -76l68 76h66l-95 -120h-78zM149 666v-666h-74v666h74z" />
    <glyph glyph-name="uni01D0" unicode="&#x1d0;" horiz-adv-x="214" 
d="M68 545l-95 120h66l68 -76l68 76h66l-95 -120h-78zM72 477h70v-477h-70v477z" />
    <glyph glyph-name="uni01D1" unicode="&#x1d1;" horiz-adv-x="584" 
d="M261 734l-95 120h66l68 -76l68 76h66l-95 -120h-78zM139 333c0 -102 0 -162 26 -205c24 -40 71 -64 127 -64s103 24 127 64c26 43 26 103 26 205s0 162 -26 205c-24 40 -71 64 -127 64s-103 -24 -127 -64c-26 -43 -26 -103 -26 -205zM65 333c0 118 0 181 36 240
c37 61 107 99 191 99s154 -38 191 -99c36 -59 36 -122 36 -240s0 -181 -36 -240c-37 -61 -107 -99 -191 -99s-154 38 -191 99c-36 59 -36 122 -36 240z" />
    <glyph glyph-name="uni01D2" unicode="&#x1d2;" 
d="M206 545l-95 120h66l68 -76l68 76h66l-95 -120h-78zM235 418c-44 0 -78 -18 -98 -48c-22 -33 -22 -80 -22 -131s0 -98 22 -131c20 -30 54 -48 98 -48s78 18 98 48c22 33 22 80 22 131s0 98 -22 131c-20 30 -54 48 -98 48zM235 484c71 0 129 -32 161 -85
c29 -48 29 -103 29 -160s0 -112 -29 -160c-32 -53 -90 -85 -161 -85s-129 32 -161 85c-29 48 -29 103 -29 160s0 112 29 160c32 53 90 85 161 85z" />
    <glyph glyph-name="uni01D3" unicode="&#x1d3;" horiz-adv-x="554" 
d="M246 734l-95 120h66l68 -76l68 76h66l-95 -120h-78zM70 666h74v-387c0 -81 0 -137 34 -175c24 -27 60 -40 99 -40s75 13 99 40c34 38 34 94 34 175v387h74v-387c0 -90 0 -162 -52 -221c-36 -41 -93 -64 -155 -64s-119 23 -155 64c-52 59 -52 131 -52 221v387z" />
    <glyph glyph-name="uni01D4" unicode="&#x1d4;" horiz-adv-x="460" 
d="M198 544l-95 120h66l68 -76l68 76h66l-95 -120h-78zM55 478h70v-256c0 -62 0 -104 29 -133c17 -17 43 -29 76 -29s59 12 76 29c29 29 29 71 29 133v256h70v-256c0 -70 0 -128 -47 -177c-24 -25 -67 -51 -128 -51s-104 26 -128 51c-47 49 -47 107 -47 177v256z" />
    <glyph glyph-name="uni01DD" unicode="&#x1dd;" horiz-adv-x="469" 
d="M215 -6c-47 0 -92 12 -124 40c-28 24 -46 57 -46 97s20 74 44 93c46 36 89 36 152 36h108c-1 55 -6 90 -27 117s-54 41 -103 41c-44 0 -86 -9 -124 -29l-29 60c48 24 101 35 153 35c72 0 126 -25 159 -67c38 -50 41 -104 41 -188c0 -64 -6 -118 -38 -161
c-33 -46 -93 -74 -166 -74zM215 60c39 0 81 11 106 42s27 80 27 96h-107c-48 0 -81 0 -103 -18c-13 -11 -23 -27 -23 -49c0 -21 10 -38 24 -49c19 -15 44 -22 76 -22z" />
    <glyph glyph-name="Gcaron" unicode="&#x1e6;" horiz-adv-x="580" 
d="M251 732l-95 120h66l68 -76l68 76h66l-95 -120h-78zM290 672c62 0 126 -21 175 -61l-43 -56c-36 30 -84 47 -132 47c-51.4434 0 -91.6279 -19.126 -116 -50c-35 -46 -35 -94 -35 -219s0 -173 35 -219c24.3721 -30.874 64.5566 -50 116 -50s91.6279 19.126 116 50
c30.3408 39.877 34.3799 81.2568 34.917 173h-137.917v70h212v-24c0 -129 0 -196 -48 -259c-35.1992 -45 -93.5283 -80 -177 -80s-141.801 35 -177 80c-48 63 -48 130 -48 259s0 196 48 259c35.1992 45 93.5283 80 177 80z" />
    <glyph glyph-name="gcaron" unicode="&#x1e7;" 
d="M191 545l-95 120h66l68 -76l68 76h66l-95 -120h-78zM232 418c-37 0 -67 -13 -85 -33c-32 -36 -32 -87 -32 -144c0 -56 0 -111 30 -146c18 -21 47 -35 85 -35s67 14 85 35c30 35 30 90 30 164c0 53 0 95 -24 123c-19 23 -53 36 -89 36zM232 484c46 0 104 -14 143 -60
c40 -47 40 -94 40 -175v-204c0 -71 0 -126 -46 -176c-32 -35 -83 -58 -149 -58c-49 0 -102 12 -146 36l29 60c33 -18 75 -30 117 -30c49 0 82 17 101 41c24 30 24 66 24 127v10c-27 -38 -71 -61 -120 -61c-59 0 -106 24 -135 59c-45 54 -45 120 -45 188c0 62 0 132 48 186
c31 34 79 57 139 57z" />
    <glyph glyph-name="uni01E8" unicode="&#x1e8;" horiz-adv-x="566" 
 />
    <glyph glyph-name="uni01E9" unicode="&#x1e9;" horiz-adv-x="458" 
 />
    <glyph glyph-name="uni01EA" unicode="&#x1ea;" horiz-adv-x="600" 
d="M371 3c-47 -12 -107 -40 -107 -99c0 -21 15 -37 36 -37c12 0 25 5 39 14l30 -48c-19 -11 -42 -22 -69 -22c-52 0 -92 41 -92 93c0 42 31 77 69 91c-61 5 -108 27 -143 59c-69 65 -69 146 -69 235v88c0 89 0 170 69 235c39 37 99 60 166 60s127 -23 166 -60
c69 -65 69 -146 69 -235v-88c0 -87 0 -170 -69 -235c-32 -30 -68 -44 -95 -51zM300 602c-43 0 -84 -12 -114 -40c-47 -44 -47 -104 -47 -185v-88c0 -81 0 -141 47 -185c30 -28 71 -40 114 -40s84 12 114 40c47 44 47 104 47 185v88c0 81 0 141 -47 185
c-30 28 -71 40 -114 40z" />
    <glyph glyph-name="uni01EB" unicode="&#x1eb;" horiz-adv-x="490" 
d="M245 418c-40 0 -75 -15 -95 -43c-25 -35 -25 -82 -25 -136s0 -101 25 -136c20 -28 55 -43 95 -43s75 15 95 43c25 35 25 82 25 136s0 101 -25 136c-20 28 -55 43 -95 43zM245 484c61 0 120 -24 155 -75s35 -112 35 -170s0 -119 -35 -170c-24 -35 -60 -58 -100 -68
c-47 -12 -91 -48 -91 -97c0 -21 15 -37 36 -37c12 0 25 5 39 14l30 -48c-19 -11 -42 -22 -69 -22c-52 0 -92 41 -92 93c0 43 26 72 66 92c-57 7 -99 31 -129 73c-35 51 -35 112 -35 170s0 119 35 170s94 75 155 75z" />
    <glyph glyph-name="uni01F4" unicode="&#x1f4;" horiz-adv-x="580" 
d="M410 852l-87 -120h-66l75 120h78zM290 672c62 0 126 -21 175 -61l-43 -56c-36 30 -84 47 -132 47c-51.4434 0 -91.6279 -19.126 -116 -50c-35 -46 -35 -94 -35 -219s0 -173 35 -219c24.3721 -30.874 64.5566 -50 116 -50s91.6279 19.126 116 50
c30.3408 39.877 34.3799 81.2568 34.917 173h-137.917v70h212v-24c0 -129 0 -196 -48 -259c-35.1992 -45 -93.5283 -80 -177 -80s-141.801 35 -177 80c-48 63 -48 130 -48 259s0 196 48 259c35.1992 45 93.5283 80 177 80z" />
    <glyph glyph-name="uni01F5" unicode="&#x1f5;" 
d="M337 666l-87 -120h-66l75 120h78zM232 418c-37 0 -67 -13 -85 -33c-32 -36 -32 -87 -32 -144c0 -56 0 -111 30 -146c18 -21 47 -35 85 -35s67 14 85 35c30 35 30 90 30 164c0 53 0 95 -24 123c-19 23 -53 36 -89 36zM232 484c46 0 104 -14 143 -60c40 -47 40 -94 40 -175
v-204c0 -71 0 -126 -46 -176c-32 -35 -83 -58 -149 -58c-49 0 -102 12 -146 36l29 60c33 -18 75 -30 117 -30c49 0 82 17 101 41c24 30 24 66 24 127v10c-27 -38 -71 -61 -120 -61c-59 0 -106 24 -135 59c-45 54 -45 120 -45 188c0 62 0 132 48 186c31 34 79 57 139 57z" />
    <glyph glyph-name="uni01F8" unicode="&#x1f8;" horiz-adv-x="554" 
d="M165 856h78l75 -120h-66zM277 672c62 0 119 -23 155 -64c52 -59 52 -131 52 -221v-387h-74v387c0 81 0 137 -34 175c-24 27 -60 40 -99 40s-75 -13 -99 -40c-34 -38 -34 -94 -34 -175v-387h-74v387c0 90 0 162 52 221c36 41 93 64 155 64z" />
    <glyph glyph-name="uni01F9" unicode="&#x1f9;" horiz-adv-x="460" 
d="M130 666h78l75 -120h-66zM230 484c61 0 104 -26 128 -51c47 -49 47 -107 47 -177v-256h-70v256c0 62 0 104 -29 133c-17 17 -43 29 -76 29s-59 -12 -76 -29c-29 -29 -29 -71 -29 -133v-256h-70v256c0 70 0 128 47 177c24 25 67 51 128 51z" />
    <glyph glyph-name="uni0200" unicode="&#x200;" horiz-adv-x="594" 
d="M259 856h72l75 -120h-64zM123 856h72l79 -120h-64zM297 672c26 0 53 -9 73 -28c17 -16 25 -30 46 -110l143 -534h-76l-52 195h-268l-52 -195h-76l143 534c21 80 29 94 46 110c20 19 47 28 73 28zM182 265h230l-68 253c-14 54 -19 69 -26 76c-5 5 -13 8 -21 8
s-16 -3 -21 -8c-7 -7 -12 -22 -26 -76z" />
    <glyph glyph-name="uni0201" unicode="&#x201;" horiz-adv-x="438" 
d="M192 666h72l75 -120h-64zM56 666h72l79 -120h-64zM388 200c0 -67 0 -113 -35 -154c-30 -35 -77 -52 -137 -52c-48 0 -89 10 -121 33c-33 23 -60 63 -60 115c0 53 27 92 59 115c47 34 103 34 142 34h82c0 31 0 71 -24 98c-17 19 -43 29 -81 29c-44 0 -88 -10 -130 -26
l-22 63c47 17 98 29 152 29c60 0 105 -19 135 -53c40 -45 40 -104 40 -157v-74zM318 200v29h-82c-34 0 -70 0 -98 -20c-18 -13 -33 -36 -33 -67c0 -28 14 -50 32 -63c19 -13 47 -19 79 -19c37 0 66 8 83 28c19 22 19 53 19 112z" />
    <glyph glyph-name="uni0202" unicode="&#x202;" horiz-adv-x="594" 
d="M409.998 736h-56c0 48.4805 -20 74 -68 74s-68 -25.5195 -68 -74h-56c0 77.4648 45 126 124 126s124 -48.5352 124 -126zM297 672c26 0 53 -9 73 -28c17 -16 25 -30 46 -110l143 -534h-76l-52 195h-268l-52 -195h-76l143 534c21 80 29 94 46 110c20 19 47 28 73 28z
M182 265h230l-68 253c-14 54 -19 69 -26 76c-5 5 -13 8 -21 8s-16 -3 -21 -8c-7 -7 -12 -22 -26 -76z" />
    <glyph glyph-name="uni0203" unicode="&#x203;" horiz-adv-x="438" 
d="M342.998 546h-56c0 48.4805 -20 74 -68 74s-68 -25.5195 -68 -74h-56c0 77.4648 45 126 124 126s124 -48.5352 124 -126zM388 200c0 -67 0 -113 -35 -154c-30 -35 -77 -52 -137 -52c-48 0 -89 10 -121 33c-33 23 -60 63 -60 115c0 53 27 92 59 115c47 34 103 34 142 34
h82c0 31 0 71 -24 98c-17 19 -43 29 -81 29c-44 0 -88 -10 -130 -26l-22 63c47 17 98 29 152 29c60 0 105 -19 135 -53c40 -45 40 -104 40 -157v-74zM318 200v29h-82c-34 0 -70 0 -98 -20c-18 -13 -33 -36 -33 -67c0 -28 14 -50 32 -63c19 -13 47 -19 79 -19
c37 0 66 8 83 28c19 22 19 53 19 112z" />
    <glyph glyph-name="uni0204" unicode="&#x204;" horiz-adv-x="510" 
d="M229 856h72l75 -120h-64zM93 856h72l79 -120h-64zM149 378l236 1v-70l-236 -1v-153c0 -41 0 -63 17 -76c12 -9 29 -9 66 -9h213v-70h-213c-44 0 -84 0 -117 28c-40 35 -40 79 -40 127v356c0 48 0 92 40 127c33 28 73 28 117 28h213v-70h-213c-37 0 -54 0 -66 -9
c-17 -13 -17 -35 -17 -76v-133z" />
    <glyph glyph-name="uni0205" unicode="&#x205;" horiz-adv-x="454" 
d="M218 666h72l75 -120h-64zM82 666h72l79 -120h-64zM139 102c20 -27 52 -42 100 -42c43 0 86 10 122 29l29 -60c-47 -24 -99 -35 -151 -35c-69 0 -124 25 -156 68c-38 52 -38 112 -38 177c0 78 0 124 36 174c32 45 92 71 163 71c50 0 90 -13 120 -37c30 -25 49 -62 50 -101
c0 -44 -22 -78 -50 -98c-42 -30 -85 -30 -156 -30h-92c0 -26 0 -85 23 -116zM344 346c-1 19 -11 39 -26 51c-17 14 -43 21 -74 21c-45 0 -81 -13 -103 -39c-25 -29 -25 -79 -25 -99h92c63 0 91 0 112 16c13 10 24 27 24 50z" />
    <glyph glyph-name="uni0206" unicode="&#x206;" horiz-adv-x="510" 
d="M379.998 736h-56c0 48.4805 -20 74 -68 74s-68 -25.5195 -68 -74h-56c0 77.4648 45 126 124 126s124 -48.5352 124 -126zM149 378l236 1v-70l-236 -1v-153c0 -41 0 -63 17 -76c12 -9 29 -9 66 -9h213v-70h-213c-44 0 -84 0 -117 28c-40 35 -40 79 -40 127v356
c0 48 0 92 40 127c33 28 73 28 117 28h213v-70h-213c-37 0 -54 0 -66 -9c-17 -13 -17 -35 -17 -76v-133z" />
    <glyph glyph-name="uni0207" unicode="&#x207;" horiz-adv-x="454" 
d="M368.998 546h-56c0 48.4805 -20 74 -68 74s-68 -25.5195 -68 -74h-56c0 77.4648 45 126 124 126s124 -48.5352 124 -126zM139 102c20 -27 52 -42 100 -42c43 0 86 10 122 29l29 -60c-47 -24 -99 -35 -151 -35c-69 0 -124 25 -156 68c-38 52 -38 112 -38 177
c0 78 0 124 36 174c32 45 92 71 163 71c50 0 90 -13 120 -37c30 -25 49 -62 50 -101c0 -44 -22 -78 -50 -98c-42 -30 -85 -30 -156 -30h-92c0 -26 0 -85 23 -116zM344 346c-1 19 -11 39 -26 51c-17 14 -43 21 -74 21c-45 0 -81 -13 -103 -39c-25 -29 -25 -79 -25 -99h92
c63 0 91 0 112 16c13 10 24 27 24 50z" />
    <glyph glyph-name="uni0208" unicode="&#x208;" horiz-adv-x="224" 
d="M86 855h72l75 -120h-64zM-50 855h72l79 -120h-64zM149 666v-666h-74v666h74z" />
    <glyph glyph-name="uni0209" unicode="&#x209;" horiz-adv-x="214" 
d="M81 666h72l75 -120h-64zM-55 666h72l79 -120h-64zM72 477h70v-477h-70v477z" />
    <glyph glyph-name="uni020A" unicode="&#x20a;" horiz-adv-x="224" 
d="M236.998 735h-56c0 48.4805 -20 74 -68 74s-68 -25.5195 -68 -74h-56c0 77.4648 45 126 124 126s124 -48.5352 124 -126zM149 666v-666h-74v666h74z" />
    <glyph glyph-name="uni020B" unicode="&#x20b;" horiz-adv-x="214" 
d="M231.998 546h-56c0 48.4805 -20 74 -68 74s-68 -25.5195 -68 -74h-56c0 77.4648 45 126 124 126s124 -48.5352 124 -126zM72 477h70v-477h-70v477z" />
    <glyph glyph-name="uni020C" unicode="&#x20c;" horiz-adv-x="584" 
d="M274 855h72l75 -120h-64zM138 855h72l79 -120h-64zM139 333c0 -102 0 -162 26 -205c24 -40 71 -64 127 -64s103 24 127 64c26 43 26 103 26 205s0 162 -26 205c-24 40 -71 64 -127 64s-103 -24 -127 -64c-26 -43 -26 -103 -26 -205zM65 333c0 118 0 181 36 240
c37 61 107 99 191 99s154 -38 191 -99c36 -59 36 -122 36 -240s0 -181 -36 -240c-37 -61 -107 -99 -191 -99s-154 38 -191 99c-36 59 -36 122 -36 240z" />
    <glyph glyph-name="uni020D" unicode="&#x20d;" 
d="M219 666h72l75 -120h-64zM83 666h72l79 -120h-64zM235 418c-44 0 -78 -18 -98 -48c-22 -33 -22 -80 -22 -131s0 -98 22 -131c20 -30 54 -48 98 -48s78 18 98 48c22 33 22 80 22 131s0 98 -22 131c-20 30 -54 48 -98 48zM235 484c71 0 129 -32 161 -85
c29 -48 29 -103 29 -160s0 -112 -29 -160c-32 -53 -90 -85 -161 -85s-129 32 -161 85c-29 48 -29 103 -29 160s0 112 29 160c32 53 90 85 161 85z" />
    <glyph glyph-name="uni020E" unicode="&#x20e;" horiz-adv-x="584" 
d="M424.998 735h-56c0 48.4805 -20 74 -68 74s-68 -25.5195 -68 -74h-56c0 77.4648 45 126 124 126s124 -48.5352 124 -126zM139 333c0 -102 0 -162 26 -205c24 -40 71 -64 127 -64s103 24 127 64c26 43 26 103 26 205s0 162 -26 205c-24 40 -71 64 -127 64
s-103 -24 -127 -64c-26 -43 -26 -103 -26 -205zM65 333c0 118 0 181 36 240c37 61 107 99 191 99s154 -38 191 -99c36 -59 36 -122 36 -240s0 -181 -36 -240c-37 -61 -107 -99 -191 -99s-154 38 -191 99c-36 59 -36 122 -36 240z" />
    <glyph glyph-name="uni020F" unicode="&#x20f;" 
d="M369.998 546h-56c0 48.4805 -20 74 -68 74s-68 -25.5195 -68 -74h-56c0 77.4648 45 126 124 126s124 -48.5352 124 -126zM235 418c-44 0 -78 -18 -98 -48c-22 -33 -22 -80 -22 -131s0 -98 22 -131c20 -30 54 -48 98 -48s78 18 98 48c22 33 22 80 22 131s0 98 -22 131
c-20 30 -54 48 -98 48zM235 484c71 0 129 -32 161 -85c29 -48 29 -103 29 -160s0 -112 -29 -160c-32 -53 -90 -85 -161 -85s-129 32 -161 85c-29 48 -29 103 -29 160s0 112 29 160c32 53 90 85 161 85z" />
    <glyph glyph-name="uni0210" unicode="&#x210;" horiz-adv-x="550" 
d="M229 856h72l75 -120h-64zM93 856h72l79 -120h-64zM227 596c-32 0 -49 0 -61 -9c-17 -13 -17 -35 -17 -76v-185h69c75 0 121 0 159 35c26 24 39 62 39 100s-13 76 -39 100c-38 35 -85 35 -150 35zM227 666c69 0 143 0 202 -55c37 -35 61 -87 61 -150
c0 -87 -46 -153 -108 -182l118 -279h-80l-108 259c-22 -3 -44 -3 -94 -3h-69v-256h-74v511c0 48 0 92 40 127c33 28 73 28 112 28z" />
    <glyph glyph-name="uni0211" unicode="&#x211;" horiz-adv-x="338" 
d="M131.5 664h72l75 -120h-64zM-4.5 664h72l79 -120h-64zM238 484c25 0 48 -4 68 -11l-21 -63c-14 5 -30 8 -47 8c-36 0 -70 -13 -89 -36c-24 -28 -24 -70 -24 -133v-249h-70v249c0 81 0 128 40 175c39 46 97 60 143 60z" />
    <glyph glyph-name="uni0212" unicode="&#x212;" horiz-adv-x="550" 
d="M379.998 736h-56c0 48.4805 -20 74 -68 74s-68 -25.5195 -68 -74h-56c0 77.4648 45 126 124 126s124 -48.5352 124 -126zM227 596c-32 0 -49 0 -61 -9c-17 -13 -17 -35 -17 -76v-185h69c75 0 121 0 159 35c26 24 39 62 39 100s-13 76 -39 100c-38 35 -85 35 -150 35z
M227 666c69 0 143 0 202 -55c37 -35 61 -87 61 -150c0 -87 -46 -153 -108 -182l118 -279h-80l-108 259c-22 -3 -44 -3 -94 -3h-69v-256h-74v511c0 48 0 92 40 127c33 28 73 28 112 28z" />
    <glyph glyph-name="uni0213" unicode="&#x213;" horiz-adv-x="338" 
d="M304.5 544h-56c0 48.4805 -20 74 -68 74s-68 -25.5195 -68 -74h-56c0 77.4648 45 126 124 126s124 -48.5352 124 -126zM238 484c25 0 48 -4 68 -11l-21 -63c-14 5 -30 8 -47 8c-36 0 -70 -13 -89 -36c-24 -28 -24 -70 -24 -133v-249h-70v249c0 81 0 128 40 175
c39 46 97 60 143 60z" />
    <glyph glyph-name="uni0214" unicode="&#x214;" horiz-adv-x="554" 
d="M259 855h72l75 -120h-64zM123 855h72l79 -120h-64zM70 666h74v-387c0 -81 0 -137 34 -175c24 -27 60 -40 99 -40s75 13 99 40c34 38 34 94 34 175v387h74v-387c0 -90 0 -162 -52 -221c-36 -41 -93 -64 -155 -64s-119 23 -155 64c-52 59 -52 131 -52 221v387z" />
    <glyph glyph-name="uni0215" unicode="&#x215;" horiz-adv-x="460" 
d="M211 665h72l75 -120h-64zM75 665h72l79 -120h-64zM55 478h70v-256c0 -62 0 -104 29 -133c17 -17 43 -29 76 -29s59 12 76 29c29 29 29 71 29 133v256h70v-256c0 -70 0 -128 -47 -177c-24 -25 -67 -51 -128 -51s-104 26 -128 51c-47 49 -47 107 -47 177v256z" />
    <glyph glyph-name="uni0216" unicode="&#x216;" horiz-adv-x="554" 
d="M409.998 735h-56c0 48.4805 -20 74 -68 74s-68 -25.5195 -68 -74h-56c0 77.4648 45 126 124 126s124 -48.5352 124 -126zM70 666h74v-387c0 -81 0 -137 34 -175c24 -27 60 -40 99 -40s75 13 99 40c34 38 34 94 34 175v387h74v-387c0 -90 0 -162 -52 -221
c-36 -41 -93 -64 -155 -64s-119 23 -155 64c-52 59 -52 131 -52 221v387z" />
    <glyph glyph-name="uni0217" unicode="&#x217;" horiz-adv-x="460" 
d="M361.998 545h-56c0 48.4805 -20 74 -68 74s-68 -25.5195 -68 -74h-56c0 77.4648 45 126 124 126s124 -48.5352 124 -126zM55 478h70v-256c0 -62 0 -104 29 -133c17 -17 43 -29 76 -29s59 12 76 29c29 29 29 71 29 133v256h70v-256c0 -70 0 -128 -47 -177
c-24 -25 -67 -51 -128 -51s-104 26 -128 51c-47 49 -47 107 -47 177v256z" />
    <glyph glyph-name="uni0218" unicode="&#x218;" horiz-adv-x="510" 
d="M294 -109c0 -14 -6 -27 -11 -39l-36 -81h-45l26 78c-16 6 -28 21 -28 42c0 27 21 46 47 46s47 -19 47 -46zM247 672c71 0 138 -23 186 -60l-44 -56c-34 27 -86 46 -142 46c-89 0 -124 -51 -124 -99c0 -30 15 -59 40 -79c24 -20 63 -32 96 -42c44 -13 93 -27 135 -63
c35 -30 66 -81 66 -139c0 -91 -69 -186 -213 -186c-74 0 -148 24 -204 72l47 54c43 -38 101 -56 157 -56c100 0 139 62 139 116c0 31 -16 66 -44 89c-27 23 -68 35 -114 49c-37 11 -76 22 -117 56c-34 28 -62 76 -62 127c0 95 74 171 198 171z" />
    <glyph glyph-name="uni0219" unicode="&#x219;" horiz-adv-x="408" 
d="M256 -109c0 -14 -6 -27 -11 -39l-36 -81h-45l26 78c-16 6 -28 21 -28 42c0 27 21 46 47 46s47 -19 47 -46zM345 451l-26 -61c-38 18 -80 28 -120 28c-25 0 -43 -4 -60 -14s-29 -28 -29 -50c0 -21 11 -38 25 -49c20 -16 41 -21 77 -29s69 -17 97 -37
c31 -22 59 -59 59 -109c0 -45 -23 -82 -54 -104s-69 -32 -115 -32c-54 0 -110 11 -161 35l28 60c41 -19 87 -29 133 -29c29 0 54 5 73 19s26 34 26 51c0 23 -12 42 -28 54c-22 16 -47 22 -79 29s-68 16 -98 39s-53 59 -53 102c0 46 25 81 54 101s64 29 105 29
c51 0 101 -12 146 -33z" />
    <glyph glyph-name="uni021A" unicode="&#x21a;" horiz-adv-x="530" 
d="M327 -109c0 -14 -6 -27 -11 -39l-36 -81h-45l26 78c-16 6 -28 21 -28 42c0 27 21 46 47 46s47 -19 47 -46zM40 666h450v-70h-188v-596h-74v596h-188v70z" />
    <glyph glyph-name="uni021B" unicode="&#x21b;" horiz-adv-x="314" 
d="M223 -109c0 -14 -6 -27 -11 -39l-36 -81h-45l26 78c-16 6 -28 21 -28 42c0 27 21 46 47 46s47 -19 47 -46zM130 170c0 -54 0 -72 14 -90c10 -12 25 -20 47 -20c19 0 42 7 65 19l30 -59c-27 -14 -59 -26 -95 -26c-44 0 -81 18 -103 46c-28 35 -28 73 -28 130v421h70v-113
h120v-62h-120v-246z" />
    <glyph glyph-name="uni021E" unicode="&#x21e;" horiz-adv-x="590" 
d="M256 734l-95 120h66l68 -76l68 76h66l-95 -120h-78zM75 666h74v-288h292v288h74v-666h-74v308h-292v-308h-74v666z" />
    <glyph glyph-name="uni021F" unicode="&#x21f;" 
d="M61 734l-95 120h66l68 -76l68 76h66l-95 -120h-78zM65 666h70v-238c23 33 63 56 110 56c59 0 101 -26 124 -51c46 -49 46 -107 46 -177v-256h-70v256c0 62 0 104 -29 133c-17 17 -43 29 -76 29s-59 -12 -76 -29c-29 -29 -29 -71 -29 -133v-256h-70v666z" />
    <glyph glyph-name="uni0226" unicode="&#x226;" horiz-adv-x="594" 
d="M285 833c27 0 47 -19 47 -47s-20 -47 -47 -47s-47 19 -47 47s20 47 47 47zM297 672c26 0 53 -9 73 -28c17 -16 25 -30 46 -110l143 -534h-76l-52 195h-268l-52 -195h-76l143 534c21 80 29 94 46 110c20 19 47 28 73 28zM182 265h230l-68 253c-14 54 -19 69 -26 76
c-5 5 -13 8 -21 8s-16 -3 -21 -8c-7 -7 -12 -22 -26 -76z" />
    <glyph glyph-name="uni0227" unicode="&#x227;" horiz-adv-x="438" 
d="M218 643c27 0 47 -19 47 -47s-20 -47 -47 -47s-47 19 -47 47s20 47 47 47zM388 200c0 -67 0 -113 -35 -154c-30 -35 -77 -52 -137 -52c-48 0 -89 10 -121 33c-33 23 -60 63 -60 115c0 53 27 92 59 115c47 34 103 34 142 34h82c0 31 0 71 -24 98c-17 19 -43 29 -81 29
c-44 0 -88 -10 -130 -26l-22 63c47 17 98 29 152 29c60 0 105 -19 135 -53c40 -45 40 -104 40 -157v-74zM318 200v29h-82c-34 0 -70 0 -98 -20c-18 -13 -33 -36 -33 -67c0 -28 14 -50 32 -63c19 -13 47 -19 79 -19c37 0 66 8 83 28c19 22 19 53 19 112z" />
    <glyph glyph-name="uni0228" unicode="&#x228;" horiz-adv-x="500" 
d="M192 -128c14 -6 29 -9 41 -9c9 0 22 0 36 7c12 7 20 17 20 30c0 10 -5 20 -16 26c-8 4 -16 4 -25 4h-37l22 70h-1c-44 0 -84 0 -117 28c-40 35 -40 79 -40 127v356c0 48 0 92 40 127c33 28 73 28 117 28h203v-70h-203c-37 0 -54 0 -66 -9c-17 -13 -17 -35 -17 -76v-133
l236 1v-70l-236 -1v-153c0 -41 0 -63 17 -76c12 -9 29 -9 66 -9h203v-70h-158l-11 -37c21 0 37 0 56 -13c15 -11 23 -29 23 -49c0 -28 -15 -50 -31 -64c-18 -15 -47 -26 -81 -26c-18 0 -38 3 -57 11z" />
    <glyph glyph-name="uni0229" unicode="&#x229;" horiz-adv-x="469" 
d="M186 -128c14 -6 29 -9.00195 41 -9.00195c9 0 22 0 36 7c12 7 20 17 20 30c0 10 -5 20 -16 26c-8 4 -16 4 -25 4h-37l20.4336 65.0176c-59.8018 5.07617 -105.301 28.9053 -134.434 65.9834c-38 50 -41 104 -41 188c0 64 6 118 38 161c33 46 93 74 166 74
c47 0 92 -12 124 -40c28 -24 46 -57 46 -97s-20 -74 -44 -93c-46 -36 -89 -36 -152 -36h-108c1 -55 6 -90 27 -117s54 -41 103 -41c44 0 86 9 124 29l29 -60c-42.0508 -21.0254 -87.9395 -32.0732 -133.632 -34.4883l-9.36816 -31.5107c21 0 37 0 56 -13
c15 -11 23 -29 23 -49c0 -28 -15 -50 -31 -64c-18 -15 -47 -26 -81 -26c-18 0 -38 3 -57 11zM254 417.998c-39 0 -81 -11 -106 -42s-27 -80 -27 -96h107c48 0 81 0 103 18c13 11 23 27 23 49c0 21 -10 38 -24 49c-19 15 -44 22 -76 22z" />
    <glyph glyph-name="uni022E" unicode="&#x22e;" horiz-adv-x="584" 
d="M300 832c27 0 47 -19 47 -47s-20 -47 -47 -47s-47 19 -47 47s20 47 47 47zM139 333c0 -102 0 -162 26 -205c24 -40 71 -64 127 -64s103 24 127 64c26 43 26 103 26 205s0 162 -26 205c-24 40 -71 64 -127 64s-103 -24 -127 -64c-26 -43 -26 -103 -26 -205zM65 333
c0 118 0 181 36 240c37 61 107 99 191 99s154 -38 191 -99c36 -59 36 -122 36 -240s0 -181 -36 -240c-37 -61 -107 -99 -191 -99s-154 38 -191 99c-36 59 -36 122 -36 240z" />
    <glyph glyph-name="uni022F" unicode="&#x22f;" 
d="M245 643c27 0 47 -19 47 -47s-20 -47 -47 -47s-47 19 -47 47s20 47 47 47zM235 418c-44 0 -78 -18 -98 -48c-22 -33 -22 -80 -22 -131s0 -98 22 -131c20 -30 54 -48 98 -48s78 18 98 48c22 33 22 80 22 131s0 98 -22 131c-20 30 -54 48 -98 48zM235 484
c71 0 129 -32 161 -85c29 -48 29 -103 29 -160s0 -112 -29 -160c-32 -53 -90 -85 -161 -85s-129 32 -161 85c-29 48 -29 103 -29 160s0 112 29 160c32 53 90 85 161 85z" />
    <glyph glyph-name="uni0232" unicode="&#x232;" horiz-adv-x="510" 
d="M152.28 801h250v-56h-250v56zM255 374c5 0 10 1 16 7c7 7 14 18 40 71l98 214h81l-115 -243c-36 -72 -47 -97 -83 -114v-309h-74v309c-36 17 -47 42 -83 114l-115 243h81l98 -214c26 -53 33 -64 40 -71c6 -6 11 -7 16 -7z" />
    <glyph glyph-name="uni0233" unicode="&#x233;" horiz-adv-x="418" 
d="M93 600h250v-56h-250v56zM15 478h73l94 -322c15 -52 22 -74 28 -83s16 -11 26 -12l90 417h72l-115 -519c-11 -49 -19 -80 -41 -105c-21 -24 -55 -43 -97 -43c-22 0 -45 5 -67 13l21 62c16 -6 31 -9 46 -9c19 0 32 6 43 17c14 14 20 37 34 102c-28 4 -51 17 -65 35
c-15 20 -19 38 -41 110z" />
    <glyph glyph-name="uni0237" unicode="&#x237;" horiz-adv-x="210" 
d="M70 478h70v-499c0 -62 0 -95 -33 -130c-21 -22 -54 -38 -98 -38c-26 0 -52 6 -79 17l26 61c18 -8 37 -12 53 -12c20 0 39 6 50 21s11 33 11 81v499z" />
    <glyph glyph-name="uni0259" unicode="&#x259;" horiz-adv-x="469" 
d="M215 -6c-47 0 -92 12 -124 40c-28 24 -46 57 -46 97s20 74 44 93c46 36 89 36 152 36h108c-1 55 -6 90 -27 117s-54 41 -103 41c-44 0 -86 -9 -124 -29l-29 60c48 24 101 35 153 35c72 0 126 -25 159 -67c38 -50 41 -104 41 -188c0 -64 -6 -118 -38 -161
c-33 -46 -93 -74 -166 -74zM215 60c39 0 81 11 106 42s27 80 27 96h-107c-48 0 -81 0 -103 -18c-13 -11 -23 -27 -23 -49c0 -21 10 -38 24 -49c19 -15 44 -22 76 -22z" />
    <glyph glyph-name="uni02BC" unicode="&#x2bc;" horiz-adv-x="202" 
d="M50 621c0 31 21 51 51 51s51 -20 51 -51c0 -13 -4 -25 -8 -37l-46 -128h-45l29 117c-19 6 -32 25 -32 48z" />
    <glyph glyph-name="circumflex" unicode="&#x2c6;" horiz-adv-x="368" 
d="M145 666h78l95 -120h-66l-68 76l-68 -76h-66z" />
    <glyph glyph-name="caron" unicode="&#x2c7;" horiz-adv-x="368" 
d="M145 546l-95 120h66l68 -76l68 76h66l-95 -120h-78z" />
    <glyph glyph-name="uni02C9" unicode="&#x2c9;" horiz-adv-x="350" 
d="M50 612h250v-56h-250v56z" />
    <glyph glyph-name="uni02CA" unicode="&#x2ca;" horiz-adv-x="253" 
d="M203 666l-87 -120h-66l75 120h78z" />
    <glyph glyph-name="uni02CB" unicode="&#x2cb;" horiz-adv-x="253" 
d="M50 666h78l75 -120h-66z" />
    <glyph glyph-name="breve" unicode="&#x2d8;" horiz-adv-x="348" 
d="M50 666h56c0 -48.4805 20 -74 68 -74s68 25.5195 68 74h56c0 -77.4648 -45 -126 -124 -126s-124 48.5352 -124 126z" />
    <glyph glyph-name="dotaccent" unicode="&#x2d9;" horiz-adv-x="194" 
d="M97 644c27 0 47 -19 47 -47s-20 -47 -47 -47s-47 19 -47 47s20 47 47 47z" />
    <glyph glyph-name="ring" unicode="&#x2da;" horiz-adv-x="280" 
d="M140 693c52 0 87 -34 87 -87c0 -52 -35 -87 -87 -87c-51 0 -87 35 -87 87c0 53 36 87 87 87zM140 653c-27 0 -44 -20 -44 -47s17 -46 44 -46s45 19 45 46s-18 47 -45 47z" />
    <glyph glyph-name="ogonek" unicode="&#x2db;" horiz-adv-x="266" 
d="M50 -96c0 68 76 101 131 116l30 -20c-46 -12 -105 -39 -105 -96c0 -21 15 -37 36 -37c12 0 25 5 39 14l30 -48c-19 -11 -42 -22 -69 -22c-52 0 -92 41 -92 93z" />
    <glyph glyph-name="tilde" unicode="&#x2dc;" horiz-adv-x="396" 
d="M258 550c-29 0 -54 12 -73 22c-15 7 -29 16 -47 16s-32 -13 -32 -32h-56c0 48 39 84 88 84c30 0 54 -12 73 -22c15 -7 29 -16 47 -16s32 13 32 32h56c0 -48 -39 -84 -88 -84z" />
    <glyph glyph-name="hungarumlaut" unicode="&#x2dd;" horiz-adv-x="387" 
d="M195 666l-83 -120h-62l75 120h70zM337 666l-87 -120h-62l79 120h70z" />
    <glyph glyph-name="gravecomb" unicode="&#x300;" horiz-adv-x="253" 
d="M50 666h78l75 -120h-66z" />
    <glyph glyph-name="acutecomb" unicode="&#x301;" horiz-adv-x="253" 
d="M203 666l-87 -120h-66l75 120h78z" />
    <glyph glyph-name="uni030F" unicode="&#x30f;" horiz-adv-x="383" 
d="M186 666h72l75 -120h-64zM50 666h72l79 -120h-64z" />
    <glyph glyph-name="uni0311" unicode="&#x311;" horiz-adv-x="348" 
d="M298 546h-56c0 48.4805 -20 74 -68 74s-68 -25.5195 -68 -74h-56c0 77.4648 45 126 124 126s124 -48.5352 124 -126z" />
    <glyph glyph-name="uni0312" unicode="&#x312;" horiz-adv-x="194" 
d="M50 598c0 14 6 27 11 39l36 81h45l-26 -78c16 -6 28 -21 28 -42c0 -27 -21 -46 -47 -46s-47 19 -47 46z" />
    <glyph glyph-name="uni0315" unicode="&#x315;" horiz-adv-x="202" 
d="M50 621c0 31 21 51 51 51s51 -20 51 -51c0 -13 -4 -25 -8 -37l-46 -129h-45l29 118c-19 6 -32 25 -32 48z" />
    <glyph glyph-name="dotbelowcomb" unicode="&#x323;" horiz-adv-x="194" 
d="M97 -73c27 0 47 -19 47 -47s-20 -47 -47 -47s-47 19 -47 47s20 47 47 47z" />
    <glyph glyph-name="uni0326" unicode="&#x326;" horiz-adv-x="194" 
d="M144 -109c0 -14 -6 -27 -11 -39l-36 -81h-45l26 78c-16 6 -28 21 -28 42c0 27 21 46 47 46s47 -19 47 -46z" />
    <glyph glyph-name="uni03A9" unicode="&#x3a9;" horiz-adv-x="600" 
d="M300 673c131 0 206 -54 228 -156c6 -25 7 -49 7 -79v-129c0 -96 -23 -161 -91 -239h91v-70h-185v50c93 107 111 176 111 259v129c0 32 -2 56 -10 80c-19 57 -65 85 -151 85s-132 -28 -151 -85c-8 -25 -10 -48 -10 -80v-129c0 -83 18 -152 111 -259v-50h-185v70h91
c-68 78 -91 143 -91 239v129c0 30 1 55 7 80c23 101 97 155 228 155z" />
    <glyph glyph-name="beta" unicode="&#x3b2;" horiz-adv-x="530" 
d="M270 66c81 0 125 52 125 123c0 63 -51 122 -135 122h-65v64h65c79 0 116 54 116 113c0 65 -41 113 -116 113c-81 0 -125 -55 -125 -127v-408h135zM135 0v-185h-70v659c0 108 70 193 195 193c120 0 186 -77 186 -180c0 -62 -33 -116 -77 -143c60 -21 96 -86 96 -155
c0 -107 -70 -189 -195 -189h-135z" />
    <glyph glyph-name="uni03BC" unicode="&#x3bc;" horiz-adv-x="485" 
d="M65 478h70v-239c0 -61 0 -105 23 -138c21 -30 56 -41 87 -41s66 11 87 41c23 33 23 77 23 138v239h70v-239c0 -71 0 -129 -36 -178c-30 -41 -80 -67 -139 -67c-46 0 -85 20 -115 51v-228h-70v661z" />
    <glyph glyph-name="pi" unicode="&#x3c0;" horiz-adv-x="520" 
d="M45 477h430v-66h-60v-411h-70v411h-170v-411h-70v411h-60v66z" />
    <glyph glyph-name="uni1E0C" unicode="&#x1e0c;" horiz-adv-x="570" 
d="M277 -73c27 0 47 -19 47 -47s-20 -47 -47 -47s-47 19 -47 47s20 47 47 47zM212 666c65 0 166 0 235 -69c68 -68 68 -162 68 -264s0 -196 -68 -264c-69 -69 -170 -69 -235 -69c-24 0 -64 0 -97 28c-40 35 -40 79 -40 127v356c0 48 0 92 40 127c33 28 73 28 97 28zM212 596
c-17 0 -34 0 -46 -9c-17 -13 -17 -35 -17 -76v-356c0 -41 0 -63 17 -76c12 -9 29 -9 46 -9c56 0 134 0 181 47c48 48 48 120 48 216s0 168 -48 216c-47 47 -125 47 -181 47z" />
    <glyph glyph-name="uni1E0D" unicode="&#x1e0d;" 
d="M209 -73c27 0 47 -19 47 -47s-20 -47 -47 -47s-47 19 -47 47s20 47 47 47zM225 484c49 0 93 -23 120 -61v243h70v-434c0 -75 0 -125 -34 -172c-28 -39 -78 -66 -141 -66c-60 0 -108 24 -139 55c-56 57 -56 127 -56 188c0 68 0 134 45 188c29 35 76 59 135 59zM345 219
c0 74 0 129 -30 164c-18 21 -47 35 -85 35s-67 -14 -85 -35c-30 -35 -30 -90 -30 -146c0 -51 0 -103 35 -141c22 -24 56 -36 90 -36c31 0 61 10 81 34c24 29 24 72 24 125z" />
    <glyph glyph-name="uni1E24" unicode="&#x1e24;" horiz-adv-x="590" 
d="M295 -73c27 0 47 -19 47 -47s-20 -47 -47 -47s-47 19 -47 47s20 47 47 47zM75 666h74v-288h292v288h74v-666h-74v308h-292v-308h-74v666z" />
    <glyph glyph-name="uni1E25" unicode="&#x1e25;" 
d="M242 -73c27 0 47 -19 47 -47s-20 -47 -47 -47s-47 19 -47 47s20 47 47 47zM65 666h70v-238c23 33 63 56 110 56c59 0 101 -26 124 -51c46 -49 46 -107 46 -177v-256h-70v256c0 62 0 104 -29 133c-17 17 -43 29 -76 29s-59 -12 -76 -29c-29 -29 -29 -71 -29 -133v-256h-70
v666z" />
    <glyph glyph-name="uni1E36" unicode="&#x1e36;" horiz-adv-x="480" 
d="M265 -73c27 0 47 -19 47 -47s-20 -47 -47 -47s-47 19 -47 47s20 47 47 47zM75 666h74v-511c0 -41 0 -63 17 -76c12 -9 29 -9 66 -9h193v-70h-193c-44 0 -84 0 -117 28c-40 35 -40 79 -40 127v511z" />
    <glyph glyph-name="uni1E44" unicode="&#x1e44;" horiz-adv-x="554" 
d="M272 834c27 0 47 -19 47 -47s-20 -47 -47 -47s-47 19 -47 47s20 47 47 47zM277 672c62 0 119 -23 155 -64c52 -59 52 -131 52 -221v-387h-74v387c0 81 0 137 -34 175c-24 27 -60 40 -99 40s-75 -13 -99 -40c-34 -38 -34 -94 -34 -175v-387h-74v387c0 90 0 162 52 221
c36 41 93 64 155 64z" />
    <glyph glyph-name="uni1E45" unicode="&#x1e45;" horiz-adv-x="460" 
d="M237 644c27 0 47 -19 47 -47s-20 -47 -47 -47s-47 19 -47 47s20 47 47 47zM230 484c61 0 104 -26 128 -51c47 -49 47 -107 47 -177v-256h-70v256c0 62 0 104 -29 133c-17 17 -43 29 -76 29s-59 -12 -76 -29c-29 -29 -29 -71 -29 -133v-256h-70v256c0 70 0 128 47 177
c24 25 67 51 128 51z" />
    <glyph glyph-name="uni1E5A" unicode="&#x1e5a;" horiz-adv-x="550" 
d="M277 -73c27 0 47 -19 47 -47s-20 -47 -47 -47s-47 19 -47 47s20 47 47 47zM227 596c-32 0 -49 0 -61 -9c-17 -13 -17 -35 -17 -76v-185h69c75 0 121 0 159 35c26 24 39 62 39 100s-13 76 -39 100c-38 35 -85 35 -150 35zM227 666c69 0 143 0 202 -55
c37 -35 61 -87 61 -150c0 -87 -46 -153 -108 -182l118 -279h-80l-108 259c-22 -3 -44 -3 -94 -3h-69v-256h-74v511c0 48 0 92 40 127c33 28 73 28 112 28z" />
    <glyph glyph-name="uni1E5B" unicode="&#x1e5b;" horiz-adv-x="338" 
d="M90 -73c27 0 47 -19 47 -47s-20 -47 -47 -47s-47 19 -47 47s20 47 47 47zM238 484c25 0 48 -4 68 -11l-21 -63c-14 5 -30 8 -47 8c-36 0 -70 -13 -89 -36c-24 -28 -24 -70 -24 -133v-249h-70v249c0 81 0 128 40 175c39 46 97 60 143 60z" />
    <glyph glyph-name="uni1E62" unicode="&#x1e62;" horiz-adv-x="510" 
d="M250 -73c27 0 47 -19 47 -47s-20 -47 -47 -47s-47 19 -47 47s20 47 47 47zM247 672c71 0 138 -23 186 -60l-44 -56c-34 27 -86 46 -142 46c-89 0 -124 -51 -124 -99c0 -30 15 -59 40 -79c24 -20 63 -32 96 -42c44 -13 93 -27 135 -63c35 -30 66 -81 66 -139
c0 -91 -69 -186 -213 -186c-74 0 -148 24 -204 72l47 54c43 -38 101 -56 157 -56c100 0 139 62 139 116c0 31 -16 66 -44 89c-27 23 -68 35 -114 49c-37 11 -76 22 -117 56c-34 28 -62 76 -62 127c0 95 74 171 198 171z" />
    <glyph glyph-name="uni1E63" unicode="&#x1e63;" horiz-adv-x="408" 
d="M210 -73c27 0 47 -19 47 -47s-20 -47 -47 -47s-47 19 -47 47s20 47 47 47zM345 451l-26 -61c-38 18 -80 28 -120 28c-25 0 -43 -4 -60 -14s-29 -28 -29 -50c0 -21 11 -38 25 -49c20 -16 41 -21 77 -29s69 -17 97 -37c31 -22 59 -59 59 -109c0 -45 -23 -82 -54 -104
s-69 -32 -115 -32c-54 0 -110 11 -161 35l28 60c41 -19 87 -29 133 -29c29 0 54 5 73 19s26 34 26 51c0 23 -12 42 -28 54c-22 16 -47 22 -79 29s-68 16 -98 39s-53 59 -53 102c0 46 25 81 54 101s64 29 105 29c51 0 101 -12 146 -33z" />
    <glyph glyph-name="uni1E6C" unicode="&#x1e6c;" horiz-adv-x="530" 
d="M280 -73c27 0 47 -19 47 -47s-20 -47 -47 -47s-47 19 -47 47s20 47 47 47zM40 666h450v-70h-188v-596h-74v596h-188v70z" />
    <glyph glyph-name="uni1E6D" unicode="&#x1e6d;" horiz-adv-x="314" 
d="M176 -73c27 0 47 -19 47 -47s-20 -47 -47 -47s-47 19 -47 47s20 47 47 47zM130 170c0 -54 0 -72 14 -90c10 -12 25 -20 47 -20c19 0 42 7 65 19l30 -59c-27 -14 -59 -26 -95 -26c-44 0 -81 18 -103 46c-28 35 -28 73 -28 130v421h70v-113h120v-62h-120v-246z" />
    <glyph glyph-name="Wgrave" unicode="&#x1e80;" horiz-adv-x="806" 
d="M316 856h78l75 -120h-66zM70 666h74v-416c0 -76 0 -118 28 -152c18 -22 48 -34 83 -34s65 12 83 34c28 34 28 76 28 152v416h74v-416c0 -76 0 -118 28 -152c18 -22 48 -34 83 -34s65 12 83 34c28 34 28 76 28 152v416h74v-416c0 -81 0 -148 -49 -201
c-32 -34 -78 -55 -136 -55c-65.7295 0 -117.226 26.5117 -148 79.5479c-30.791 -52.0586 -82.2559 -79.5479 -148 -79.5479c-58 0 -104 21 -136 55c-49 53 -49 120 -49 201v416z" />
    <glyph glyph-name="wgrave" unicode="&#x1e81;" horiz-adv-x="700" 
d="M268 666h78l75 -120h-66zM220 -6c-47 0 -88 17 -115 43c-50 48 -50 110 -50 185v256h70v-256c0 -66 0 -111 30 -139c15 -14 38 -23 65 -23s50 9 65 23c30 28 30 73 30 139v256h70v-256c0 -66 0 -111 30 -139c15 -14 38 -23 65 -23s50 9 65 23c30 28 30 73 30 139v256h70
v-256c0 -75 0 -137 -50 -185c-27 -26 -68 -43 -115 -43c-57 0 -103 25 -130 70c-27 -45 -73 -70 -130 -70z" />
    <glyph glyph-name="Wacute" unicode="&#x1e82;" horiz-adv-x="806" 
d="M530 856l-87 -120h-66l75 120h78zM70 666h74v-416c0 -76 0 -118 28 -152c18 -22 48 -34 83 -34s65 12 83 34c28 34 28 76 28 152v416h74v-416c0 -76 0 -118 28 -152c18 -22 48 -34 83 -34s65 12 83 34c28 34 28 76 28 152v416h74v-416c0 -81 0 -148 -49 -201
c-32 -34 -78 -55 -136 -55c-65.7295 0 -117.226 26.5117 -148 79.5479c-30.791 -52.0586 -82.2559 -79.5479 -148 -79.5479c-58 0 -104 21 -136 55c-49 53 -49 120 -49 201v416z" />
    <glyph glyph-name="wacute" unicode="&#x1e83;" horiz-adv-x="700" 
d="M482 666l-87 -120h-66l75 120h78zM220 -6c-47 0 -88 17 -115 43c-50 48 -50 110 -50 185v256h70v-256c0 -66 0 -111 30 -139c15 -14 38 -23 65 -23s50 9 65 23c30 28 30 73 30 139v256h70v-256c0 -66 0 -111 30 -139c15 -14 38 -23 65 -23s50 9 65 23c30 28 30 73 30 139
v256h70v-256c0 -75 0 -137 -50 -185c-27 -26 -68 -43 -115 -43c-57 0 -103 25 -130 70c-27 -45 -73 -70 -130 -70z" />
    <glyph glyph-name="Wdieresis" unicode="&#x1e84;" horiz-adv-x="806" 
d="M513 834c28 0 47 -19 47 -47s-19 -47 -47 -47s-47 19 -47 47s19 47 47 47zM333 834c28 0 47 -19 47 -47s-19 -47 -47 -47s-47 19 -47 47s19 47 47 47zM70 666h74v-416c0 -76 0 -118 28 -152c18 -22 48 -34 83 -34s65 12 83 34c28 34 28 76 28 152v416h74v-416
c0 -76 0 -118 28 -152c18 -22 48 -34 83 -34s65 12 83 34c28 34 28 76 28 152v416h74v-416c0 -81 0 -148 -49 -201c-32 -34 -78 -55 -136 -55c-65.7295 0 -117.226 26.5117 -148 79.5479c-30.791 -52.0586 -82.2559 -79.5479 -148 -79.5479c-58 0 -104 21 -136 55
c-49 53 -49 120 -49 201v416z" />
    <glyph glyph-name="wdieresis" unicode="&#x1e85;" horiz-adv-x="700" 
d="M465 644c28 0 47 -19 47 -47s-19 -47 -47 -47s-47 19 -47 47s19 47 47 47zM285 644c28 0 47 -19 47 -47s-19 -47 -47 -47s-47 19 -47 47s19 47 47 47zM220 -6c-47 0 -88 17 -115 43c-50 48 -50 110 -50 185v256h70v-256c0 -66 0 -111 30 -139c15 -14 38 -23 65 -23
s50 9 65 23c30 28 30 73 30 139v256h70v-256c0 -66 0 -111 30 -139c15 -14 38 -23 65 -23s50 9 65 23c30 28 30 73 30 139v256h70v-256c0 -75 0 -137 -50 -185c-27 -26 -68 -43 -115 -43c-57 0 -103 25 -130 70c-27 -45 -73 -70 -130 -70z" />
    <glyph glyph-name="uni1E92" unicode="&#x1e92;" horiz-adv-x="530" 
d="M270 -73c27 0 47 -19 47 -47s-20 -47 -47 -47s-47 19 -47 47s20 47 47 47zM70 596v70h241c52 0 93 0 124 -28c19 -17 33 -40 33 -72c0 -45 -22 -70 -70 -126l-218 -258c-45 -53 -54 -63 -54 -82c0 -11 5 -18 11 -22c12 -8 26 -8 73 -8h260v-70h-261c-50 0 -93 0 -123 27
c-21 19 -34 41 -34 73c0 41 18 64 66 121l235 278c32 38 41 48 41 67c0 11 -5 18 -12 23c-11 7 -30 7 -72 7h-240z" />
    <glyph glyph-name="uni1E93" unicode="&#x1e93;" horiz-adv-x="414" 
d="M213 -73c27 0 47 -19 47 -47s-20 -47 -47 -47s-47 19 -47 47s20 47 47 47zM57 412v66h192c26 0 56 0 86 -24c23 -18 34 -44 34 -70c0 -49 -34 -79 -84 -120l-112 -93c-46 -38 -68 -56 -68 -77c0 -9 4 -16 9 -20c10 -8 28 -8 71 -8h182v-66h-182c-53 0 -99 0 -130 37
c-13 16 -20 36 -20 57c0 50 34 77 93 127l111 93c40 33 60 49 60 70c0 12 -6 18 -12 22c-9 6 -28 6 -38 6h-192z" />
    <glyph glyph-name="Eszett" unicode="&#x1e9e;" horiz-adv-x="632" 
d="M324 667h198v-59l-125 -230c41 -12 82 -28 119 -59c36 -30 66 -79 66 -140c0 -52 -24 -102 -66 -137s-97 -48 -147 -48c-53 0 -111 15 -158 46l38 60c35 -24 78 -36 120 -36c37 0 72 10 96 29c28 22 43 56 43 86c0 38 -18 69 -44 90c-36 29 -89 43 -143 58v64l112 206
h-109c-53 0 -119 0 -156 -51c-24 -33 -24 -73 -24 -108v-438h-74v438c0 42 0 101 42 154c60 75 151 75 212 75z" />
    <glyph glyph-name="uni1EB8" unicode="&#x1eb8;" horiz-adv-x="510" 
d="M255 -73c27 0 47 -19 47 -47s-20 -47 -47 -47s-47 19 -47 47s20 47 47 47zM149 378l236 1v-70l-236 -1v-153c0 -41 0 -63 17 -76c12 -9 29 -9 66 -9h213v-70h-213c-44 0 -84 0 -117 28c-40 35 -40 79 -40 127v356c0 48 0 92 40 127c33 28 73 28 117 28h213v-70h-213
c-37 0 -54 0 -66 -9c-17 -13 -17 -35 -17 -76v-133z" />
    <glyph glyph-name="uni1EB9" unicode="&#x1eb9;" horiz-adv-x="454" 
d="M243.998 -73c27 0 47 -19 47 -47s-20 -47 -47 -47s-47 19 -47 47s20 47 47 47zM139 102c20 -27 52 -42 100 -42c43 0 86 10 122 29l29 -60c-47 -24 -99 -35 -151 -35c-69 0 -124 25 -156 68c-38 52 -38 112 -38 177c0 78 0 124 36 174c32 45 92 71 163 71
c50 0 90 -13 120 -37c30 -25 49 -62 50 -101c0 -44 -22 -78 -50 -98c-42 -30 -85 -30 -156 -30h-92c0 -26 0 -85 23 -116zM344 346c-1 19 -11 39 -26 51c-17 14 -43 21 -74 21c-45 0 -81 -13 -103 -39c-25 -29 -25 -79 -25 -99h92c63 0 91 0 112 16c13 10 24 27 24 50z" />
    <glyph glyph-name="uni1EBC" unicode="&#x1ebc;" horiz-adv-x="510" 
d="M315 740c-29 0 -54 12 -73 22c-15 7 -29 16 -47 16s-32 -13 -32 -32h-56c0 48 39 84 88 84c30 0 54 -12 73 -22c15 -7 29 -16 47 -16s32 13 32 32h56c0 -48 -39 -84 -88 -84zM149 378l236 1v-70l-236 -1v-153c0 -41 0 -63 17 -76c12 -9 29 -9 66 -9h213v-70h-213
c-44 0 -84 0 -117 28c-40 35 -40 79 -40 127v356c0 48 0 92 40 127c33 28 73 28 117 28h213v-70h-213c-37 0 -54 0 -66 -9c-17 -13 -17 -35 -17 -76v-133z" />
    <glyph glyph-name="uni1EBD" unicode="&#x1ebd;" horiz-adv-x="454" 
d="M298.998 550c-29 0 -54 12 -73 22c-15 7 -29 16 -47 16s-32 -13 -32 -32h-56c0 48 39 84 88 84c30 0 54 -12 73 -22c15 -7 29 -16 47 -16s32 13 32 32h56c0 -48 -39 -84 -88 -84zM139 102c20 -27 52 -42 100 -42c43 0 86 10 122 29l29 -60c-47 -24 -99 -35 -151 -35
c-69 0 -124 25 -156 68c-38 52 -38 112 -38 177c0 78 0 124 36 174c32 45 92 71 163 71c50 0 90 -13 120 -37c30 -25 49 -62 50 -101c0 -44 -22 -78 -50 -98c-42 -30 -85 -30 -156 -30h-92c0 -26 0 -85 23 -116zM344 346c-1 19 -11 39 -26 51c-17 14 -43 21 -74 21
c-45 0 -81 -13 -103 -39c-25 -29 -25 -79 -25 -99h92c63 0 91 0 112 16c13 10 24 27 24 50z" />
    <glyph glyph-name="uni1ECA" unicode="&#x1eca;" horiz-adv-x="224" 
d="M111 -73c27 0 47 -19 47 -47s-20 -47 -47 -47s-47 19 -47 47s20 47 47 47zM149 666v-666h-74v666h74z" />
    <glyph glyph-name="uni1ECB" unicode="&#x1ecb;" horiz-adv-x="200" 
d="M103 -73c27 0 47 -19 47 -47s-20 -47 -47 -47s-47 19 -47 47s20 47 47 47zM100 649c27 0 47 -19 47 -47s-20 -47 -47 -47s-47 19 -47 47s20 47 47 47zM65 0v478h70v-478h-70z" />
    <glyph glyph-name="uni1ECC" unicode="&#x1ecc;" horiz-adv-x="584" 
d="M300 -73c27 0 47 -19 47 -47s-20 -47 -47 -47s-47 19 -47 47s20 47 47 47zM139 333c0 -102 0 -162 26 -205c24 -40 71 -64 127 -64s103 24 127 64c26 43 26 103 26 205s0 162 -26 205c-24 40 -71 64 -127 64s-103 -24 -127 -64c-26 -43 -26 -103 -26 -205zM65 333
c0 118 0 181 36 240c37 61 107 99 191 99s154 -38 191 -99c36 -59 36 -122 36 -240s0 -181 -36 -240c-37 -61 -107 -99 -191 -99s-154 38 -191 99c-36 59 -36 122 -36 240z" />
    <glyph glyph-name="uni1ECD" unicode="&#x1ecd;" 
d="M245 -73c27 0 47 -19 47 -47s-20 -47 -47 -47s-47 19 -47 47s20 47 47 47zM235 418c-44 0 -78 -18 -98 -48c-22 -33 -22 -80 -22 -131s0 -98 22 -131c20 -30 54 -48 98 -48s78 18 98 48c22 33 22 80 22 131s0 98 -22 131c-20 30 -54 48 -98 48zM235 484
c71 0 129 -32 161 -85c29 -48 29 -103 29 -160s0 -112 -29 -160c-32 -53 -90 -85 -161 -85s-129 32 -161 85c-29 48 -29 103 -29 160s0 112 29 160c32 53 90 85 161 85z" />
    <glyph glyph-name="uni1EE4" unicode="&#x1ee4;" horiz-adv-x="554" 
d="M283 -73c27 0 47 -19 47 -47s-20 -47 -47 -47s-47 19 -47 47s20 47 47 47zM70 666h74v-387c0 -81 0 -137 34 -175c24 -27 60 -40 99 -40s75 13 99 40c34 38 34 94 34 175v387h74v-387c0 -90 0 -162 -52 -221c-36 -41 -93 -64 -155 -64s-119 23 -155 64
c-52 59 -52 131 -52 221v387z" />
    <glyph glyph-name="uni1EE5" unicode="&#x1ee5;" horiz-adv-x="460" 
d="M237 -73c27 0 47 -19 47 -47s-20 -47 -47 -47s-47 19 -47 47s20 47 47 47zM55 478h70v-256c0 -62 0 -104 29 -133c17 -17 43 -29 76 -29s59 12 76 29c29 29 29 71 29 133v256h70v-256c0 -70 0 -128 -47 -177c-24 -25 -67 -51 -128 -51s-104 26 -128 51
c-47 49 -47 107 -47 177v256z" />
    <glyph glyph-name="Ygrave" unicode="&#x1ef2;" horiz-adv-x="510" 
d="M171.28 856h78l75 -120h-66zM255 374c5 0 10 1 16 7c7 7 14 18 40 71l98 214h81l-115 -243c-36 -72 -47 -97 -83 -114v-309h-74v309c-36 17 -47 42 -83 114l-115 243h81l98 -214c26 -53 33 -64 40 -71c6 -6 11 -7 16 -7z" />
    <glyph glyph-name="ygrave" unicode="&#x1ef3;" horiz-adv-x="418" 
d="M115 665h78l75 -120h-66zM15 478h73l94 -322c15 -52 22 -74 28 -83s16 -11 26 -12l90 417h72l-115 -519c-11 -49 -19 -80 -41 -105c-21 -24 -55 -43 -97 -43c-22 0 -45 5 -67 13l21 62c16 -6 31 -9 46 -9c19 0 32 6 43 17c14 14 20 37 34 102c-28 4 -51 17 -65 35
c-15 20 -19 38 -41 110z" />
    <glyph glyph-name="uni1EF8" unicode="&#x1ef8;" horiz-adv-x="510" 
d="M338.28 740c-29 0 -54 12 -73 22c-15 7 -29 16 -47 16s-32 -13 -32 -32h-56c0 48 39 84 88 84c30 0 54 -12 73 -22c15 -7 29 -16 47 -16s32 13 32 32h56c0 -48 -39 -84 -88 -84zM255 374c5 0 10 1 16 7c7 7 14 18 40 71l98 214h81l-115 -243c-36 -72 -47 -97 -83 -114
v-309h-74v309c-36 17 -47 42 -83 114l-115 243h81l98 -214c26 -53 33 -64 40 -71c6 -6 11 -7 16 -7z" />
    <glyph glyph-name="uni1EF9" unicode="&#x1ef9;" horiz-adv-x="418" 
d="M282 549c-29 0 -54 12 -73 22c-15 7 -29 16 -47 16s-32 -13 -32 -32h-56c0 48 39 84 88 84c30 0 54 -12 73 -22c15 -7 29 -16 47 -16s32 13 32 32h56c0 -48 -39 -84 -88 -84zM15 478h73l94 -322c15 -52 22 -74 28 -83s16 -11 26 -12l90 417h72l-115 -519
c-11 -49 -19 -80 -41 -105c-21 -24 -55 -43 -97 -43c-22 0 -45 5 -67 13l21 62c16 -6 31 -9 46 -9c19 0 32 6 43 17c14 14 20 37 34 102c-28 4 -51 17 -65 35c-15 20 -19 38 -41 110z" />
    <glyph glyph-name="uni2000" unicode="&#x2000;" horiz-adv-x="500" 
 />
    <glyph glyph-name="uni2001" unicode="&#x2001;" horiz-adv-x="1000" 
 />
    <glyph glyph-name="uni2002" unicode="&#x2002;" horiz-adv-x="500" 
 />
    <glyph glyph-name="uni2003" unicode="&#x2003;" horiz-adv-x="1000" 
 />
    <glyph glyph-name="uni2004" unicode="&#x2004;" horiz-adv-x="333" 
 />
    <glyph glyph-name="uni2005" unicode="&#x2005;" horiz-adv-x="250" 
 />
    <glyph glyph-name="uni2006" unicode="&#x2006;" horiz-adv-x="166" 
 />
    <glyph glyph-name="uni2007" unicode="&#x2007;" horiz-adv-x="534" 
 />
    <glyph glyph-name="uni2008" unicode="&#x2008;" horiz-adv-x="202" 
 />
    <glyph glyph-name="uni2009" unicode="&#x2009;" horiz-adv-x="187" 
 />
    <glyph glyph-name="uni200A" unicode="&#x200a;" horiz-adv-x="63" 
 />
    <glyph glyph-name="uni200B" unicode="&#x200b;" horiz-adv-x="0" 
 />
    <glyph glyph-name="uni200C" unicode="&#x200c;" horiz-adv-x="0" 
 />
    <glyph glyph-name="uni200D" unicode="&#x200d;" horiz-adv-x="0" 
 />
    <glyph glyph-name="uni2010" unicode="&#x2010;" horiz-adv-x="370" 
d="M80 279h210v-58h-210v58z" />
    <glyph glyph-name="endash" unicode="&#x2013;" horiz-adv-x="500" 
d="M80 221v58h340v-58h-340z" />
    <glyph glyph-name="emdash" unicode="&#x2014;" horiz-adv-x="1000" 
d="M80 221v58h840v-58h-840z" />
    <glyph glyph-name="uni2015" unicode="&#x2015;" horiz-adv-x="1000" 
d="M80 221v58h840v-58h-840z" />
    <glyph glyph-name="quoteleft" unicode="&#x2018;" horiz-adv-x="202" 
d="M152 501c0 -31 -21 -51 -51 -51s-51 20 -51 51c0 13 4 25 8 37l46 129h45l-29 -118c19 -6 32 -25 32 -48z" />
    <glyph glyph-name="quoteright" unicode="&#x2019;" horiz-adv-x="202" 
d="M50 622c0 31 21 51 51 51s51 -20 51 -51c0 -13 -4 -25 -8 -37l-46 -129h-45l29 118c-19 6 -32 25 -32 48z" />
    <glyph glyph-name="quotesinglbase" unicode="&#x201a;" horiz-adv-x="202" 
d="M50 45c0 31 21 51 51 51s51 -20 51 -51c0 -13 -4 -25 -8 -37l-46 -129h-45l29 118c-19 6 -32 25 -32 48z" />
    <glyph glyph-name="quotereversed" unicode="&#x201b;" horiz-adv-x="202" 
d="M152 622c0 -23 -13 -42 -32 -48l29 -118h-45l-46 129c-4 12 -8 24 -8 37c0 31 21 51 51 51s51 -20 51 -51z" />
    <glyph glyph-name="quotedblleft" unicode="&#x201c;" horiz-adv-x="362" 
d="M152 501c0 -31 -21 -51 -51 -51s-51 20 -51 51c0 13 4 25 8 37l46 129h45l-29 -118c19 -6 32 -25 32 -48zM312 501c0 -31 -21 -51 -51 -51s-51 20 -51 51c0 13 4 25 8 37l46 129h45l-29 -118c19 -6 32 -25 32 -48z" />
    <glyph glyph-name="quotedblright" unicode="&#x201d;" horiz-adv-x="362" 
d="M210 622c0 31 21 51 51 51s51 -20 51 -51c0 -13 -4 -25 -8 -37l-46 -129h-45l29 118c-19 6 -32 25 -32 48zM50 622c0 31 21 51 51 51s51 -20 51 -51c0 -13 -4 -25 -8 -37l-46 -129h-45l29 118c-19 6 -32 25 -32 48z" />
    <glyph glyph-name="quotedblbase" unicode="&#x201e;" horiz-adv-x="362" 
d="M210 45c0 31 21 51 51 51s51 -20 51 -51c0 -13 -4 -25 -8 -37l-46 -129h-45l29 118c-19 6 -32 25 -32 48zM50 45c0 31 21 51 51 51s51 -20 51 -51c0 -13 -4 -25 -8 -37l-46 -129h-45l29 118c-19 6 -32 25 -32 48z" />
    <glyph glyph-name="dagger" unicode="&#x2020;" horiz-adv-x="394" 
d="M162 667h70v-190h107v-60h-107v-602h-70v602h-107v60h107v190z" />
    <glyph glyph-name="daggerdbl" unicode="&#x2021;" horiz-adv-x="394" 
d="M162 667h70v-190h107v-60h-107v-357h107v-60h-107v-185h-70v185h-107v60h107v357h-107v60h107v190z" />
    <glyph glyph-name="bullet" unicode="&#x2022;" horiz-adv-x="325" 
d="M163 333c48 0 82 -34 82 -83s-34 -83 -82 -83c-49 0 -83 34 -83 83s34 83 83 83z" />
    <glyph glyph-name="ellipsis" unicode="&#x2026;" horiz-adv-x="542" 
d="M441 96c30 0 51 -21 51 -51s-21 -51 -51 -51s-51 21 -51 51s21 51 51 51zM271 96c30 0 51 -21 51 -51s-21 -51 -51 -51s-51 21 -51 51s21 51 51 51zM101 96c30 0 51 -21 51 -51s-21 -51 -51 -51s-51 21 -51 51s21 51 51 51z" />
    <glyph glyph-name="perthousand" unicode="&#x2030;" horiz-adv-x="992" 
d="M812 295c39 0 72 -17 92 -41c28 -34 28 -70 28 -95v-29c0 -25 0 -61 -28 -95c-20 -24 -53 -41 -92 -41s-72 17 -92 41c-28 34 -28 70 -28 95v29c0 25 0 61 28 95c20 24 53 41 92 41zM812 237c-20 0 -37 -8 -48 -23c-12 -17 -12 -37 -12 -55v-29c0 -18 0 -38 12 -55
c11 -15 28 -23 48 -23s37 8 48 23c12 17 12 37 12 55v29c0 18 0 38 -12 55c-11 15 -28 23 -48 23zM180 673c39 0 72 -17 92 -41c28 -34 28 -70 28 -95v-29c0 -25 0 -61 -28 -95c-20 -24 -53 -41 -92 -41s-72 17 -92 41c-28 34 -28 70 -28 95v29c0 25 0 61 28 95
c20 24 53 41 92 41zM180 615c-20 0 -37 -8 -48 -23c-12 -17 -12 -37 -12 -55v-29c0 -18 0 -38 12 -55c11 -15 28 -23 48 -23s37 8 48 23c12 17 12 37 12 55v29c0 18 0 38 -12 55c-11 15 -28 23 -48 23zM486 667h74l-360 -667h-74zM512 295c39 0 72 -17 92 -41
c28 -34 28 -70 28 -95v-29c0 -25 0 -61 -28 -95c-20 -24 -53 -41 -92 -41s-72 17 -92 41c-28 34 -28 70 -28 95v29c0 25 0 61 28 95c20 24 53 41 92 41zM512 237c-20 0 -37 -8 -48 -23c-12 -17 -12 -37 -12 -55v-29c0 -18 0 -38 12 -55c11 -15 28 -23 48 -23s37 8 48 23
c12 17 12 37 12 55v29c0 18 0 38 -12 55c-11 15 -28 23 -48 23z" />
    <glyph glyph-name="uni2031" unicode="&#x2031;" horiz-adv-x="1292" 
d="M1112 295c39 0 72 -17 92 -41c28 -34 28 -70 28 -95v-29c0 -25 0 -61 -28 -95c-20 -24 -53 -41 -92 -41s-72 17 -92 41c-28 34 -28 70 -28 95v29c0 25 0 61 28 95c20 24 53 41 92 41zM1112 237c-20 0 -37 -8 -48 -23c-12 -17 -12 -37 -12 -55v-29c0 -18 0 -38 12 -55
c11 -15 28 -23 48 -23s37 8 48 23c12 17 12 37 12 55v29c0 18 0 38 -12 55c-11 15 -28 23 -48 23zM812 295c39 0 72 -17 92 -41c28 -34 28 -70 28 -95v-29c0 -25 0 -61 -28 -95c-20 -24 -53 -41 -92 -41s-72 17 -92 41c-28 34 -28 70 -28 95v29c0 25 0 61 28 95
c20 24 53 41 92 41zM812 237c-20 0 -37 -8 -48 -23c-12 -17 -12 -37 -12 -55v-29c0 -18 0 -38 12 -55c11 -15 28 -23 48 -23s37 8 48 23c12 17 12 37 12 55v29c0 18 0 38 -12 55c-11 15 -28 23 -48 23zM180 673c39 0 72 -17 92 -41c28 -34 28 -70 28 -95v-29
c0 -25 0 -61 -28 -95c-20 -24 -53 -41 -92 -41s-72 17 -92 41c-28 34 -28 70 -28 95v29c0 25 0 61 28 95c20 24 53 41 92 41zM180 615c-20 0 -37 -8 -48 -23c-12 -17 -12 -37 -12 -55v-29c0 -18 0 -38 12 -55c11 -15 28 -23 48 -23s37 8 48 23c12 17 12 37 12 55v29
c0 18 0 38 -12 55c-11 15 -28 23 -48 23zM486 667h74l-360 -667h-74zM512 295c39 0 72 -17 92 -41c28 -34 28 -70 28 -95v-29c0 -25 0 -61 -28 -95c-20 -24 -53 -41 -92 -41s-72 17 -92 41c-28 34 -28 70 -28 95v29c0 25 0 61 28 95c20 24 53 41 92 41zM512 237
c-20 0 -37 -8 -48 -23c-12 -17 -12 -37 -12 -55v-29c0 -18 0 -38 12 -55c11 -15 28 -23 48 -23s37 8 48 23c12 17 12 37 12 55v29c0 18 0 38 -12 55c-11 15 -28 23 -48 23z" />
    <glyph glyph-name="minute" unicode="&#x2032;" horiz-adv-x="304" 
d="M174 667h80l-135 -211h-69z" />
    <glyph glyph-name="second" unicode="&#x2033;" horiz-adv-x="450" 
d="M324 667h76l-135 -211h-65zM174 667h76l-135 -211h-65z" />
    <glyph glyph-name="uni2034" unicode="&#x2034;" horiz-adv-x="600" 
d="M474 667h76l-135 -211h-65zM324 667h76l-135 -211h-65zM174 667h76l-135 -211h-65z" />
    <glyph glyph-name="guilsinglleft" unicode="&#x2039;" horiz-adv-x="304" 
d="M206 449l48 -36l-129 -163l129 -163l-48 -36l-156 199z" />
    <glyph glyph-name="guilsinglright" unicode="&#x203a;" horiz-adv-x="304" 
d="M98 449l156 -199l-156 -199l-48 36l129 163l-129 163z" />
    <glyph glyph-name="fraction" unicode="&#x2044;" horiz-adv-x="424" 
d="M360 667h64l-360 -667h-64z" />
    <glyph glyph-name="Euro" unicode="&#x20ac;" horiz-adv-x="583" 
d="M330 673c64 0 129 -20 180 -61l-47 -53c-39 31 -84 44 -133 44c-48 0 -90 -15 -116 -43c-35 -38 -35 -82 -35 -122v-14h261l-20 -56h-241v-69h221l-20 -56h-201v-14c0 -40 0 -84 35 -122c26 -28 68 -43 116 -43c57 0 109 20 142 50l49 -51c-50 -44 -117 -69 -191 -69
c-68 0 -127 22 -168 63c-57 58 -57 126 -57 172v14h-65l20 56h45v69h-65l20 56h45v14c0 46 0 114 57 172c41 41 100 63 168 63z" />
    <glyph glyph-name="uni20B9" unicode="&#x20b9;" horiz-adv-x="550" 
d="M186 258l212 -258h-87l-209 258h-24v67h109c66 0 124 42 129 125h-256l30 67h218c-19 55 -67 83 -121 83h-127l30 67h400l-30 -67h-126c22 -22 38 -50 46 -83h110l-30 -67h-73c-6 -131 -98 -192 -201 -192z" />
    <glyph glyph-name="uni20BA" unicode="&#x20ba;" horiz-adv-x="529" 
d="M459 245c0 -51 -1 -118 -58 -177c-40 -42 -103 -68 -177 -68h-74v267l-90 -45v61l90 45v79l-90 -45v61l90 45v199h74v-162l136 68v-61l-136 -68v-79l136 68v-61l-136 -68v-234c53 0 96 18 123 46c36 38 38 80 38 129v53h74v-53z" />
    <glyph glyph-name="trademark" unicode="&#x2122;" horiz-adv-x="668" 
d="M60 667h225v-45h-89v-288h-47v288h-89v45zM325 667h42l99 -194l100 194h42v-333h-46v240l-79 -158h-33l-79 157v-239h-46v333z" />
    <glyph glyph-name="Omega" unicode="&#x2126;" horiz-adv-x="600" 
d="M300 673c131 0 206 -54 228 -156c6 -25 7 -49 7 -79v-129c0 -96 -23 -161 -91 -239h91v-70h-185v50c93 107 111 176 111 259v129c0 32 -2 56 -10 80c-19 57 -65 85 -151 85s-132 -28 -151 -85c-8 -25 -10 -48 -10 -80v-129c0 -83 18 -152 111 -259v-50h-185v70h91
c-68 78 -91 143 -91 239v129c0 30 1 55 7 80c23 101 97 155 228 155z" />
    <glyph glyph-name="arrowleft" unicode="&#x2190;" horiz-adv-x="560" 
d="M480 279v-58h-309l75 -73l-44 -40l-122 122v40l122 122l44 -40l-75 -73h309z" />
    <glyph glyph-name="arrowup" unicode="&#x2191;" horiz-adv-x="414" 
d="M185 450h44l122 -122l-44 -40l-70 72v-310h-60v310l-70 -72l-44 40z" />
    <glyph glyph-name="arrowright" unicode="&#x2192;" horiz-adv-x="560" 
d="M80 279h309l-75 73l44 40l122 -122v-40l-122 -122l-44 40l75 73h-309v58z" />
    <glyph glyph-name="arrowdown" unicode="&#x2193;" horiz-adv-x="414" 
d="M177 450h60v-310l70 72l44 -40l-122 -122h-44l-122 122l44 40l70 -72v310z" />
    <glyph glyph-name="arrowboth" unicode="&#x2194;" horiz-adv-x="640" 
d="M171 221l75 -73l-44 -40l-122 122v40l122 122l44 -40l-75 -73h298l-75 73l44 40l122 -122v-40l-122 -122l-44 40l75 73h-298z" />
    <glyph glyph-name="arrowupdn" unicode="&#x2195;" horiz-adv-x="414" 
d="M185 490h44l122 -122l-44 -40l-70 72v-300l70 72l44 -40l-122 -122h-44l-122 122l44 40l70 -72v300l-70 -72l-44 40z" />
    <glyph glyph-name="uni2196" unicode="&#x2196;" horiz-adv-x="469" 
d="M399 133l-43 -41l-217 217l1 -102h-60v173l30 29h173v-58l-103 1z" />
    <glyph glyph-name="uni2197" unicode="&#x2197;" horiz-adv-x="469" 
d="M70 133l219 219l-103 -1v58h173l30 -29v-173h-60l1 102l-217 -217z" />
    <glyph glyph-name="uni2198" unicode="&#x2198;" horiz-adv-x="469" 
d="M70 368l43 41l217 -217l-1 102h60v-173l-30 -29h-173v58l103 -1z" />
    <glyph glyph-name="uni2199" unicode="&#x2199;" horiz-adv-x="469" 
d="M399 368l-219 -219l103 1v-58h-173l-30 29v173h60l-1 -102l217 217z" />
    <glyph glyph-name="partialdiff" unicode="&#x2202;" horiz-adv-x="485" 
d="M230 669c66 0 117 -23 149 -58c46 -50 46 -107 46 -146v-270c0 -36 0 -96 -47 -145c-33 -35 -84 -55 -138 -55s-105 20 -138 55c-47 49 -47 109 -47 145v87c0 39 0 94 41 142c27 32 74 60 134 60c52 0 98 -20 125 -50v31c0 31 0 67 -24 97c-19 24 -52 41 -101 41
c-39 0 -77 -9 -116 -29l-35 57c45 24 97 38 151 38zM355 195v89c0 30 0 65 -24 95c-19 24 -52 39 -91 39s-72 -15 -91 -39c-24 -30 -24 -65 -24 -95v-89c0 -30 0 -65 24 -95c19 -24 52 -39 91 -39s72 15 91 39c24 30 24 65 24 95z" />
    <glyph glyph-name="Delta" unicode="&#x2206;" horiz-adv-x="649" 
d="M35 0l258 667h64l257 -667h-579zM514 68l-189 505l-189 -505h378z" />
    <glyph glyph-name="product" unicode="&#x220f;" horiz-adv-x="590" 
d="M75 667h440v-667h-74v597h-292v-597h-74v667z" />
    <glyph glyph-name="summation" unicode="&#x2211;" horiz-adv-x="500" 
d="M296 328l-141 -258h285v-70h-380v40l170 302l-170 285v40h379v-70h-284l141 -239v-30z" />
    <glyph glyph-name="minus" unicode="&#x2212;" horiz-adv-x="520" 
d="M80 280h360v-58h-360v58z" />
    <glyph glyph-name="radical" unicode="&#x221a;" horiz-adv-x="505" 
d="M45 257l50 32l146 -211l171 589h63l-195 -667h-57z" />
    <glyph glyph-name="infinity" unicode="&#x221e;" horiz-adv-x="750" 
d="M518 81c-72 0 -117 49 -143 107c-26 -58 -71 -107 -143 -107c-93 0 -152 82 -152 169s59 169 152 169c72 0 117 -48 143 -106c26 58 71 106 143 106c93 0 152 -82 152 -169s-59 -169 -152 -169zM140 250c0 -55 34 -111 92 -111c65 0 91 62 111 111
c-20 49 -46 111 -111 111c-58 0 -92 -56 -92 -111zM610 250c0 55 -34 111 -92 111c-65 0 -91 -62 -111 -111c20 -49 46 -111 111 -111c58 0 92 56 92 111z" />
    <glyph glyph-name="integral" unicode="&#x222b;" horiz-adv-x="359" 
d="M256 673c24 0 46 -5 65 -10l-18 -64c-18 5 -34 8 -47 8c-27 0 -46 -11 -57 -27c-14 -20 -14 -45 -14 -67v-566c0 -26 0 -65 -33 -100c-21 -22 -54 -38 -98 -38c-29 0 -56 7 -82 18l29 60c18 -8 37 -12 53 -12c20 0 39 6 50 21s11 33 11 51v566c0 30 0 70 29 108
c23 30 62 52 112 52z" />
    <glyph glyph-name="uni222C" unicode="&#x222c;" horiz-adv-x="589" 
d="M486 673c24 0 46 -5 65 -10l-18 -64c-18 5 -34 8 -47 8c-27 0 -46 -11 -57 -27c-14 -20 -14 -45 -14 -67v-566c0 -26 0 -65 -33 -100c-21 -22 -54 -38 -98 -38c-29 0 -56 7 -82 18l29 60c18 -8 37 -12 53 -12c20 0 39 6 50 21s11 33 11 51v566c0 30 0 70 29 108
c23 30 62 52 112 52zM256 673c24 0 46 -5 65 -10l-18 -64c-18 5 -34 8 -47 8c-27 0 -46 -11 -57 -27c-14 -20 -14 -45 -14 -67v-566c0 -26 0 -65 -33 -100c-21 -22 -54 -38 -98 -38c-29 0 -56 7 -82 18l29 60c18 -8 37 -12 53 -12c20 0 39 6 50 21s11 33 11 51v566
c0 30 0 70 29 108c23 30 62 52 112 52z" />
    <glyph glyph-name="uni222D" unicode="&#x222d;" horiz-adv-x="819" 
d="M716 673c24 0 46 -5 65 -10l-18 -64c-18 5 -34 8 -47 8c-27 0 -46 -11 -57 -27c-14 -20 -14 -45 -14 -67v-566c0 -26 0 -65 -33 -100c-21 -22 -54 -38 -98 -38c-29 0 -56 7 -82 18l29 60c18 -8 37 -12 53 -12c20 0 39 6 50 21s11 33 11 51v566c0 30 0 70 29 108
c23 30 62 52 112 52zM486 673c24 0 46 -5 65 -10l-18 -64c-18 5 -34 8 -47 8c-27 0 -46 -11 -57 -27c-14 -20 -14 -45 -14 -67v-566c0 -26 0 -65 -33 -100c-21 -22 -54 -38 -98 -38c-29 0 -56 7 -82 18l29 60c18 -8 37 -12 53 -12c20 0 39 6 50 21s11 33 11 51v566
c0 30 0 70 29 108c23 30 62 52 112 52zM256 673c24 0 46 -5 65 -10l-18 -64c-18 5 -34 8 -47 8c-27 0 -46 -11 -57 -27c-14 -20 -14 -45 -14 -67v-566c0 -26 0 -65 -33 -100c-21 -22 -54 -38 -98 -38c-29 0 -56 7 -82 18l29 60c18 -8 37 -12 53 -12c20 0 39 6 50 21
s11 33 11 51v566c0 30 0 70 29 108c23 30 62 52 112 52z" />
    <glyph glyph-name="approxequal" unicode="&#x2248;" horiz-adv-x="520" 
d="M100 143l-32 41c38 37 76 54 112 54c34 0 64 -13 94 -35c24 -19 46 -30 68 -30c24 0 48 14 78 44l32 -42c-38 -38 -76 -56 -112 -56c-30 0 -62 13 -94 38c-22 16 -42 27 -66 27s-50 -12 -80 -41zM100 283l-32 41c38 37 76 54 112 54c34 0 64 -13 94 -35
c24 -19 46 -30 68 -30c24 0 48 14 78 44l32 -42c-38 -38 -76 -56 -112 -56c-30 0 -62 13 -94 38c-22 16 -42 27 -66 27s-50 -12 -80 -41z" />
    <glyph glyph-name="notequal" unicode="&#x2260;" horiz-adv-x="520" 
d="M359 444h62l-66 -98h85v-52h-120l-58 -86h178v-52h-213l-66 -98h-62l66 98h-85v52h120l58 86h-178v52h213z" />
    <glyph glyph-name="lessequal" unicode="&#x2264;" horiz-adv-x="520" 
d="M80 151h360v-56h-360v56zM146 323l294 -77v-56l-360 100v66l360 100v-56z" />
    <glyph glyph-name="greaterequal" unicode="&#x2265;" horiz-adv-x="520" 
d="M440 151v-56h-360v56h360zM374 323l-294 77v56l360 -100v-66l-360 -100v56z" />
    <glyph glyph-name="lozenge" unicode="&#x25ca;" horiz-adv-x="550" 
d="M134 334l141 -224l141 224l-141 225zM60 334l215 335l215 -335l-215 -334z" />
    <glyph glyph-name="uniFB01" unicode="&#xfb01;" horiz-adv-x="502" 
d="M45 477h60v60c0 89 61 130 120 130h60v-62h-60c-25 0 -50 -20 -50 -68v-60h246v-477h-70v416h-176v-416h-70v416h-60v61zM385 634c28 0 48 -19 48 -47s-20 -47 -48 -47c-26 0 -46 19 -46 47s20 47 46 47z" />
    <glyph glyph-name="uniFB02" unicode="&#xfb02;" horiz-adv-x="496" 
d="M45 477h60v60c0 89 61 130 120 130h196v-667h-70v605h-126c-25 0 -50 -20 -50 -68v-60h100v-61h-100v-416h-70v416h-60v61z" />
    </font>
</defs>
</svg>
